<?xml version="1.0" encoding="UTF-8" standalone="no"?><!-- Generator: Gravit.io --><svg xmlns="http://www.w3.org/2000/svg" xmlns:xlink="http://www.w3.org/1999/xlink" style="isolation:isolate" viewBox="0 0 800 800" width="800pt" height="800pt"><defs><clipPath id="_clipPath_8bXm6WPr9ay73zJphFyYEMsPpashvID5"><rect width="800" height="800"/></clipPath></defs><g clip-path="url(#_clipPath_8bXm6WPr9ay73zJphFyYEMsPpashvID5)"><g><clipPath id="_clipPath_xsvZAkH1DEG0uEz73XBfgJS6PillU4xg"><path d=" M 0 0 L 0 800.529 L 800.529 800.529 L 800.529 0 L 0 0 Z " fill="rgb(255,255,255)"/></clipPath><g clip-path="url(#_clipPath_xsvZAkH1DEG0uEz73XBfgJS6PillU4xg)"><path d=" M 800.529 0 L 800.529 800.529 L 0 800.529 L 0 0 L 800.529 0 Z " fill="none"/><path d=" M 124.982 726.593 L 120.158 726.593 L 120.158 238.117 L 124.982 238.117 L 124.982 726.593 Z " fill="rgb(148,121,180)"/><path d=" M 149.067 177.753 C 149.067 194.789 136.371 239.542 123.407 261.158 C 122.99 261.853 122.123 261.874 121.681 261.201 C 107.067 238.945 96.072 194.81 96.072 177.753 C 96.072 160.349 102.095 137.33 122.57 137.33 C 141.841 137.33 149.067 160.349 149.067 177.753 Z " fill="rgb(148,121,180)"/><path d=" M 196.842 261.758 C 185.519 274.051 146.614 297.906 122.895 304.886 C 122.132 305.11 121.492 304.552 121.62 303.772 C 125.867 278 147.265 238.847 158.603 226.538 C 170.168 213.981 189.813 201.373 204.586 214.98 C 218.491 227.789 208.408 249.201 196.842 261.758 Z " fill="rgb(148,121,180)"/><path d=" M 47.259 261.758 C 58.581 274.051 97.486 297.906 121.206 304.886 C 121.968 305.11 122.608 304.552 122.479 303.772 C 118.234 278 96.835 238.847 85.497 226.538 C 73.932 213.981 54.288 201.373 39.513 214.98 C 25.609 227.789 35.693 249.201 47.259 261.758 Z " fill="rgb(148,121,180)"/><path d=" M 189.072 529.697 C 178.926 540.712 144.062 562.09 122.806 568.345 C 122.124 568.547 121.55 568.044 121.665 567.347 C 125.471 544.251 144.647 509.165 154.806 498.135 C 165.17 486.883 182.773 475.583 196.013 487.78 C 208.475 499.256 199.437 518.445 189.072 529.697 Z " fill="rgb(148,121,180)"/><path d=" M 55.027 529.697 C 65.174 540.712 100.037 562.09 121.294 568.345 C 121.977 568.547 122.55 568.044 122.435 567.347 C 118.63 544.251 99.454 509.165 89.294 498.135 C 78.93 486.883 61.326 475.583 48.087 487.78 C 35.626 499.256 44.662 518.445 55.027 529.697 Z " fill="rgb(148,121,180)"/><path d=" M 201.618 348.465 C 189.573 361.544 148.183 386.921 122.949 394.348 C 122.137 394.587 121.457 393.991 121.593 393.162 C 126.111 365.744 148.876 324.091 160.937 310.997 C 173.242 297.637 194.139 284.224 209.859 298.701 C 224.652 312.326 213.922 335.108 201.618 348.465 Z " fill="rgb(128,165,214)"/><path d=" M 42.482 348.465 C 54.528 361.544 95.917 386.921 121.152 394.348 C 121.963 394.587 122.644 393.991 122.507 393.162 C 117.99 365.744 95.224 324.091 83.163 310.997 C 70.859 297.637 49.96 284.224 34.242 298.701 C 19.449 312.326 30.177 335.108 42.482 348.465 Z " fill="rgb(148,121,180)"/><path d=" M 201.618 439.479 C 189.573 452.558 148.183 477.935 122.949 485.362 C 122.137 485.601 121.457 485.003 121.593 484.177 C 126.111 456.758 148.876 415.105 160.937 402.009 C 173.242 388.65 194.139 375.238 209.859 389.715 C 224.652 403.338 213.922 426.12 201.618 439.479 Z " fill="rgb(128,165,214)"/><path d=" M 42.482 439.479 C 54.528 452.558 95.917 477.935 121.152 485.362 C 121.963 485.601 122.644 485.003 122.507 484.177 C 117.99 456.758 95.224 415.105 83.163 402.009 C 70.859 388.65 49.96 375.238 34.242 389.715 C 19.449 403.338 30.177 426.12 42.482 439.479 Z " fill="rgb(148,121,180)"/><path d=" M 201.76 628.287 L 194.139 800.529 L 50.877 800.529 L 43.255 628.287 L 201.76 628.287 Z " fill="rgb(175,154,196)"/><path d=" M 184.597 800.529 L 50.877 800.529 L 43.255 628.287 L 77.422 628.287 C 104.512 670.395 152.735 748.606 184.597 800.529 Z " fill="rgb(148,121,180)"/><path d=" M 645.261 793.215 L 641.073 793.215 L 641.073 369.172 L 645.261 369.172 L 645.261 793.215 Z " fill="rgb(175,154,196)"/><path d=" M 666.171 316.769 C 666.171 331.558 655.148 370.408 643.894 389.174 C 643.532 389.776 642.78 389.795 642.397 389.212 C 629.709 369.891 620.165 331.577 620.165 316.769 C 620.165 301.662 625.394 281.679 643.167 281.679 C 659.897 281.679 666.171 301.662 666.171 316.769 Z " fill="rgb(166,193,228)"/><path d=" M 707.643 389.694 C 697.813 400.365 664.042 421.073 643.449 427.135 C 642.788 427.329 642.232 426.842 642.344 426.166 C 646.03 403.795 664.605 369.806 674.449 359.12 C 684.487 348.219 701.54 337.274 714.366 349.087 C 726.437 360.204 717.682 378.794 707.643 389.694 Z " fill="rgb(166,193,228)"/><path d=" M 577.79 389.694 C 587.618 400.365 621.393 421.073 641.982 427.135 C 642.645 427.329 643.201 426.842 643.09 426.166 C 639.403 403.795 620.826 369.806 610.986 359.12 C 600.944 348.219 583.891 337.274 571.065 349.087 C 558.995 360.204 567.749 378.794 577.79 389.694 Z " fill="rgb(166,193,228)"/><path d=" M 700.898 622.291 C 692.091 631.854 661.826 650.412 643.372 655.841 C 642.78 656.017 642.283 655.58 642.381 654.973 C 645.686 634.926 662.332 604.466 671.152 594.892 C 680.148 585.122 695.43 575.316 706.924 585.902 C 717.741 595.864 709.896 612.523 700.898 622.291 Z " fill="rgb(175,154,196)"/><path d=" M 584.533 622.291 C 593.341 631.854 623.607 650.412 642.059 655.841 C 642.652 656.017 643.151 655.58 643.05 654.973 C 639.747 634.926 623.099 604.466 614.281 594.892 C 605.283 585.122 590.001 575.316 578.508 585.902 C 567.692 595.864 575.537 612.523 584.533 622.291 Z " fill="rgb(175,154,196)"/><path d=" M 711.79 464.966 C 701.334 476.318 665.403 498.348 643.497 504.796 C 642.792 505.002 642.202 504.485 642.319 503.766 C 646.24 479.965 666.003 443.805 676.474 432.438 C 687.155 420.841 705.298 409.198 718.942 421.763 C 731.784 433.592 722.471 453.367 711.79 464.966 Z " fill="rgb(175,154,196)"/><path d=" M 573.644 464.966 C 584.101 476.318 620.03 498.348 641.936 504.796 C 642.64 505.002 643.233 504.485 643.113 503.766 C 639.192 479.965 619.428 443.805 608.957 432.438 C 598.277 420.841 580.133 409.198 566.491 421.763 C 553.647 433.592 562.962 453.367 573.644 464.966 Z " fill="rgb(175,154,196)"/><path d=" M 711.79 543.972 C 701.334 555.325 665.403 577.357 643.497 583.803 C 642.792 584.011 642.202 583.494 642.319 582.775 C 646.24 558.972 666.003 522.812 676.474 511.447 C 687.155 499.85 705.298 488.204 718.942 500.772 C 731.784 512.601 722.471 532.376 711.79 543.972 Z " fill="rgb(175,154,196)"/><path d=" M 573.644 543.972 C 584.101 555.325 620.03 577.357 641.936 583.803 C 642.64 584.011 643.233 583.494 643.113 582.775 C 639.192 558.972 619.428 522.812 608.957 511.447 C 598.277 499.85 580.133 488.204 566.491 500.772 C 553.647 512.601 562.962 532.376 573.644 543.972 Z " fill="rgb(175,154,196)"/><path d=" M 717.621 800.429 L 722.426 691.849 L 563.921 691.849 L 568.726 800.429 L 717.621 800.429 Z " fill="rgb(175,154,196)"/><path d=" M 666.07 800.429 C 641.299 760.344 615.387 718.737 598.088 691.849 L 563.921 691.849 L 568.726 800.429 L 666.07 800.429 Z " fill="rgb(148,121,180)"/><path d=" M 567.648 800.429 L 534.798 579.157 C 499.948 585.305 464.417 588.651 430.708 590.188 C 413.505 590.989 396.787 591.325 380.876 591.309 C 323.702 591.293 260.745 587.018 239.635 584.713 C 228.86 611.503 214.298 675.958 213.977 800.429 L 567.648 800.429 Z " fill="rgb(61,57,104)"/><path d=" M 567.648 800.429 L 557.075 729.211 L 535.863 594.019 L 406.52 698.999 L 389.014 800.429 L 567.648 800.429 Z " fill="rgb(49,48,78)"/><path d=" M 238.77 461.884 C 214.033 474.252 185.542 494.121 156.873 491.992 C 90.784 487.083 71.075 401.476 106.237 348.284 L 138.164 375.65 L 182.871 383.445 L 238.77 461.884 Z " fill="rgb(233,143,118)"/><path d=" M 458.594 264.576 C 450.208 282.273 430.47 311.635 392.171 310.456 C 346.664 309.041 331.326 275.496 327.083 262.514 C 340.968 261.277 350.926 260.785 350.926 260.785 L 355.68 233.112 L 360.177 206.913 L 429.625 196.816 L 431.491 229.38 L 433.416 263.319 C 433.416 263.319 444.532 263.653 458.594 264.576 Z " fill="rgb(248,175,135)"/><path d=" M 432.311 238.29 C 410.375 268.785 365.593 254.518 355.68 233.112 L 360.177 206.913 L 429.625 196.816 L 432.311 238.29 Z " fill="rgb(233,131,99)"/><path d=" M 345.758 177.583 C 345.758 177.583 324.722 181.79 330.13 198.019 C 335.54 214.247 352.37 221.46 363.189 211.844 L 345.758 177.583 Z " fill="rgb(233,131,99)"/><path d=" M 423.432 150.524 C 423.432 150.524 441.219 138.53 448.951 153.789 C 456.682 169.049 449.971 186.086 435.526 187.011 L 423.432 150.524 Z " fill="rgb(233,131,99)"/><path d=" M 427.37 116.769 C 427.37 116.769 427.308 116.832 427.183 116.957 C 424.568 119.509 394.528 143.657 337.597 147.493 C 337.597 147.493 346.6 170.477 348.651 202.857 C 348.651 202.966 348.667 203.077 348.667 203.185 C 348.667 203.185 338.489 187.466 331.898 168.96 C 323.177 144.471 325.525 117.635 359.079 101.852 C 390.19 87.244 422.002 102.02 427.37 116.769 Z " fill="rgb(61,57,104)"/><path d=" M 410.466 230.226 C 385.65 238.461 359 226.297 348.651 202.857 C 346.6 170.477 337.597 147.493 337.597 147.493 C 394.528 143.657 424.568 119.509 427.183 116.957 L 442.407 166.627 C 451.16 193.009 436.864 221.489 410.466 230.226 Z " fill="rgb(248,175,135)"/><path d=" M 379.449 184.091 C 379.449 186.365 377.608 188.206 375.334 188.206 C 373.062 188.206 371.22 186.365 371.22 184.091 C 371.22 181.819 373.062 179.978 375.334 179.978 C 377.608 179.978 379.449 181.819 379.449 184.091 Z " fill="rgb(61,57,104)"/><path d=" M 417.069 172.336 C 417.069 174.608 415.226 176.449 412.953 176.449 C 410.681 176.449 408.84 174.608 408.84 172.336 C 408.84 170.064 410.681 168.221 412.953 168.221 C 415.226 168.221 417.069 170.064 417.069 172.336 Z " fill="rgb(61,57,104)"/><path d=" M 405.314 194.511 C 404.704 194.511 404.123 194.16 403.855 193.571 C 403.489 192.766 403.844 191.818 404.65 191.451 L 414.959 186.765 L 397.959 175.431 C 397.222 174.941 397.024 173.947 397.514 173.21 C 398.004 172.475 398.998 172.274 399.734 172.767 L 421.53 187.296 L 405.975 194.365 C 405.759 194.463 405.535 194.511 405.314 194.511 Z " fill="rgb(61,57,104)"/><path d=" M 380.04 172.386 C 379.995 172.386 379.952 172.386 379.907 172.383 L 358.158 171.207 C 356.834 171.135 355.819 170.003 355.889 168.679 C 355.961 167.355 357.071 166.348 358.417 166.411 L 380.166 167.586 C 381.492 167.658 382.507 168.79 382.435 170.114 C 382.366 171.395 381.306 172.386 380.04 172.386 Z " fill="rgb(61,57,104)"/><path d=" M 397.669 157.688 C 397.376 157.688 397.078 157.634 396.79 157.52 C 395.559 157.033 394.952 155.647 395.434 154.415 C 397.501 149.138 404.755 139.571 417.365 141.151 C 418.683 141.315 419.616 142.515 419.451 143.832 C 419.286 145.149 418.073 146.083 416.771 145.917 C 404.72 144.404 400.096 155.691 399.904 156.173 C 399.529 157.113 398.625 157.688 397.669 157.688 Z " fill="rgb(61,57,104)"/><path d=" M 410.055 204.168 C 408.406 200.978 403.079 199.942 399.798 199.74 C 395.532 199.477 391.209 200.63 387.664 203.025 C 386.513 203.802 380.294 211.546 380.613 211.572 C 386.446 212.041 392.288 212.302 398.127 212.673 C 400.474 212.822 404.746 214.041 406.909 213.174 C 408.744 212.438 410.18 209.015 410.477 207.238 C 410.676 206.042 410.498 205.028 410.055 204.168 Z " fill="rgb(207,74,72)"/><path d=" M 597.531 345.572 L 595.513 452.555 C 595.497 453.564 594.729 454.412 593.704 454.508 L 542.278 459.648 C 541.317 459.76 540.549 460.544 540.485 461.521 L 536.196 586.848 L 535.842 592.162 C 535.778 593.107 535.075 593.875 534.161 594.019 C 497.945 600.007 461.074 603.274 426.075 604.795 C 407.949 605.595 390.338 605.931 373.576 605.915 C 313.345 605.899 265.968 606.639 243.729 604.333 C 241.007 604.047 238.702 603.805 236.812 603.583 C 233.578 603.229 231.273 600.299 231.657 597.065 L 238.974 471.367 C 239.15 469.846 237.645 468.694 236.236 469.27 C 233.066 470.567 205.321 482.155 196.259 486.64 C 195.363 487.086 194.258 486.814 193.698 485.998 C 192.881 484.797 192.08 483.612 191.296 482.394 C 172.916 454.158 159.57 422.855 151.872 389.974 C 151.633 388.953 151.402 387.869 151.731 386.873 C 152.056 385.885 152.877 385.155 153.668 384.481 C 163.585 376.037 174.45 368.896 184.467 360.307 C 195.182 351.121 205.896 341.936 216.609 332.753 C 236.88 315.375 257.151 297.997 277.422 280.619 C 281.58 277.053 285.931 273.629 289.935 269.89 C 290.176 269.666 290.432 269.506 290.736 269.41 C 299.27 266.848 310.173 264.879 320.932 263.406 C 328.265 262.397 335.518 261.613 341.89 261.02 C 342.802 260.94 343.635 261.469 343.939 262.333 C 348.022 273.765 360.99 298.853 396.502 299.958 C 426.858 300.887 442.916 278.28 450.057 263.774 C 450.425 263.038 451.178 262.589 451.994 262.653 C 465.475 263.582 481.806 265.151 490.5 267.697 C 496.248 269.378 587.124 336.798 596.73 343.939 C 597.242 344.323 597.547 344.932 597.531 345.572 Z " fill="rgb(223,97,84)"/><path d=" M 169.124 442.396 C 175.297 454.524 182.825 467.995 191.733 481.683 C 192.518 482.9 193.318 484.084 194.135 485.285 C 194.695 486.102 195.8 486.374 196.696 485.926 C 205.758 481.443 233.066 470.567 236.236 469.27 C 237.645 468.694 239.15 469.846 238.974 471.367 L 259.957 378.487 L 169.124 442.396 Z " fill="rgb(207,74,72)"/><path d=" M 406.014 314.925 C 441.402 313.942 459.63 281.54 466.953 263.902 C 461.919 263.395 456.778 262.983 451.994 262.653 C 451.178 262.589 450.425 263.038 450.057 263.774 C 442.916 278.28 426.858 300.887 396.502 299.958 C 360.99 298.853 348.022 273.765 343.939 262.333 C 343.635 261.469 342.802 260.94 341.89 261.02 C 336.744 261.499 331.019 262.109 325.148 262.855 C 329.554 282.052 345.849 315.895 406.014 314.925 Z " fill="rgb(207,74,72)"/><path d=" M 559.048 316.121 C 529.814 294.662 494.037 268.731 490.5 267.697 C 485.191 266.142 477.029 264.953 468.412 264.05 C 457.411 311.759 437.598 397.973 426.299 448.81 C 413.475 506.525 345.758 577.742 317.917 605.076 C 335.905 605.589 354.902 605.911 373.576 605.915 C 390.338 605.931 407.949 605.595 426.075 604.795 C 461.074 603.274 497.945 600.007 534.161 594.019 C 535.075 593.875 535.778 593.107 535.842 592.162 L 536.196 586.848 L 540.485 461.521 C 540.549 460.544 541.317 459.76 542.278 459.648 L 593.704 454.508 C 594.729 454.412 595.497 453.564 595.513 452.555 L 597.531 345.572 C 597.547 344.932 597.242 344.323 596.73 343.939 C 596.274 343.6 595.633 343.124 594.828 342.527 L 558.197 346.118 L 559.048 316.121 Z " fill="rgb(207,74,72)"/><path d=" M 366.634 248.647 L 358.169 252.86 C 357.707 253.086 357.149 252.905 356.908 252.431 L 319.267 176.746 L 314.31 166.777 C 314.083 166.302 314.276 165.741 314.737 165.516 L 323.188 161.307 C 323.665 161.079 324.222 161.258 324.449 161.734 L 363.045 239.331 L 367.047 247.389 C 367.289 247.861 367.095 248.422 366.634 248.647 Z " fill="rgb(242,122,96)"/><path d=" M 366.634 248.647 L 358.169 252.86 C 357.707 253.086 357.149 252.905 356.908 252.431 L 319.267 176.746 L 363.045 239.331 L 367.047 247.389 C 367.289 247.861 367.095 248.422 366.634 248.647 Z " fill="rgb(221,97,75)"/><path d=" M 363.667 230.146 C 362.956 228.498 361.397 227.377 359.61 227.225 L 346.509 226.119 L 336.142 228.146 L 344.932 223.413 L 351.917 222.038 C 355.769 221.279 357.713 216.938 355.716 213.559 C 354.631 211.722 352.607 210.646 350.478 210.773 L 338.846 211.468 L 330.732 215.073 L 337.945 209.439 C 338.584 208.8 341.957 208.936 342.841 208.826 C 345.398 208.506 347.489 208.602 349.469 206.664 C 350.379 205.776 351.013 204.511 350.832 203.253 C 350.595 201.61 349.069 200.443 347.506 199.879 C 342.69 198.142 337.101 200.142 332.309 201.099 L 326.675 205.832 L 329.345 201.383 C 330.228 199.911 331.693 198.883 333.377 198.554 L 342.858 196.695 C 344.943 196.262 346.053 193.973 345.101 192.069 L 343.004 187.874 C 341.904 185.676 339.434 184.523 337.043 185.097 L 321.284 188.63 C 318.702 189.247 316.531 190.984 315.359 193.364 L 303.684 217.103 C 302.454 217.608 301.229 218.126 300.003 218.645 C 260.564 235.328 221.891 254.517 185.167 276.547 C 137.079 305.397 84.558 344.817 87.532 405.742 C 90.009 456.474 118.288 477.805 118.859 477.21 C 119.055 477.006 326.675 260.83 326.675 260.83 C 339.973 255.194 340.875 244.826 340.875 244.826 L 351.243 236.486 L 358.919 236.931 C 362.534 237.142 365.103 233.469 363.667 230.146 Z " fill="rgb(248,175,135)"/><path d=" M 656.654 248.659 C 656.654 248.628 689.201 257.117 692.609 258.452 C 705.222 263.401 717.09 270.054 725.735 279.762 C 748.618 305.458 747.715 351.438 732.389 378.487 C 716.456 406.605 658.678 414.549 658.678 414.549 C 658.678 414.549 656.658 248.907 656.654 248.659 Z " fill="rgb(233,143,118)"/><path d=" M 497.448 240.319 L 633.846 240.319 C 660.017 240.319 681.597 260.823 682.936 286.959 L 687.755 381.068 C 688.349 392.677 685.955 404.245 680.802 414.663 L 661.286 454.121 C 659.836 457.055 658.909 460.222 658.552 463.476 L 651.47 527.773 C 650.385 537.622 641.025 544.377 631.334 542.301 L 631.334 542.301 C 601.818 535.976 581.243 509.056 583.116 478.927 C 583.81 467.768 585.846 454.976 589.99 440.611 L 493.92 436.639 L 486.312 436.639 C 477.069 436.639 469.577 429.146 469.577 419.904 L 469.577 396.17 C 469.577 387.643 475.988 380.48 484.462 379.537 L 493.92 378.487 L 478.378 374.787 C 470.841 372.992 465.519 366.256 465.519 358.506 L 465.519 346.309 C 465.519 338.92 470.367 332.404 477.446 330.281 L 492.567 325.745 L 479.771 323.825 C 471.58 322.595 465.519 315.559 465.519 307.275 L 465.069 299.598 C 465.069 292.422 469.643 286.046 476.439 283.746 L 482.109 281.828 L 479.136 281.061 C 472.317 279.3 465.97 271.648 467.112 259.965 L 467.112 259.965 C 466.233 250.742 473.015 242.56 482.242 241.715 L 497.448 240.319 Z " fill="rgb(248,175,135)"/><path d=" M 589.988 443.013 C 588.928 443.013 587.956 442.305 587.668 441.231 C 587.327 439.951 588.086 438.634 589.368 438.289 C 597.209 436.19 602.668 429.33 602.952 421.216 L 603.498 405.657 C 603.848 395.664 596.01 387.156 586.022 386.691 L 484.35 381.937 C 483.026 381.875 482.001 380.749 482.064 379.425 C 482.125 378.101 483.194 377.087 484.576 377.139 L 586.248 381.892 C 598.848 382.481 608.741 393.216 608.298 405.825 L 607.752 421.385 C 607.395 431.621 600.505 440.281 590.609 442.931 C 590.401 442.985 590.195 443.013 589.988 443.013 Z " fill="rgb(61,57,104)"/><path d=" M 586.131 386.694 C 585.01 386.694 584.008 385.903 583.781 384.761 C 583.521 383.461 584.363 382.196 585.664 381.937 C 594.847 380.102 601.511 371.975 601.511 362.612 L 601.511 350.025 C 601.511 339.24 593.065 330.586 582.285 330.325 L 492.509 328.145 C 491.184 328.113 490.133 327.011 490.165 325.685 C 490.197 324.379 491.265 323.343 492.565 323.343 C 492.586 323.343 492.605 323.343 492.625 323.343 L 582.401 325.524 C 595.809 325.849 606.314 336.613 606.314 350.025 L 606.314 362.612 C 606.314 374.258 598.025 384.366 586.605 386.646 C 586.446 386.678 586.288 386.694 586.131 386.694 Z " fill="rgb(61,57,104)"/><path d=" M 591.291 329.048 C 590.441 329.048 589.615 328.593 589.179 327.792 C 588.545 326.627 588.978 325.168 590.143 324.536 C 596.696 320.974 600.609 314.837 600.609 308.12 L 600.609 304.811 C 600.609 294.257 591.118 285.762 578.998 285.469 L 479.528 283.065 C 478.202 283.033 477.153 281.932 477.186 280.606 C 477.219 279.28 478.337 278.238 479.645 278.264 L 579.115 280.667 C 593.863 281.024 605.413 291.628 605.413 304.811 L 605.413 308.12 C 605.413 316.499 600.441 324.406 592.436 328.755 C 592.071 328.953 591.679 329.048 591.291 329.048 Z " fill="rgb(61,57,104)"/><path d=" M 598.502 280.132 L 598.518 280.132 L 598.502 280.132 Z  M 579.054 284.87 C 577.855 284.87 576.819 283.973 576.672 282.753 C 576.515 281.437 577.455 280.241 578.771 280.083 L 597.744 277.804 C 600.742 275.827 602.302 266.869 602.028 259.395 C 601.785 252.724 597.127 247.293 591.423 247.03 L 497.338 242.719 C 496.012 242.656 494.989 241.534 495.05 240.208 C 495.109 238.884 496.243 237.877 497.557 237.92 L 591.642 242.232 C 599.959 242.615 606.488 249.917 606.828 259.219 C 606.9 261.18 607.307 278.496 599.558 282.289 L 599.194 282.468 L 579.343 284.852 C 579.247 284.863 579.149 284.87 579.054 284.87 Z " fill="rgb(61,57,104)"/><path d=" M 598.494 390.346 C 597.35 390.346 596.338 389.529 596.136 388.364 C 595.978 387.451 592.663 365.746 628.839 344.411 C 629.979 343.742 631.454 344.117 632.128 345.26 C 632.802 346.403 632.422 347.875 631.279 348.549 C 613.908 358.794 606.565 368.906 603.466 375.584 C 600.16 382.702 600.866 387.513 600.87 387.56 C 601.075 388.863 600.195 390.098 598.893 390.312 C 598.759 390.335 598.626 390.346 598.494 390.346 Z " fill="rgb(61,57,104)"/><path d=" M 729.232 97.921 L 729.232 165.165 C 729.232 174.123 721.966 181.376 713.008 181.376 L 502.154 181.376 L 463.219 200.849 L 478.867 170.476 C 478.276 168.811 477.96 167.022 477.96 165.165 L 477.96 97.921 C 477.96 88.962 485.226 81.709 494.186 81.709 L 713.008 81.709 C 721.966 81.709 729.232 88.962 729.232 97.921 Z " fill="rgb(254,254,254)"/><path d=" M 516.567 114.015 L 520.196 124.407 C 520.291 124.678 520.545 124.862 520.83 124.869 L 531.836 125.109 C 532.489 125.123 532.758 125.952 532.238 126.347 L 523.477 133.009 C 523.248 133.183 523.152 133.481 523.234 133.756 L 526.407 144.297 C 526.594 144.921 525.888 145.433 525.353 145.061 L 516.309 138.788 C 516.074 138.624 515.76 138.624 515.524 138.788 L 506.478 145.061 C 505.942 145.433 505.239 144.921 505.427 144.297 L 508.6 133.756 C 508.682 133.481 508.585 133.183 508.356 133.009 L 499.596 126.347 C 499.075 125.952 499.344 125.123 499.997 125.109 L 511.001 124.869 C 511.288 124.862 511.543 124.678 511.637 124.407 L 515.267 114.015 C 515.48 113.399 516.351 113.399 516.567 114.015 Z " fill="rgb(223,97,84)"/><path d=" M 560.36 114.015 L 563.99 124.407 C 564.084 124.678 564.337 124.862 564.626 124.869 L 575.63 125.109 C 576.283 125.123 576.552 125.952 576.033 126.347 L 567.271 133.009 C 567.042 133.183 566.946 133.481 567.027 133.756 L 570.199 144.297 C 570.388 144.921 569.683 145.433 569.147 145.061 L 560.104 138.788 C 559.867 138.624 559.554 138.624 559.317 138.788 L 550.274 145.061 C 549.737 145.433 549.033 144.921 549.222 144.297 L 552.392 133.756 C 552.475 133.481 552.378 133.183 552.15 133.009 L 543.388 126.347 C 542.869 125.952 543.138 125.123 543.789 125.109 L 554.795 124.869 C 555.083 124.862 555.336 124.678 555.431 124.407 L 559.059 114.015 C 559.275 113.399 560.146 113.399 560.36 114.015 Z " fill="rgb(175,154,196)"/><path d=" M 604.154 114.015 L 607.784 124.407 C 607.878 124.678 608.133 124.862 608.419 124.869 L 619.423 125.109 C 620.077 125.123 620.346 125.952 619.825 126.347 L 611.064 133.009 C 610.835 133.183 610.739 133.481 610.821 133.756 L 613.994 144.297 C 614.182 144.921 613.479 145.433 612.942 145.061 L 603.896 138.788 C 603.661 138.624 603.347 138.624 603.112 138.788 L 594.066 145.061 C 593.531 145.433 592.827 144.921 593.014 144.297 L 596.187 133.756 C 596.269 133.481 596.173 133.183 595.944 133.009 L 587.183 126.347 C 586.663 125.952 586.932 125.123 587.585 125.109 L 598.589 124.869 C 598.875 124.862 599.13 124.678 599.225 124.407 L 602.854 114.015 C 603.07 113.399 603.938 113.399 604.154 114.015 Z " fill="rgb(175,154,196)"/><path d=" M 647.949 114.015 L 651.577 124.407 C 651.672 124.678 651.925 124.862 652.213 124.869 L 663.219 125.109 C 663.87 125.123 664.139 125.952 663.621 126.347 L 654.858 133.009 C 654.631 133.183 654.533 133.481 654.616 133.756 L 657.786 144.297 C 657.975 144.921 657.271 145.433 656.734 145.061 L 647.692 138.788 C 647.455 138.624 647.141 138.624 646.904 138.788 L 637.861 145.061 C 637.325 145.433 636.62 144.921 636.809 144.297 L 639.981 133.756 C 640.064 133.481 639.967 133.183 639.738 133.009 L 630.975 126.347 C 630.456 125.952 630.725 125.123 631.379 125.109 L 642.383 124.869 C 642.671 124.862 642.924 124.678 643.018 124.407 L 646.648 114.015 C 646.862 113.399 647.733 113.399 647.949 114.015 Z " fill="rgb(175,154,196)"/><path d=" M 691.742 114.015 L 695.371 124.407 C 695.466 124.678 695.72 124.862 696.007 124.869 L 707.011 125.109 C 707.664 125.123 707.933 125.952 707.413 126.347 L 698.652 133.009 C 698.423 133.183 698.327 133.481 698.408 133.756 L 701.582 144.297 C 701.769 144.921 701.066 145.433 700.53 145.061 L 691.484 138.788 C 691.248 138.624 690.935 138.624 690.699 138.788 L 681.655 145.061 C 681.12 145.433 680.414 144.921 680.601 144.297 L 683.775 133.756 C 683.858 133.481 683.76 133.183 683.531 133.009 L 674.77 126.347 C 674.252 125.952 674.519 125.123 675.172 125.109 L 686.178 124.869 C 686.463 124.862 686.717 124.678 686.812 124.407 L 690.442 114.015 C 690.658 113.399 691.529 113.399 691.742 114.015 Z " fill="rgb(175,154,196)"/></g></g></g></svg>