<?xml version="1.0" encoding="UTF-8" standalone="no"?><!-- Generator: Gravit.io --><svg xmlns="http://www.w3.org/2000/svg" xmlns:xlink="http://www.w3.org/1999/xlink" style="isolation:isolate" viewBox="0 0 3661 2423" width="3661pt" height="2423pt"><defs><clipPath id="_clipPath_8HyaMSxi2iyS5qCinP1OjsD1kj4XJNIG"><rect width="3661" height="2423"/></clipPath></defs><g clip-path="url(#_clipPath_8HyaMSxi2iyS5qCinP1OjsD1kj4XJNIG)"><g><clipPath id="_clipPath_oKbEG6es1RLkBsQmelA9qBDMOhx2RkSw"><path d=" M 0 0 L 0 2423 L 3661.134 2423 L 3661.134 0 L 0 0 Z " fill="rgb(255,255,255)"/></clipPath><g clip-path="url(#_clipPath_oKbEG6es1RLkBsQmelA9qBDMOhx2RkSw)"><path d=" M 2997.803 705.598 C 2997.803 906.948 2834.569 1070.181 2633.219 1070.181 C 2431.869 1070.181 2268.642 906.948 2268.642 705.598 C 2268.642 504.247 2431.869 341.016 2633.219 341.016 C 2834.569 341.016 2997.803 504.247 2997.803 705.598 Z " fill="rgb(229,226,240)"/><path d=" M 3235.888 2323.744 C 3313.114 2264.668 3381.236 2195.653 3432.013 2112.773 C 3535.177 1944.408 3547.255 1707.24 3414.832 1560.769 C 3267.739 1398.071 3015.077 1402.461 2796.817 1424.126 C 2578.563 1445.785 2330.063 1462.766 2169.445 1313.409 C 2038.48 1191.631 2010.549 997.434 1997.142 819.101 C 1983.735 640.773 1972.362 449.023 1861.122 308.999 C 1711.395 120.525 1410.108 97.772 1207.3 227.43 C 1004.493 357.088 898.666 605.76 896.262 846.461 C 895.239 949.466 901.458 1073.314 816.391 1131.397 C 748.587 1177.695 655.45 1154.948 582.601 1117.079 C 509.75 1079.215 441.053 1027.01 359.687 1016.042 C 251.37 1001.442 143.443 1067.131 83.318 1158.41 C 23.192 1249.678 3.841 1362.058 0.523 1471.306 C -8.891 1781.369 109.193 2090.861 313.205 2323.744 L 3235.888 2323.744 Z " fill="rgb(229,226,240)"/><line x1="23.279" y1="2319.953" x2="3447.436" y2="2319.953" vector-effect="non-scaling-stroke" stroke-width="1.048" stroke="rgb(192,177,214)" stroke-linejoin="miter" stroke-linecap="butt" stroke-miterlimit="10"/><path d=" M 2634.083 2283.976 L 1630.913 2283.976 C 1593.872 2283.976 1563.849 2313.999 1563.849 2351.034 L 2634.083 2351.034 L 2634.083 2283.976 Z " fill="rgb(127,136,194)"/><path d=" M 2959.375 1834.332 L 2265.003 1834.332 C 2245.737 1834.332 2228.327 1845.829 2220.763 1863.544 L 2029.269 2312.195 C 2021.417 2330.592 2034.912 2351.034 2054.919 2351.034 L 2772.161 2351.034 C 2791.427 2351.034 2808.837 2339.538 2816.402 2321.817 L 2998.92 1894.207 C 3011.027 1865.842 2990.215 1834.332 2959.375 1834.332 Z " fill="rgb(168,172,214)"/><path d=" M 2599.84 2102.51 C 2589.261 2145.594 2545.76 2180.518 2502.677 2180.518 C 2459.594 2180.518 2433.239 2145.594 2443.819 2102.51 C 2454.398 2059.427 2497.899 2024.503 2540.982 2024.503 C 2584.065 2024.503 2610.42 2059.427 2599.84 2102.51 Z " fill="rgb(254,254,254)"/><line x1="1561.974" y1="2385.224" x2="2780.595" y2="2385.224" vector-effect="non-scaling-stroke" stroke-width="1.048" stroke="rgb(192,177,214)" stroke-linejoin="miter" stroke-linecap="butt" stroke-miterlimit="10"/><line x1="2082.38" y1="2419.92" x2="2728.554" y2="2419.92" vector-effect="non-scaling-stroke" stroke-width="1.048" stroke="rgb(192,177,214)" stroke-linejoin="miter" stroke-linecap="butt" stroke-miterlimit="10"/><path d=" M 3228.335 744.472 L 1638.242 744.472 C 1566.388 744.472 1508.141 802.72 1508.141 874.574 L 1508.141 1551.083 C 1508.141 1622.937 1566.388 1681.184 1638.242 1681.184 L 2249.927 1681.184 L 2359.486 1790.743 L 2469.045 1681.184 L 3228.335 1681.184 C 3300.183 1681.184 3358.437 1622.937 3358.437 1551.083 L 3358.437 874.574 C 3358.437 802.72 3300.183 744.472 3228.335 744.472 Z " fill="rgb(254,254,254)"/><path d=" M 3228.335 744.472 L 1638.242 744.472 C 1566.388 744.472 1508.141 802.72 1508.141 874.574 L 1508.141 1551.083 C 1508.141 1622.937 1566.388 1681.184 1638.242 1681.184 L 2249.927 1681.184 L 2359.486 1790.743 L 2469.045 1681.184 L 3228.335 1681.184 C 3300.183 1681.184 3358.437 1622.937 3358.437 1551.083 L 3358.437 874.574 C 3358.437 802.72 3300.183 744.472 3228.335 744.472 Z " fill="none" vector-effect="non-scaling-stroke" stroke-width="1.048" stroke="rgb(165,150,199)" stroke-linejoin="miter" stroke-linecap="butt" stroke-miterlimit="10"/><path d=" M 1941.44 1016.759 C 1941.44 1091.811 1880.606 1152.638 1805.555 1152.638 C 1730.515 1152.638 1669.676 1091.811 1669.676 1016.759 C 1669.676 941.72 1730.515 880.88 1805.555 880.88 C 1880.606 880.88 1941.44 941.72 1941.44 1016.759 Z " fill="rgb(204,208,233)"/><path d=" M 2088.763 893.335 L 2113.696 968.122 L 2192.532 967.511 L 2129.113 1014.344 L 2154.051 1089.131 L 2089.915 1043.285 L 2026.495 1090.112 L 2050.282 1014.949 L 1986.145 969.109 L 2064.976 968.498 L 2088.763 893.335 Z " fill="rgb(240,165,78)"/><path d=" M 2339.849 893.335 L 2364.788 968.122 L 2443.625 967.511 L 2380.205 1014.344 L 2405.144 1089.131 L 2341.007 1043.285 L 2277.587 1090.112 L 2301.368 1014.949 L 2237.238 969.109 L 2316.068 968.498 L 2339.849 893.335 Z " fill="rgb(240,165,78)"/><path d=" M 2590.942 893.335 L 2615.88 968.122 L 2694.711 967.511 L 2631.291 1014.344 L 2656.23 1089.131 L 2592.099 1043.285 L 2528.68 1090.112 L 2552.461 1014.949 L 2488.33 969.109 L 2567.161 968.498 L 2590.942 893.335 Z " fill="rgb(240,165,78)"/><path d=" M 2842.034 893.335 L 2866.973 968.122 L 2945.803 967.511 L 2882.39 1014.344 L 2907.323 1089.131 L 2843.192 1043.285 L 2779.772 1090.112 L 2803.553 1014.949 L 2739.422 969.109 L 2818.253 968.498 L 2842.034 893.335 Z " fill="rgb(218,222,240)"/><path d=" M 3093.126 893.335 L 3118.065 968.122 L 3196.896 967.511 L 3133.476 1014.344 L 3158.415 1089.131 L 3094.284 1043.285 L 3030.864 1090.112 L 3054.645 1014.949 L 2990.515 969.109 L 3069.345 968.498 L 3093.126 893.335 Z " fill="rgb(218,222,240)"/><path d=" M 1782.503 1213.284 L 1662.482 1213.284 L 1662.482 1245.352 L 1782.503 1245.352 L 1782.503 1213.284 Z " fill="rgb(165,150,199)"/><path d=" M 1812.132 1213.284 L 1812.132 1245.352 L 1992.064 1245.352 L 1992.064 1213.284 L 1812.132 1213.284 Z " fill="rgb(165,150,199)"/><path d=" M 1921.338 1308.554 L 1662.482 1308.554 L 1662.482 1340.623 L 1921.338 1340.623 L 1921.338 1308.554 Z " fill="rgb(216,207,230)"/><path d=" M 2654.949 1308.554 L 2026.818 1308.554 L 2026.818 1340.623 L 2654.949 1340.623 L 2654.949 1308.554 Z " fill="rgb(216,207,230)"/><path d=" M 2737.941 1308.554 L 2737.941 1340.623 L 3204.09 1340.623 L 3204.09 1308.554 L 2737.941 1308.554 Z " fill="rgb(216,207,230)"/><path d=" M 2241.176 1410.631 L 1662.482 1410.631 L 1662.482 1442.7 L 2241.176 1442.7 L 2241.176 1410.631 Z " fill="rgb(216,207,230)"/><path d=" M 2914.875 1410.631 L 2914.875 1442.7 L 3204.09 1442.7 L 3204.09 1410.631 L 2914.875 1410.631 Z " fill="rgb(216,207,230)"/><path d=" M 2846.824 1410.631 L 2339.849 1410.631 L 2339.849 1442.7 L 2846.824 1442.7 L 2846.824 1410.631 Z " fill="rgb(216,207,230)"/><path d=" M 2401.094 1512.708 L 1662.482 1512.708 L 1662.482 1544.776 L 2401.094 1544.776 L 2401.094 1512.708 Z " fill="rgb(216,207,230)"/><path d=" M 3547.943 229.996 L 2510.059 229.996 C 2463.162 229.996 2425.145 268.016 2425.145 314.911 L 2425.145 522.597 C 2425.145 569.492 2463.162 607.512 2510.059 607.512 L 3547.943 607.512 C 3594.841 607.512 3632.857 569.492 3632.857 522.597 L 3632.857 314.911 C 3632.857 268.016 3594.841 229.996 3547.943 229.996 Z " fill="rgb(254,254,254)"/><path d=" M 3547.943 229.996 L 2510.059 229.996 C 2463.162 229.996 2425.145 268.016 2425.145 314.911 L 2425.145 522.597 C 2425.145 569.492 2463.162 607.512 2510.059 607.512 L 3547.943 607.512 C 3594.841 607.512 3632.857 569.492 3632.857 522.597 L 3632.857 314.911 C 3632.857 268.016 3594.841 229.996 3547.943 229.996 Z " fill="none" vector-effect="non-scaling-stroke" stroke-width="1.048" stroke="rgb(165,150,199)" stroke-linejoin="miter" stroke-linecap="butt" stroke-miterlimit="10"/><path d=" M 2824.319 354.534 L 2840.594 403.351 L 2892.052 402.95 L 2850.656 433.52 L 2866.937 482.332 L 2825.077 452.41 L 2783.681 482.975 L 2799.204 433.916 L 2757.343 403.988 L 2808.796 403.592 L 2824.319 354.534 Z " fill="rgb(240,165,78)"/><path d=" M 2988.211 354.534 L 3004.486 403.351 L 3055.944 402.95 L 3014.548 433.52 L 3030.823 482.332 L 2988.963 452.41 L 2947.567 482.975 L 2963.09 433.916 L 2921.229 403.988 L 2972.688 403.592 L 2988.211 354.534 Z " fill="rgb(240,165,78)"/><path d=" M 3152.102 354.534 L 3168.378 403.351 L 3219.836 402.95 L 3178.44 433.52 L 3194.721 482.332 L 3152.855 452.41 L 3111.464 482.975 L 3126.987 433.916 L 3085.121 403.988 L 3136.58 403.592 L 3152.102 354.534 Z " fill="rgb(240,165,78)"/><path d=" M 3315.994 354.534 L 3332.269 403.351 L 3383.722 402.95 L 3342.326 433.52 L 3358.607 482.332 L 3316.747 452.41 L 3275.356 482.975 L 3290.873 433.916 L 3249.013 403.988 L 3300.465 403.592 L 3315.994 354.534 Z " fill="rgb(240,165,78)"/><path d=" M 3479.886 354.534 L 3496.161 403.351 L 3547.614 402.95 L 3506.224 433.52 L 3522.505 482.332 L 3480.644 452.41 L 3439.248 482.975 L 3454.765 433.916 L 3412.905 403.988 L 3464.363 403.592 L 3479.886 354.534 Z " fill="rgb(218,222,240)"/><path d=" M 2688.369 402.02 C 2688.369 443.846 2654.467 477.751 2612.642 477.751 C 2570.817 477.751 2536.914 443.846 2536.914 402.02 C 2536.914 360.199 2570.817 326.294 2612.642 326.294 C 2654.467 326.294 2688.369 360.199 2688.369 402.02 Z " fill="rgb(204,208,233)"/><path d=" M 2588.297 493.341 L 2521.409 493.341 L 2521.409 511.215 L 2588.297 511.215 L 2588.297 493.341 Z " fill="rgb(165,150,199)"/><path d=" M 2604.807 493.341 L 2604.807 511.215 L 2705.091 511.215 L 2705.091 493.341 L 2604.807 493.341 Z " fill="rgb(165,150,199)"/><path d=" M 880.087 575.352 L 167.441 575.352 C 135.238 575.352 109.133 601.458 109.133 633.656 L 109.133 776.259 C 109.133 808.462 135.238 834.571 167.441 834.571 L 880.087 834.571 C 912.29 834.571 938.399 808.462 938.399 776.259 L 938.399 633.656 C 938.399 601.458 912.29 575.352 880.087 575.352 Z " fill="rgb(254,254,254)"/><path d=" M 880.087 575.352 L 167.441 575.352 C 135.238 575.352 109.133 601.458 109.133 633.656 L 109.133 776.259 C 109.133 808.462 135.238 834.571 167.441 834.571 L 880.087 834.571 C 912.29 834.571 938.399 808.462 938.399 776.259 L 938.399 633.656 C 938.399 601.458 912.29 575.352 880.087 575.352 Z " fill="none" vector-effect="non-scaling-stroke" stroke-width="1.048" stroke="rgb(165,150,199)" stroke-linejoin="miter" stroke-linecap="butt" stroke-miterlimit="10"/><path d=" M 383.223 660.863 L 394.398 694.377 L 429.731 694.113 L 401.306 715.096 L 412.485 748.616 L 383.74 728.068 L 355.319 749.051 L 365.978 715.372 L 337.233 694.824 L 372.564 694.554 L 383.223 660.863 Z " fill="rgb(240,165,78)"/><path d=" M 495.756 660.863 L 506.934 694.377 L 542.267 694.113 L 513.842 715.096 L 525.018 748.616 L 496.276 728.068 L 467.852 749.051 L 478.511 715.372 L 449.769 694.824 L 485.097 694.554 L 495.756 660.863 Z " fill="rgb(240,165,78)"/><path d=" M 608.294 660.863 L 619.467 694.377 L 654.797 694.113 L 626.373 715.096 L 637.552 748.616 L 608.811 728.068 L 580.388 749.051 L 591.043 715.372 L 562.302 694.824 L 597.632 694.554 L 608.294 660.863 Z " fill="rgb(240,165,78)"/><path d=" M 720.827 660.863 L 732.006 694.377 L 767.33 694.113 L 738.912 715.096 L 750.085 748.616 L 721.344 728.068 L 692.92 749.051 L 703.582 715.372 L 674.84 694.824 L 710.165 694.554 L 720.827 660.863 Z " fill="rgb(240,165,78)"/><path d=" M 833.36 660.863 L 844.539 694.377 L 879.869 694.113 L 851.445 715.096 L 862.624 748.616 L 833.877 728.068 L 805.459 749.051 L 816.115 715.372 L 787.373 694.824 L 822.704 694.554 L 833.36 660.863 Z " fill="rgb(218,222,240)"/><path d=" M 289.875 693.466 C 289.875 722.19 266.598 745.472 237.878 745.472 C 209.161 745.472 185.881 722.19 185.881 693.466 C 185.881 664.748 209.161 641.473 237.878 641.473 C 266.598 641.473 289.875 664.748 289.875 693.466 Z " fill="rgb(204,208,233)"/><path d=" M 221.161 756.175 L 175.233 756.175 L 175.233 768.447 L 221.161 768.447 L 221.161 756.175 Z " fill="rgb(165,150,199)"/><path d=" M 232.5 756.175 L 232.5 768.447 L 301.355 768.447 L 301.355 756.175 L 232.5 756.175 Z " fill="rgb(165,150,199)"/><path d=" M 3447.112 1956.563 C 3447.112 2043.958 3376.269 2114.801 3288.875 2114.801 C 3201.48 2114.801 3130.637 2043.958 3130.637 1956.563 C 3130.637 1869.169 3201.48 1798.326 3288.875 1798.326 C 3376.269 1798.326 3447.112 1869.169 3447.112 1956.563 Z " fill="rgb(240,113,156)"/><path d=" M 3336.337 1896.882 C 3310.034 1896.882 3288.875 1918.2 3288.875 1944.496 C 3288.875 1918.2 3267.709 1896.882 3241.407 1896.882 C 3215.116 1896.882 3193.792 1918.2 3193.792 1944.496 C 3193.792 2003.825 3288.875 2053.55 3288.875 2053.55 C 3288.875 2053.55 3383.951 2003.825 3383.951 1944.496 C 3383.951 1918.2 3362.633 1896.882 3336.337 1896.882 Z " fill="rgb(254,254,254)"/><path d=" M 482.784 1319.357 C 482.784 1406.752 411.937 1477.589 324.544 1477.589 C 237.152 1477.589 166.308 1406.752 166.308 1319.357 C 166.308 1231.963 237.152 1161.12 324.544 1161.12 C 411.937 1161.12 482.784 1231.963 482.784 1319.357 Z " fill="rgb(240,113,156)"/><path d=" M 372.008 1259.676 C 345.71 1259.676 324.544 1280.994 324.544 1307.291 C 324.544 1280.994 303.379 1259.676 277.081 1259.676 C 250.784 1259.676 229.466 1280.994 229.466 1307.291 C 229.466 1366.619 324.544 1416.338 324.544 1416.338 C 324.544 1416.338 419.625 1366.619 419.625 1307.291 C 419.625 1280.994 398.305 1259.676 372.008 1259.676 Z " fill="rgb(254,254,254)"/><path d=" M 1187.904 207.185 L 1226.303 325.375 L 1350.579 325.375 L 1250.037 398.426 L 1288.447 516.616 L 1187.904 443.571 L 1087.362 516.616 L 1125.766 398.426 L 1025.223 325.375 L 1149.5 325.375 L 1187.904 207.185 Z " fill="rgb(165,150,199)"/><path d=" M 1377.564 490.454 L 1406.887 580.713 L 1501.799 580.713 L 1425.014 636.5 L 1454.343 726.763 L 1377.564 670.978 L 1300.778 726.763 L 1330.108 636.5 L 1253.328 580.713 L 1348.234 580.713 L 1377.564 490.454 Z " fill="rgb(165,150,199)"/><path d=" M 1253.569 764.245 L 1270.62 816.726 L 1325.805 816.726 L 1281.165 849.165 L 1298.216 901.646 L 1253.569 869.213 L 1208.923 901.646 L 1225.98 849.165 L 1181.327 816.726 L 1236.518 816.726 L 1253.569 764.245 Z " fill="rgb(165,150,199)"/><path d=" M 3661.134 1240.744 C 3661.134 1353.671 3569.585 1445.221 3456.663 1445.221 C 3343.731 1445.221 3252.181 1353.671 3252.181 1240.744 C 3252.181 1127.823 3343.731 1036.273 3456.663 1036.273 C 3569.585 1036.273 3661.134 1127.823 3661.134 1240.744 Z " fill="rgb(165,150,199)"/><path d=" M 3352.894 1140.037 L 3352.894 1210.827 L 3496.337 1243.801 L 3352.894 1276.768 L 3352.894 1347.558 L 3618.404 1243.801 L 3352.894 1140.037 Z " fill="rgb(254,254,254)"/><path d=" M 2246.383 300.355 C 2246.442 465.56 2112.12 600 1948.117 599.653 C 1781.545 599.307 1665.879 471.903 1650.28 337.503 C 1639.947 248.501 1663.781 169.337 1722.345 102.22 C 1781.41 34.547 1857.684 -0.162 1947.594 -0.001 C 2110.704 0.297 2247.359 132.498 2246.383 300.355 Z " fill="rgb(165,150,199)"/><path d=" M 1989.137 412.329 C 1962.746 412.329 1936.35 412.363 1909.953 412.306 C 1900.461 412.288 1896.982 409.241 1897.058 399.746 C 1897.393 358.58 1895.177 317.351 1898.21 276.259 C 1900.161 249.839 1910.612 226.167 1926.94 205.211 C 1937.99 191.028 1949.545 177.28 1962.447 164.734 C 1966.62 160.681 1968.724 156.089 1968.63 150.206 C 1968.518 143.157 1969.206 136.097 1969.035 129.055 C 1968.83 120.249 1971.721 112.942 1979.985 109.619 C 1988.596 106.152 1997.019 107.926 2004.001 114.452 C 2010.802 120.806 2013.447 129.318 2015.551 137.963 C 2020.952 160.158 2016.768 181.236 2007.634 201.664 C 2004.577 208.505 2001.791 215.485 1998.371 222.138 C 1996.131 226.494 1997.865 228.027 2001.744 228.635 C 2003.749 228.951 2005.829 228.813 2007.875 228.807 C 2031.538 228.761 2055.201 228.687 2078.865 228.658 C 2091.731 228.641 2100.541 234.8 2103.598 245.849 C 2107.019 258.224 2102.076 272.408 2091.672 277.964 C 2086.994 280.461 2087.135 281.523 2091.22 284.387 C 2099.86 290.454 2105.631 298.151 2103.862 309.642 C 2102.528 318.315 2098.232 324.308 2089.691 327.04 C 2088.075 327.556 2085.595 327.407 2085.277 329.53 C 2084.954 331.735 2087.534 332.091 2088.886 333.095 C 2100.248 341.567 2101.764 364.165 2085.089 371.07 C 2081.874 372.396 2080.452 373.182 2083.843 376.437 C 2091.178 383.474 2091.249 392.463 2087.822 401.09 C 2084.501 409.459 2076.99 412.024 2068.326 411.995 C 2041.93 411.904 2015.533 411.961 1989.137 411.961 C 1989.137 412.082 1989.137 412.202 1989.137 412.329 Z " fill="rgb(250,250,252)"/><path d=" M 1865.148 435.873 C 1843.325 435.937 1821.501 435.971 1799.677 436.091 C 1793.183 436.126 1790.161 432.492 1789.48 426.569 C 1789.115 423.424 1789.315 420.209 1789.315 417.03 C 1789.327 371.329 1789.327 325.622 1789.392 279.921 C 1789.403 268.648 1792.23 265.905 1803.598 265.887 C 1823.153 265.853 1842.702 265.818 1862.256 265.899 C 1870.097 265.933 1874.118 269.348 1874.123 276.822 C 1874.17 324.784 1874.012 372.752 1873.918 420.72 C 1873.918 420.938 1873.788 421.156 1873.724 421.374 C 1872.495 421.759 1872.642 422.195 1873.671 422.672 C 1874.047 427.837 1873.9 432.756 1867.946 434.978 C 1867.77 433.543 1867.276 431.953 1865.595 432.452 C 1863.667 433.026 1865.413 434.714 1865.148 435.873 Z " fill="rgb(250,250,252)"/><clipPath id="_clipPath_aVEw24BEhq1LaPUSb8k1iUhORxW71hxS"><path d=" M 2134.044 956.649 L 20.934 956.649 L 20.934 2324.121 L 2134.044 2324.121 L 2134.044 956.649 Z " fill="rgb(255,255,255)"/></clipPath><g clip-path="url(#_clipPath_aVEw24BEhq1LaPUSb8k1iUhORxW71hxS)"><path d=" M 1169.566 1169.531 C 1177.918 1211.591 1175.62 1254.945 1178.835 1297.693 C 1182.044 1340.446 1191.819 1384.84 1219.914 1417.22 C 1243.748 1444.674 1279.431 1461.961 1296.435 1494.094 C 1309.36 1518.515 1309.13 1548.591 1299.503 1574.499 C 1289.881 1600.402 1271.608 1622.408 1250.401 1640.129 C 1177.407 1701.133 1068.101 1710.949 981.682 1671.181 C 895.257 1631.413 833.131 1546.675 812.706 1453.767 C 792.275 1360.854 811.442 1261.433 857.258 1178.059 C 883.137 1130.968 918.744 1087.25 966.741 1063.099 C 1006.427 1043.121 1066.073 1035.585 1106.176 1059.743 C 1140.554 1080.444 1162.225 1132.555 1169.566 1169.531 Z " fill="rgb(79,58,62)"/><path d=" M 1857.49 2124.963 C 1857.49 2124.963 1841.973 2158.354 1802.493 2138.429 L 1776.655 2187.237 L 1841.068 2221.333 L 1887.848 2132.962 L 1869.357 2045.909 C 1869.357 2045.909 1851.871 2052.803 1852.347 2071.5 C 1852.823 2090.209 1857.49 2124.963 1857.49 2124.963 Z " fill="rgb(145,86,85)"/><path d=" M 1916.366 2239.095 C 1916.666 2218.776 1905.733 2199.768 1887.513 2190.117 L 1820.049 2154.404 L 1806.113 2180.73 L 1916.366 2239.095 Z " fill="rgb(152,85,76)"/><path d=" M 1935.274 2269.329 C 1935.58 2249.005 1924.648 2229.996 1906.427 2220.351 L 1828.983 2179.36 L 1815.047 2205.681 L 1935.274 2269.329 Z " fill="rgb(166,106,96)"/><path d=" M 1844.571 1962.958 L 1867.064 2030.415 L 1938.172 2029.863 L 1880.971 2072.105 L 1903.465 2139.557 L 1845.617 2098.208 L 1788.416 2140.451 L 1809.863 2072.658 L 1752.022 2031.303 L 1823.123 2030.756 L 1844.571 1962.958 Z " fill="rgb(240,165,78)"/><path d=" M 1801.111 2137.794 L 1804.397 2114.16 L 1831.699 2092.624 C 1839.974 2086.094 1844.823 2076.149 1844.865 2065.605 L 1844.87 2062.936 L 1761.584 2092.648 L 1725.284 2135.613 L 1701.862 2179.86 L 1827.755 2246.495 L 1836.301 2230.343 C 1853.187 2198.451 1841.021 2158.912 1809.123 2142.032 L 1801.111 2137.794 Z " fill="rgb(176,122,111)"/><path d=" M 1916.166 2293.298 C 1916.472 2272.979 1905.539 2253.965 1887.325 2244.326 L 1809.881 2203.329 L 1795.945 2229.655 L 1916.166 2293.298 Z " fill="rgb(176,122,111)"/><path d=" M 1800.018 2135.419 C 1792.113 2147.58 1782.015 2158.301 1770.348 2166.912" fill="none" vector-effect="non-scaling-stroke" stroke-width="1.865" stroke="rgb(158,89,84)" stroke-linejoin="bevel" stroke-linecap="round" stroke-miterlimit="10"/><path d=" M 1349.78 2134.973 L 1733.119 2141.191 L 1731.62 2193.79 L 1275.463 2263.452 L 1349.78 2134.973 Z " fill="rgb(176,122,111)"/><path d=" M 994.883 1642.621 L 1107.334 1642.621 C 1160.385 1642.621 1207.571 1676.347 1224.739 1726.554 L 1388.132 2204.411 C 1388.132 2204.411 1376.764 2292.822 1307.637 2300.933 C 1281.67 2303.984 1256.69 2289.754 1244.5 2266.632 L 994.883 1793.03 L 994.883 1642.621 Z " fill="rgb(76,70,97)"/><path d=" M 1279.813 2127.15 L 1649.686 2139.61 L 1527.908 2293.392 L 1294.207 2307.364 C 1263.308 2309.215 1239.616 2280.332 1247.474 2250.386 L 1262.768 2192.103 L 1279.813 2127.15 Z " fill="rgb(76,70,97)"/><path d=" M 1349.78 2134.973 C 1319.54 2153.252 1285.496 2181.353 1269.797 2213.004" fill="none" vector-effect="non-scaling-stroke" stroke-width="1.865" stroke="rgb(85,80,107)" stroke-linejoin="miter" stroke-linecap="round" stroke-miterlimit="10"/><path d=" M 1349.78 2134.973 C 1310.588 2136.524 1262.25 2141.761 1233.626 2168.569" fill="none" vector-effect="non-scaling-stroke" stroke-width="1.865" stroke="rgb(85,80,107)" stroke-linejoin="miter" stroke-linecap="round" stroke-miterlimit="10"/><path d=" M 1078.698 2679.988 C 1018.493 2686.153 955.832 2684.578 895.604 2678.806 C 799.481 2669.584 714.602 2624.127 631.669 2578.046 C 619.69 2571.393 607.623 2564.563 595.557 2557.609 C 639.275 2488.412 694.924 2417.028 758.908 2371.753 L 1078.416 2371.753 L 1181.956 2654.867 C 1149.911 2669.878 1112.588 2676.514 1078.698 2679.988 Z " fill="rgb(254,254,254)"/><path d=" M 708.425 2356.853 L 615.646 1717.179 L 662.233 1641.763 L 1087.232 1641.763 L 1204.05 1956.445 C 1204.05 1956.445 1106.387 2259.196 1106.387 2371.5 L 1213.919 2683.702 L 1086.962 2732.528 L 989.193 2432.539 L 881.774 2730.406 L 547.283 2591.235 L 708.425 2356.853 Z " fill="rgb(85,80,107)"/><path d=" M 615.646 1717.179 L 662.82 1640.805 L 723.66 1640.805 L 741.581 1793.03 L 682.916 2180.965 L 615.646 1717.179 Z " fill="rgb(76,70,97)"/><path d=" M 1067.448 1643.873 L 1067.448 2003.86 L 765.92 1643.873 L 1067.448 1643.873 Z " fill="rgb(254,254,254)"/><path d=" M 882.626 1730.457 C 861.443 1725.414 840.842 1718.302 820.934 1709.562 L 763.345 1640.805 L 1067.448 1640.805 L 1067.448 1693.633 C 1024.841 1743.91 944.265 1745.133 882.626 1730.457 Z " fill="rgb(176,122,111)"/><path d=" M 763.345 1640.805 L 763.345 1865.671 L 892.295 1865.671 L 820.67 2016.868 L 1076.741 2015.016 L 763.345 1640.805 Z " fill="rgb(103,101,130)"/><path d=" M 1067.448 1640.805 L 1086.88 1640.805 L 1237.605 1865.671 L 1118.566 1865.671 L 1247.045 2016.868 L 1076.741 2016.868 L 1069.206 2016.868 L 1067.448 1640.805 Z " fill="rgb(103,101,130)"/><path d=" M 1068.847 2016.509 C 1039.806 2153.663 1018.523 2292.522 989.481 2429.677" fill="none" vector-effect="non-scaling-stroke" stroke-width="1.865" stroke="rgb(76,70,97)" stroke-linejoin="miter" stroke-linecap="butt" stroke-miterlimit="10"/><path d=" M 741.581 1640.729 L 629.13 1640.729 C 576.074 1640.729 528.89 1674.466 511.725 1724.667 L 348.328 2202.518 C 348.328 2202.518 350.19 2237.908 366.615 2268.13 C 392.706 2316.139 457.325 2328.394 483.034 2280.185 L 741.581 1791.143 L 741.581 1640.729 Z " fill="rgb(85,80,107)"/><path d=" M 897.967 2154.239 L 928.83 2180.959 L 1002.683 2197.875 L 1002.312 2195.23 C 1000.855 2184.791 994.718 2175.587 985.637 2170.233 L 967.123 2155.386 L 972.448 2134.914 L 1003.552 2109.099 L 965.865 2076.508 L 885.389 2129.477 L 897.967 2154.239 Z " fill="rgb(145,86,85)"/><path d=" M 969.891 2101.723 L 1021.332 2150.813 L 1083.917 2117.063 L 1053.118 2181.159 L 1104.559 2230.249 L 1034.093 2220.768 L 1003.294 2284.858 L 990.533 2214.908 L 920.067 2205.422 L 982.652 2171.673 L 969.891 2101.723 Z " fill="rgb(240,165,78)"/><path d=" M 1016.283 2127.761 C 1016.283 2127.761 1000.425 2103.01 971.319 2123.006 L 945.64 2087.158 L 998.163 2050.458 L 1044.655 2115.359 L 1034.251 2174.964 C 1034.251 2174.964 1019.681 2171.385 1018.053 2156.538 C 1016.424 2141.691 1016.283 2127.761 1016.283 2127.761 Z " fill="rgb(145,86,85)"/><path d=" M 901.276 2159.829 L 870.618 2118.721 L 984.615 2030.604 L 995.253 2045.462 C 1016.266 2074.797 1015.237 2101.206 997.146 2115.459 L 972.448 2134.914 L 901.276 2159.829 Z " fill="rgb(176,122,111)"/><path d=" M 1068.782 2068.591 C 1072.097 2067.78 1074.848 2071.13 1073.502 2074.268 C 1068.095 2086.882 1057.098 2096.539 1043.332 2099.924 L 973.776 2117.022 L 967.963 2093.377 L 1068.782 2068.591 Z " fill="rgb(176,122,111)"/><path d=" M 1059.319 1970.24 C 1062.599 1967.601 1067.419 1969.905 1067.548 1974.114 C 1068.089 1991.018 1060.848 2007.546 1047.235 2018.507 L 978.449 2073.886 L 959.623 2050.499 L 1059.319 1970.24 Z " fill="rgb(176,122,111)"/><path d=" M 1073.931 2018.713 C 1077.705 2016.838 1081.913 2020.124 1081.143 2024.262 C 1078.045 2040.889 1067.425 2055.484 1051.784 2063.271 L 982.916 2097.556 L 969.539 2070.683 L 1073.931 2018.713 Z " fill="rgb(176,122,111)"/><path d=" M 468.865 2105.814 L 846.126 2103.615 L 728.709 2267.337 L 436.343 2311.331 C 398.534 2317.02 366.477 2283.871 373.175 2246.23 C 383.917 2185.891 409.245 2110.727 468.865 2105.814 Z " fill="rgb(85,80,107)"/><line x1="571.304" y1="2105.543" x2="447.788" y2="2108.059" vector-effect="non-scaling-stroke" stroke-width="1.865" stroke="rgb(76,70,97)" stroke-linejoin="miter" stroke-linecap="round" stroke-miterlimit="10"/><line x1="571.324" y1="2105.273" x2="442.43" y2="2139.61" vector-effect="non-scaling-stroke" stroke-width="1.865" stroke="rgb(76,70,97)" stroke-linejoin="miter" stroke-linecap="round" stroke-miterlimit="10"/><path d=" M 837.527 1339.9 L 850.834 1671.733 C 851.369 1685.081 862.348 1695.632 875.708 1695.632 L 1039.059 1695.632 C 1059.402 1695.632 1069.235 1671.016 1054.688 1656.798 C 1023.366 1626.176 991.615 1573.612 991.615 1486.376 L 991.615 1346.553 L 837.527 1339.9 Z " fill="rgb(176,122,111)"/><path d=" M 912.908 1343.15 L 991.615 1346.553 L 991.615 1486.376 C 991.615 1524.734 997.775 1556.355 1007.314 1582.381 C 916.863 1551.624 886.352 1430.433 912.908 1343.15 Z " fill="rgb(145,86,85)"/><path d=" M 877.842 1464.2 C 866.803 1456.747 856 1447.695 845.662 1437.651 C 793.216 1386.686 761.923 1317.729 754.57 1244.964 C 747.74 1177.313 761.318 1110.002 817.473 1065.344 C 877.595 1017.529 971.331 1013.35 1039.047 1046.524 C 1103.813 1078.251 1139.426 1138.597 1152.674 1207.694 C 1159.245 1241.973 1161.108 1276.997 1161.578 1311.84 C 1162.448 1377.088 1152.321 1502.422 1077.323 1518.045 C 996.341 1534.726 937.247 1504.309 877.842 1464.2 Z " fill="rgb(176,122,111)"/><path d=" M 1129.057 1178.77 C 1150.587 1209.54 1156.741 1248.156 1162.325 1285.297 C 1175.749 1237.676 1175.767 1186.358 1162.384 1138.72 C 1156.118 1116.438 1146.726 1094.55 1131.279 1077.317 C 1115.827 1060.078 1093.656 1047.917 1070.516 1048.305 C 1034.334 1048.916 990.816 1098.764 1028.174 1128.881 C 1039.588 1138.085 1059.002 1136.193 1072.532 1139.819 C 1095.361 1145.938 1115.421 1159.274 1129.057 1178.77 Z " fill="rgb(79,58,62)"/><path d=" M 1042.392 1206.19 C 1017.935 1228.372 987.742 1243.054 955.479 1249.872 C 922.418 1256.861 882.344 1254.927 857.493 1281.388 C 781.966 1361.806 845.62 1458.41 884.107 1539.528 C 903.48 1580.359 923.546 1627.786 913.019 1673.808 C 899.559 1732.702 842.141 1760.685 785.692 1760.92 C 693.837 1761.302 622.641 1693.063 604.309 1605.316 C 594.81 1559.876 601.334 1514.548 618.961 1472.041 C 635.19 1432.913 661.327 1398.365 674.335 1357.815 C 695.141 1292.943 665.665 1224.575 686.719 1158.64 C 728.538 1027.604 929.988 898.96 1052.813 1005.762 C 1123.668 1067.378 1100.616 1153.367 1042.392 1206.19 Z " fill="rgb(79,58,62)"/><path d=" M 862.313 1235.066 C 845.791 1250.76 835.005 1272.824 832.654 1295.471 C 829.974 1321.385 836.98 1347.253 849.852 1370.081 L 866.657 1367.131 C 868.432 1337.655 875.867 1308.26 885.153 1280.618 C 889.409 1267.934 894.511 1255.321 900.582 1243.195 C 895.574 1219.931 877.254 1220.872 862.313 1235.066 Z " fill="rgb(79,58,62)"/><path d=" M 1084.564 1300.978 C 1089.43 1322.772 1098.3 1343.656 1110.596 1362.288 C 1114.898 1368.812 1119.859 1376.176 1118.031 1383.77 C 1116.315 1390.912 1109.256 1395.249 1102.814 1398.794" fill="none" vector-effect="non-scaling-stroke" stroke-width="1.216" stroke="rgb(145,86,85)" stroke-linejoin="miter" stroke-linecap="round" stroke-miterlimit="10"/><path d=" M 1059.296 1442.558 C 1061.065 1452.68 1070.71 1459.445 1080.82 1457.67 C 1090.935 1455.889 1097.7 1446.25 1095.925 1436.14 C 1094.15 1426.019 1084.511 1419.26 1074.395 1421.035 C 1064.28 1422.81 1057.515 1432.449 1059.296 1442.558 Z " fill="rgb(241,116,121)"/><path d=" M 1105.905 1428.84 C 1086.568 1440.348 1061.688 1441.994 1041.005 1433.125" fill="none" vector-effect="non-scaling-stroke" stroke-width="1.216" stroke="rgb(145,86,85)" stroke-linejoin="miter" stroke-linecap="round" stroke-miterlimit="10"/><path d=" M 1149.905 1241.244 C 1133.225 1231.922 1115.821 1234.196 1102.79 1247.415" fill="none" vector-effect="non-scaling-stroke" stroke-width="1.823" stroke="rgb(79,58,62)" stroke-linejoin="miter" stroke-linecap="round" stroke-miterlimit="10"/><path d=" M 1019.786 1258.171 C 996.464 1250.73 971.59 1254.815 951.959 1269.321" fill="none" vector-effect="non-scaling-stroke" stroke-width="1.823" stroke="rgb(79,58,62)" stroke-linejoin="miter" stroke-linecap="round" stroke-miterlimit="10"/><path d=" M 1015.613 1309.812 C 1017.194 1318.846 1011.164 1327.439 1002.136 1329.026 C 993.108 1330.613 984.503 1324.577 982.922 1315.549 C 981.335 1306.521 987.371 1297.922 996.399 1296.341 C 1005.427 1294.754 1014.026 1300.784 1015.613 1309.812 Z " fill="rgb(79,58,62)"/><path d=" M 1141.906 1295.271 C 1143.493 1304.299 1137.457 1312.904 1128.429 1314.485 C 1119.4 1316.072 1110.802 1310.041 1109.215 1301.007 C 1107.633 1291.979 1113.67 1283.375 1122.692 1281.794 C 1131.72 1280.207 1140.325 1286.249 1141.906 1295.271 Z " fill="rgb(79,58,62)"/><path d=" M 846.032 1330.313 C 834.7 1320.674 818.425 1315.449 804.624 1321.003 C 793.521 1325.47 785.757 1336.314 783.077 1347.982 C 780.391 1359.637 782.271 1371.974 786.28 1383.247 C 799.07 1419.177 834.876 1445.679 872.969 1447.407 C 880.851 1447.766 876.525 1384.67 875.355 1378.651 C 871.858 1360.642 859.944 1342.139 846.032 1330.313 Z " fill="rgb(176,122,111)"/><path d=" M 861.884 1430.539 C 863.447 1439.455 857.487 1447.954 848.565 1449.523 C 839.643 1451.093 831.138 1445.127 829.575 1436.205 C 828.011 1427.282 833.971 1418.783 842.893 1417.214 C 851.816 1415.651 860.32 1421.616 861.884 1430.539 Z " fill="rgb(254,254,254)"/><path d=" M 807.481 1346.512 C 813.981 1340.999 823.762 1340.335 831.596 1343.691 C 839.431 1347.047 845.397 1353.906 849.053 1361.612 C 852.709 1369.311 854.261 1377.834 855.166 1386.31 C 850.981 1382.354 843.934 1381.895 839.273 1385.275 C 834.618 1388.666 832.866 1395.508 835.335 1400.71 C 837.797 1405.911 844.204 1408.897 849.776 1407.428" fill="none" vector-effect="non-scaling-stroke" stroke-width="1.216" stroke="rgb(145,86,85)" stroke-linejoin="miter" stroke-linecap="round" stroke-miterlimit="10"/></g></g></g></g></svg>