<?xml version="1.0" encoding="UTF-8" standalone="no"?><!-- Generator: Gravit.io --><svg xmlns="http://www.w3.org/2000/svg" xmlns:xlink="http://www.w3.org/1999/xlink" style="isolation:isolate" viewBox="0 0 3661 2423" width="3661pt" height="2423pt"><defs><clipPath id="_clipPath_YavOxIGbzVIoFAnPFWZGEoWJvduLOKNl"><rect width="3661" height="2423"/></clipPath></defs><g clip-path="url(#_clipPath_YavOxIGbzVIoFAnPFWZGEoWJvduLOKNl)"><g><clipPath id="_clipPath_4gZbYKgc8rKhe2jllWyrOxtlS5N4MUCI"><path d=" M 0 0 L 0 2437.333 L 3656 2437.333 L 3656 0 L 0 0 Z " fill="rgb(255,255,255)"/></clipPath><g clip-path="url(#_clipPath_4gZbYKgc8rKhe2jllWyrOxtlS5N4MUCI)"><path d=" M 3656 2437.333 L -0.001 2437.333 L -0.001 0.001 L 3656 0.001 L 3656 2437.333 Z " fill="none"/><path d=" M 3109.228 1520.599 C 3070.114 1462.527 3012.32 1417.412 2948.345 1378.19 C 2847.8 1316.55 2839.747 1221.801 2858.212 1113.798 C 2872.904 1027.828 2889.015 940.742 2871.608 853.832 C 2853.854 765.23 2816.695 673.045 2745.427 614.018 C 2632.7 520.653 2522.211 502.018 2378.925 522.715 C 2173.77 552.348 1984.228 737.81 1826.703 876.324 C 1669.183 1014.837 1516.489 1118.848 1309.838 1133.784 C 1235.094 1139.185 1168.565 1134.939 1105.106 1130.698 C 988.217 1122.879 881.73 1115.065 753.477 1167.517 C 663.783 1204.194 586.578 1265.966 539.226 1351.443 C 405.12 1593.514 558.768 1901.973 773.536 2039.546 C 773.536 2039.546 2971.87 2040.384 2974.21 2039.546 C 3186.555 1963.228 3210.48 1670.938 3109.228 1520.599 Z " fill="rgb(238,95,161)"/><path d=" M 2274.134 1239.165 C 2271.834 1183.964 2273.9 1128.568 2279.76 1073.567 C 2285.609 1018.557 2295.612 964.004 2308.964 910.31 C 2322.701 856.713 2339.825 803.959 2360.791 752.766 L 2377.195 714.67 L 2394.885 677.169 L 2414.028 640.395 L 2434.491 604.371 L 2415.168 640.999 L 2397.039 678.207 L 2380.012 715.913 L 2364.272 754.165 C 2344.091 805.48 2327 858.01 2313.687 911.504 C 2299.985 964.901 2290.099 1019.249 2283.464 1073.987 C 2276.85 1128.739 2273.847 1183.935 2274.134 1239.165 Z " fill="rgb(116,206,229)"/><path d=" M 2371.516 731.424 C 2426.936 661.278 2463.281 597.293 2489.336 511.777 C 2424.489 583.746 2389.874 636.305 2371.516 731.424 Z " fill="rgb(116,206,229)"/><path d=" M 2356.633 770.358 C 2399.647 714.626 2447.916 662.94 2500.577 616.216 C 2474.815 682.999 2418.429 734.232 2356.633 770.358 Z " fill="rgb(116,206,229)"/><path d=" M 2339.903 811.861 L 2346.245 795.589 C 2357.949 737.552 2378.579 670.827 2380.441 572.008 C 2339.733 640.414 2327.317 733.262 2339.903 811.861 Z " fill="rgb(116,206,229)"/><path d=" M 2341.619 813.733 C 2392.964 763.461 2447.4 712.33 2514.212 685.866 C 2472.538 751.474 2389.752 801.117 2341.619 813.733 Z " fill="rgb(116,206,229)"/><path d=" M 2325.133 860.72 C 2334.809 798.149 2323.563 684.203 2298.084 626.244 C 2287.701 691.964 2302.1 798.295 2325.133 860.72 Z " fill="rgb(116,206,229)"/><path d=" M 2323.983 866.272 C 2373.105 815.381 2438.84 775.867 2505.081 751.064 C 2462.613 811.052 2394.768 846.505 2323.983 866.272 Z " fill="rgb(116,206,229)"/><path d=" M 2307.365 927.049 C 2314.692 887.769 2305.673 838.194 2297.708 799.323 C 2289.748 760.453 2273.179 719.837 2247.894 679.173 C 2241.269 758.815 2282.943 857.005 2307.365 927.049 Z " fill="rgb(116,206,229)"/><path d=" M 2306.561 925.792 C 2352.646 880.511 2449.866 827.338 2513.822 803.652 C 2464.334 863.245 2370.794 913.474 2306.561 925.792 Z " fill="rgb(116,206,229)"/><path d=" M 2287.715 1027.78 C 2333.805 982.504 2402.782 953.88 2466.742 930.194 C 2413.608 978.565 2351.954 1015.466 2287.715 1027.78 Z " fill="rgb(116,206,229)"/><path d=" M 2295.534 982.226 C 2284.157 918.49 2244.701 793.22 2202.204 734.851 C 2199.04 798.899 2255.884 931.817 2295.534 982.226 Z " fill="rgb(116,206,229)"/><path d=" M 2299.132 977.868 C 2343.93 932.641 2437.47 876.065 2499.324 854.909 C 2462.028 895.662 2357.808 969.396 2299.132 977.868 Z " fill="rgb(116,206,229)"/><path d=" M 2288.802 1022.442 C 2266.462 957.677 2229.214 873.345 2176.568 818.637 C 2190.695 873.272 2235.454 971.979 2288.802 1022.442 Z " fill="rgb(116,206,229)"/><path d=" M 2285.483 1057.652 C 2270.298 1013.229 2200.503 940.46 2166.087 908.521 C 2176.661 954.777 2247.719 1028.93 2285.483 1057.652 Z " fill="rgb(116,206,229)"/><path d=" M 2280.983 1079.441 C 2330.578 1071.086 2396.479 1035.457 2431.649 1001.125 C 2399.828 1010.947 2356.814 1015.827 2317.709 1043.554 C 2305.001 1052.567 2288.339 1065.709 2280.983 1079.441 Z " fill="rgb(116,206,229)"/><path d=" M 2279.867 1097.112 C 2266.389 1062.19 2234.63 1018.8 2204.09 997.152 C 2214.941 1036.252 2244.901 1076.526 2279.867 1097.112 Z " fill="rgb(116,206,229)"/><path d=" M 2276.503 1130.435 C 2305.035 1091.321 2347.951 1062.955 2395.119 1052.031 C 2365.681 1089.917 2323.568 1118.648 2276.962 1130.06 C 2277.946 1130.109 2275.524 1130.386 2276.503 1130.435 Z " fill="rgb(116,206,229)"/><path d=" M 2276.265 1152.639 C 2275.295 1133.57 2266.486 1115.577 2254.699 1100.558 C 2242.907 1085.544 2220.518 1063.574 2205.923 1051.271 C 2214.727 1088.64 2243.058 1133.36 2276.265 1152.639 Z " fill="rgb(116,206,229)"/><path d=" M 2532.901 1818.845 L 2536.777 1770.425 L 2542.777 1722.19 L 2551.108 1674.287 L 2561.511 1626.779 C 2576.778 1563.725 2597.846 1502.104 2623.682 1442.589 C 2649.879 1383.231 2680.896 1325.963 2716.856 1271.976 L 2744.715 1232.106 L 2774.265 1193.494 L 2805.649 1156.373 L 2838.606 1120.691 L 2806.55 1157.153 L 2776.142 1194.971 L 2747.216 1233.91 L 2719.991 1274.038 C 2684.801 1328.264 2653.895 1385.268 2628.142 1444.544 C 2602.039 1503.664 2581.126 1565.046 2565.132 1627.676 L 2554.111 1674.901 L 2545.117 1722.561 L 2537.951 1770.557 L 2532.901 1818.845 Z " fill="rgb(116,206,229)"/><path d=" M 2942.705 1054.639 C 2853.425 1089.951 2801.944 1142.134 2760.314 1213.548 C 2824.626 1169.832 2897.268 1113.856 2942.705 1054.639 Z " fill="rgb(116,206,229)"/><path d=" M 2739.148 1244.912 C 2798.064 1202.107 2865.548 1171.139 2936.416 1154.375 C 2911.439 1181.024 2878.773 1200.406 2844.89 1214.055 C 2811.006 1227.704 2775.362 1236.367 2739.86 1244.98 C 2740.694 1244.054 2738.139 1245.648 2739.148 1244.912 Z " fill="rgb(116,206,229)"/><path d=" M 2735.57 1249.25 C 2726.435 1177.573 2745.792 1102.664 2788.504 1044.388 C 2779.603 1116.825 2756.673 1179.387 2735.57 1249.25 Z " fill="rgb(116,206,229)"/><path d=" M 2702.476 1298.962 C 2757.579 1258.01 2828.735 1225.233 2895.503 1209.263 C 2838.148 1276.68 2738.953 1294.609 2702.476 1298.962 Z " fill="rgb(116,206,229)"/><path d=" M 2702.335 1301.151 C 2686.127 1248.314 2679.263 1142.217 2719.659 1076.931 C 2717.905 1152.298 2714.478 1226.749 2702.335 1301.151 Z " fill="rgb(116,206,229)"/><path d=" M 2676.538 1340.641 C 2740.279 1304.495 2812.283 1283.003 2885.408 1278.298 C 2850.291 1293.02 2815.866 1313.62 2780.31 1327.245 C 2744.754 1340.87 2714.507 1343.531 2676.538 1340.641 Z " fill="rgb(116,206,229)"/><path d=" M 2678.405 1342.82 C 2643.824 1277.45 2638.545 1197.262 2664.254 1127.93 C 2676.114 1196.492 2677.796 1273.239 2678.405 1342.82 Z " fill="rgb(116,206,229)"/><path d=" M 2652.501 1384.844 C 2725.08 1392.692 2815.997 1360.12 2882.069 1329.068 C 2803.182 1325.68 2725.217 1354.07 2652.501 1384.844 Z " fill="rgb(116,206,229)"/><path d=" M 2653.968 1385.356 C 2649.586 1376.601 2645.199 1367.841 2640.812 1359.081 C 2625.359 1328.225 2609.75 1296.92 2602.799 1263.114 C 2596.876 1234.334 2597.471 1204.238 2604.52 1175.716 C 2626.29 1243.201 2644.643 1315.068 2653.968 1385.356 Z " fill="rgb(116,206,229)"/><path d=" M 2632.9 1428.736 C 2702.847 1395.939 2778.243 1386.765 2855.044 1378.448 C 2786.301 1424.402 2691.342 1433.337 2632.9 1428.736 Z " fill="rgb(116,206,229)"/><path d=" M 2611.881 1476.873 C 2675.914 1454.108 2760.314 1429.36 2824.86 1429.36 C 2801.325 1457.194 2748.556 1469.415 2712.742 1476.161 C 2676.923 1482.913 2648.275 1478.769 2611.881 1476.873 Z " fill="rgb(116,206,229)"/><path d=" M 2583.651 1555.774 C 2565.401 1523.012 2547.067 1490.049 2534.602 1454.679 C 2522.138 1419.303 2515.728 1381.061 2522.05 1344.092 C 2552.965 1414.199 2567.453 1480.885 2583.651 1555.774 Z " fill="rgb(116,206,229)"/><path d=" M 2587.795 1542.842 C 2637.009 1501.67 2707.297 1491.546 2780.973 1484.078 C 2725.684 1519.161 2653.203 1540.653 2587.795 1542.842 Z " fill="rgb(116,206,229)"/><path d=" M 2570.948 1606.939 C 2527.037 1554.619 2502.8 1486.169 2503.999 1417.87 C 2540.013 1476.205 2565.513 1538.601 2570.948 1606.939 Z " fill="rgb(116,206,229)"/><path d=" M 2573.293 1589.858 C 2610.842 1560.239 2678.581 1553.629 2725.168 1542.842 C 2689.583 1577.842 2621.83 1592.597 2573.293 1589.858 Z " fill="rgb(116,206,229)"/><path d=" M 2629.351 1432.401 C 2608.926 1414.906 2597.525 1389.236 2588.736 1363.82 C 2573.878 1320.83 2564.621 1275.9 2561.286 1230.536 C 2603.194 1328.196 2625.924 1374.544 2629.351 1432.401 Z " fill="rgb(116,206,229)"/><path d=" M 2609.862 1480.383 C 2574.467 1426.254 2545.566 1356.449 2541.212 1291.923 C 2567.711 1334.216 2587.634 1378.546 2602.409 1426.22 C 2607.396 1442.307 2613.177 1463.867 2609.862 1480.383 Z " fill="rgb(116,206,229)"/><path d=" M 996.908 1858.437 C 984.897 1809.447 970.419 1761.105 953.192 1713.782 C 935.955 1666.463 916.301 1620.027 893.741 1575.015 C 871.542 1529.826 846.476 1486.071 819.217 1443.725 L 798.339 1412.245 L 776.52 1381.393 L 753.935 1351.077 L 730.508 1321.386 L 754.949 1350.273 L 778.44 1379.965 L 800.864 1410.48 L 822.361 1441.668 C 850.351 1483.722 875.48 1527.672 898.104 1572.85 C 920.376 1618.204 940.172 1664.796 956.707 1712.534 C 973.252 1760.257 986.857 1808.999 996.908 1858.437 Z " fill="rgb(116,206,229)"/><path d=" M 794.878 1404.65 C 733.964 1360.768 702.576 1308.814 673.967 1239.847 C 730.508 1290.29 775.316 1328.79 794.878 1404.65 Z " fill="rgb(116,206,229)"/><path d=" M 822.639 1443.915 C 774.521 1401.959 718.784 1370.917 658.329 1358.657 C 715.937 1410.421 767.736 1443.789 822.639 1443.915 Z " fill="rgb(116,206,229)"/><path d=" M 828.089 1453.991 C 804.539 1400.667 783.208 1323.365 785.362 1265.112 C 821.147 1311.544 831.535 1395.471 828.089 1453.991 Z " fill="rgb(116,206,229)"/><path d=" M 848.533 1487.071 C 792.284 1458.876 729.796 1428.536 666.884 1427.936 C 717.156 1471.759 782.886 1498.863 848.533 1487.071 Z " fill="rgb(116,206,229)"/><path d=" M 850.922 1495.27 C 838.384 1429.569 840.358 1361.134 856.669 1296.262 C 868.817 1361.319 863.83 1430.364 850.922 1495.27 Z " fill="rgb(116,206,229)"/><path d=" M 883.051 1544.538 C 823.204 1525.191 740.384 1486.101 678.159 1495.27 C 732.779 1529.729 815.712 1551.382 883.051 1544.538 Z " fill="rgb(116,206,229)"/><path d=" M 883.051 1544.538 C 872.18 1499.321 871.893 1404.869 895.579 1347.728 C 910.432 1403.426 899.995 1489.435 883.051 1544.538 Z " fill="rgb(116,206,229)"/><path d=" M 900.697 1589.756 C 844.765 1567.771 748.213 1547.005 689.063 1557.641 C 744.401 1588.079 840.904 1610.098 900.697 1589.756 Z " fill="rgb(116,206,229)"/><path d=" M 910.281 1604.233 C 905.05 1531.596 912.694 1458.052 932.743 1388.037 C 944.759 1461.406 933.747 1533.692 910.281 1604.233 Z " fill="rgb(116,206,229)"/><path d=" M 925.08 1638.761 C 858.634 1621.412 789.023 1606.437 720.749 1613.836 C 781.945 1648.203 875.939 1659.936 925.08 1638.761 Z " fill="rgb(116,206,229)"/><path d=" M 938.3 1665.43 C 924.583 1599.758 947.786 1527.691 966.461 1453.991 C 981.846 1532.854 960.724 1604.638 938.3 1665.43 Z " fill="rgb(116,206,229)"/><path d=" M 953.397 1702.979 C 901.306 1668.467 819.919 1661.043 757.582 1665.43 C 807.25 1695.185 895.53 1701.083 953.397 1702.979 Z " fill="rgb(116,206,229)"/><path d=" M 954.499 1711.905 C 949.8 1652.717 967.953 1596.96 987.949 1541.062 C 996.845 1608.733 981.539 1655.305 954.499 1711.905 Z " fill="rgb(116,206,229)"/><path d=" M 968.786 1750.751 C 922.638 1723.731 846.544 1711.822 793.805 1702.979 C 836.756 1724.179 853.642 1735.42 880.516 1744.039 C 908.687 1753.071 941.483 1757.868 968.786 1750.751 Z " fill="rgb(116,206,229)"/><path d=" M 970.312 1759.184 C 962.83 1702.979 999.243 1638.57 1011.05 1620.013 C 1013.029 1663.412 992.818 1722.025 970.312 1759.184 Z " fill="rgb(116,206,229)"/><path d=" M 976.713 1787.389 C 938.188 1764.902 899.839 1751.092 859.594 1754.188 C 908.687 1794.516 960.368 1790.684 976.713 1787.389 Z " fill="rgb(116,206,229)"/><path d=" M 2951.508 1919.244 C 2938.098 1905.683 2914.856 1906.867 2898.526 1916.724 C 2882.2 1926.585 2871.169 1943.037 2860.669 1958.958 C 2873.616 1936.208 2886.568 1913.458 2899.515 1890.708 C 2904.673 1881.655 2910.001 1871.823 2908.938 1861.46 C 2907.388 1846.387 2891.579 1835.453 2876.434 1835.98 C 2861.288 1836.497 2847.649 1846.212 2838.66 1858.413 C 2837.007 1860.655 2835.525 1863 2834.117 1865.384 C 2846.601 1836.033 2859.085 1806.683 2871.569 1777.333 C 2879.407 1758.902 2886.017 1734.431 2870.779 1721.44 C 2860.922 1713.046 2845.582 1714.191 2834.365 1720.655 C 2823.149 1727.114 2815.115 1737.799 2807.399 1748.192 C 2788.573 1773.545 2769.747 1798.903 2750.921 1824.261 C 2788.568 1733.539 2818.981 1639.823 2841.784 1544.28 C 2846.05 1526.419 2848.984 1504.732 2835.516 1492.243 C 2824.26 1481.806 2805.658 1483.288 2792.745 1491.594 C 2779.832 1499.906 2771.345 1513.438 2763.605 1526.697 C 2709.388 1619.511 2670.411 1721.172 2648.509 1826.396 C 2658.58 1768.817 2661.144 1708.878 2655.577 1651.069 C 2654.597 1640.871 2653.281 1630.396 2648.294 1621.441 C 2643.317 1612.481 2633.792 1605.32 2623.575 1606.105 C 2609.585 1607.178 2600.903 1621.451 2595.136 1634.242 C 2560.263 1711.637 2545.015 1797.787 2551.201 1882.45 C 2537.839 1867.134 2519.584 1850.258 2500.1 1856.059 C 2478.017 1862.639 2474.083 1892.94 2480.747 1915.003 C 2487.406 1937.061 2500.392 1958.729 2496.639 1981.464 L 2924.191 2006.954 C 2936.816 1995.274 2949.763 1983.151 2956.827 1967.469 C 2963.885 1951.792 2963.602 1931.475 2951.508 1919.244 Z " fill="rgb(116,206,229)"/><path d=" M 763.412 2045.868 C 762.754 2045.508 762.12 2045.103 761.462 2044.742 L 759.649 2045.829 C 760.906 2045.844 762.159 2045.854 763.412 2045.868 Z " fill="rgb(116,206,229)"/><path d=" M 958.574 1941.862 C 964.984 1896.158 960.587 1848.976 945.846 1805.24 C 943.253 1797.558 940.25 1789.807 934.956 1783.665 C 929.662 1777.523 921.634 1773.194 913.6 1774.286 C 903.178 1775.7 895.701 1785.854 893.902 1796.212 C 892.098 1806.576 894.711 1817.134 897.299 1827.322 C 885.532 1798.284 866.379 1772.278 842.143 1752.418 C 834.967 1746.539 827.109 1741.075 818.091 1738.915 C 809.068 1736.746 798.631 1738.472 792.314 1745.262 C 783.105 1755.168 785.772 1770.888 789.681 1783.836 C 798.319 1812.411 810.194 1840.006 825.008 1865.925 C 808.59 1849.478 787.956 1837.272 765.63 1830.808 C 760.141 1829.219 753.76 1828.107 749.1 1831.407 C 744.834 1834.43 743.489 1840.362 744.483 1845.49 C 745.478 1850.618 748.369 1855.147 751.201 1859.534 C 761.574 1875.596 771.947 1891.658 782.316 1907.72 C 765.981 1896.786 746.219 1885.341 732.955 1896.392 C 721.28 1906.126 727.193 1924.245 732.931 1935.433 C 734.461 1938.416 743.387 1956.73 747.696 1956.438 C 739.092 1957.023 730.883 1951.329 723.03 1948.443 C 714.358 1945.255 702.61 1945.401 698.145 1953.489 C 693.675 1961.58 699.632 1971.34 705.627 1978.379 C 720.018 1995.255 761.208 2015.606 761.208 2015.606 L 833.012 1989.829 L 835.201 1993.432 L 958.574 1941.862 Z " fill="rgb(116,206,229)"/><path d=" M 531.397 2090.013 C 936.248 1915.817 1379.038 1809.944 1826.845 1801.17 C 2274.656 1792.391 2761.655 1893.672 3154.06 2090.013 L 531.397 2090.013 Z " fill="rgb(204,234,239)"/><path d=" M 1313.206 688.678 C 1300.834 712.745 1275.14 726.706 1250.016 736.738 C 1224.882 746.77 1198.096 754.745 1177.524 772.328 C 1156.958 789.906 1144.552 820.918 1157.704 844.565 C 1174.683 875.09 1214.65 884.411 1195.488 926.211 C 1183.589 952.164 1176.218 977.731 1191.851 1004.367 C 1204.15 1025.313 1223.658 1035.272 1247.369 1036.076 C 1258.649 1036.461 1269.661 1034.282 1280.682 1032.108 C 1290.87 1030.095 1301.058 1028.082 1311.466 1028.092 C 1324.145 1028.106 1333.46 1033.395 1341.689 1042.906 C 1345.135 1046.883 1376.601 1076.492 1375.972 1053.274 C 1393.799 1049.369 1413.151 1036.783 1430.978 1032.874 C 1457.94 1026.966 1485.486 1020.823 1508.958 1006.292 C 1533.673 990.986 1552.606 966.573 1561.278 938.827 C 1569.95 911.08 1568.297 880.228 1556.696 853.574 C 1531.698 796.121 1464.754 761.55 1450.828 700.465 C 1447.908 687.664 1446.806 672.914 1436.603 664.656 C 1427.863 657.573 1415.472 657.909 1404.245 658.597 C 1376.552 660.293 1348.864 661.985 1321.176 663.681 L 1313.206 688.678 Z " fill="rgb(214,117,74)"/><path d=" M 1482.674 1799.678 C 1527.711 1683.832 1549.306 1558.07 1545.62 1433.069 C 1544.514 1395.417 1541.062 1357.453 1529.7 1321.712 C 1518.337 1285.971 1498.502 1252.346 1469.424 1230.147 C 1437.963 1230.497 1400.891 1239.511 1372.93 1254.617 C 1368.441 1428.272 1393.726 1610.195 1449.848 1773.686 C 1455.185 1778.215 1456.507 1788.876 1461.186 1794.15 C 1465.861 1799.43 1480.08 1806.342 1482.674 1799.678 Z " fill="rgb(45,53,57)"/><path d=" M 1252.721 901.945 C 1260.296 1009.846 1298.09 1131.03 1313.835 1188.2 L 1391.698 1264.03 C 1390.367 1265.42 1512.346 1225.701 1490.795 1225.701 C 1521.51 1188.044 1526.356 1144.811 1542.544 1080.787 C 1581.883 1042.638 1587.406 980.954 1564.188 931.32 C 1529.875 908.331 1499.457 879.541 1474.631 846.539 C 1468.615 838.56 1462.819 830.204 1454.922 824.082 C 1447.025 817.954 1436.452 814.308 1426.912 817.257 L 1344.258 819.193 C 1344.258 819.193 1312.606 828.04 1299.367 835.147 C 1269.67 851.097 1254.773 868.3 1252.721 901.945 Z " fill="rgb(207,59,70)"/><path d=" M 1517.172 1291.923 C 1519.965 1256.124 1507.808 1199.582 1507.808 1199.582 L 1314.322 1186.874 L 1269.841 1230.147 C 1318.129 1300.361 1439.455 1314.712 1517.172 1291.923 Z " fill="rgb(45,57,64)"/><path d=" M 1430.042 807.723 C 1438.402 832.203 1454.211 854.085 1474.835 869.704 C 1471.832 884.196 1461.113 896.729 1446.747 900.288 C 1428.258 904.87 1407.653 899.785 1393.423 887.121 C 1376.62 872.17 1360.831 854.5 1354.416 832.939 C 1376.26 831.413 1396.387 820.265 1415.203 809.068 C 1418.733 806.967 1426.015 808.527 1430.042 807.723 Z " fill="rgb(245,151,127)"/><path d=" M 1475.401 1789.154 C 1476.317 1622.133 1455.171 1425.679 1427.078 1262.797 C 1398.401 1232.321 1342.508 1218.676 1313.835 1188.2 C 1263.153 1242.484 1209.171 1267.808 1200.708 1354.236 C 1196.667 1395.481 1205.705 1436.998 1218.979 1474.358 C 1226.846 1496.493 1237.42 1516.207 1247.154 1536.865 C 1254.822 1553.142 1262.485 1569.423 1270.153 1585.7 C 1285.484 1618.253 1300.815 1650.806 1316.145 1683.354 C 1331.325 1715.585 1346.505 1747.812 1361.685 1780.033 C 1372.458 1802.915 1407.575 1803.671 1427.785 1799.649 C 1434.707 1798.269 1441.068 1799.161 1446.923 1800.054 C 1458.154 1801.769 1467.514 1803.48 1475.401 1789.154 Z " fill="rgb(45,57,64)"/><path d=" M 1453.392 1827.347 C 1324.013 1850.063 1191.593 1859.788 1060.069 1849 C 1040.254 1834.006 1058.612 1790.704 1058.612 1790.704 C 1103.824 1766.487 1213.275 1708.863 1285.83 1693.201 C 1356.59 1677.924 1414.75 1733.451 1481.957 1757.624 C 1481.957 1757.624 1483.288 1770.966 1483.283 1790.46 C 1483.273 1808.716 1470.628 1824.32 1453.392 1827.347 Z " fill="rgb(45,57,64)"/><path d=" M 1349.103 1164.212 L 1318.319 985.955 L 1319.519 985.745 L 1350.302 1164.002 L 1349.103 1164.212 Z " fill="rgb(52,46,46)"/><path d=" M 1452.475 1236.055 C 1404.806 1236.055 1357.634 1228.567 1311.846 1213.709 L 1312.197 1212.627 C 1367.359 1230.532 1424.538 1237.697 1482.167 1233.949 L 1482.24 1235.08 C 1472.3 1235.728 1462.376 1236.055 1452.475 1236.055 Z " fill="rgb(52,46,46)"/><path d=" M 1302.301 1498.551 C 1291.007 1469.346 1279.327 1439.148 1272.346 1407.867 C 1264.518 1372.755 1263.83 1340.684 1270.309 1312.543 C 1278.996 1274.779 1302.038 1239.715 1331.939 1218.759 L 1332.593 1219.685 C 1302.911 1240.491 1280.044 1275.296 1271.411 1312.801 C 1264.976 1340.777 1265.663 1372.682 1273.458 1407.618 C 1280.414 1438.816 1292.079 1468.976 1303.359 1498.141 L 1302.301 1498.551 Z " fill="rgb(52,46,46)"/><path d=" M 1301.458 1294.39 C 1293.878 1294.39 1285.82 1293.673 1277.182 1292.26 L 1277.367 1291.133 C 1305.017 1295.682 1325.826 1293.161 1344.867 1282.998 C 1364.985 1272.254 1381.017 1254.846 1392.507 1231.263 L 1393.526 1231.76 C 1381.929 1255.563 1365.735 1273.141 1345.398 1283.997 C 1332.349 1290.968 1318.046 1294.39 1301.458 1294.39 Z " fill="rgb(52,46,46)"/><path d=" M 2869.282 2136.128 C 2903.03 2120.558 3048.032 2096.004 2966.937 2055.335 C 2946.799 2045.235 2921.09 2038.517 2897.663 2032.882 C 2755.932 1998.813 2608.6 1975.707 2460.147 1960.415 C 2346.089 1948.672 2230.272 1941.263 2114.977 1947.727 C 2084.739 1949.423 1869.99 1965.49 1941.107 2017.405 C 1962.794 2033.238 2032.034 2036.212 2000.831 2070.29 C 1993.851 2077.914 1981.781 2082.54 1970.062 2086.625 C 1898.497 2111.559 1816.749 2125.272 1747.924 2153.189 C 1736.439 2157.849 1725.13 2163.499 1718.993 2171.61 C 1674.502 2230.374 1901.856 2224.613 1944.802 2225.51 C 2070.1 2228.132 2195.516 2228.386 2320.863 2228.303 C 2421.071 2228.239 2521.28 2228.376 2621.479 2227.737 C 2671.59 2227.42 2721.697 2226.909 2771.789 2226.085 C 2810.903 2225.436 2863.155 2230.019 2900.251 2219.689 C 2957.689 2203.686 2902.128 2182.832 2876.399 2174.155 C 2835.828 2160.462 2844.197 2147.705 2869.282 2136.128 Z " fill="rgb(233,241,249)"/><path d=" M 1755.094 1972.149 C 1459.309 1889.743 1135.734 1924.455 847.042 2013.51 C 827.465 2019.55 797.617 2030.772 793.898 2051.903 C 789.213 2078.494 837.551 2100.084 797.149 2121.879 C 788.775 2126.398 779.147 2128.587 769.681 2130.717 C 727.997 2140.101 600.861 2155.743 588.455 2196.705 C 580.246 2223.808 647.248 2226.489 670.467 2226.489 C 903.398 2226.489 1339.285 2230.745 1547.141 2226.251 C 1564.554 2225.87 1584.471 2216.535 1582.307 2198.255 C 1581.045 2187.629 1572.168 2178.508 1561.346 2174.121 C 1540.824 2165.81 1516.402 2172.849 1495.314 2175.432 C 1471.545 2178.337 1430.091 2174.74 1429.764 2145.862 C 1429.486 2120.924 1462.863 2110.828 1484.784 2106.105 C 1573.533 2086.996 1662.281 2067.882 1751.024 2048.774 C 1774.062 2043.816 1802.062 2033.828 1803.344 2012.526 C 1804.631 1991.175 1777.776 1978.471 1755.094 1972.149 Z " fill="rgb(233,241,249)"/><path d=" M 2222.755 364.161 L 1550.461 364.161 C 1517.664 364.161 1491.078 391.224 1491.078 424.603 L 1491.078 1824.558 C 1491.078 1857.94 1517.664 1885.004 1550.461 1885.004 L 2222.755 1885.004 C 2255.557 1885.004 2282.143 1857.94 2282.143 1824.558 L 2282.143 424.603 C 2282.143 391.224 2255.557 364.161 2222.755 364.161 Z " fill="rgb(116,206,229)"/><path d=" M 1537.757 1841.006 C 1526.429 1841.006 1517.211 1831.792 1517.211 1820.459 L 1517.211 494.881 C 1517.211 483.554 1526.429 474.336 1537.757 474.336 L 2235.464 474.336 C 2246.787 474.336 2256.005 483.554 2256.005 494.881 L 2256.005 1820.459 C 2256.005 1831.792 2246.787 1841.006 2235.464 1841.006 L 1537.757 1841.006 Z " fill="rgb(43,80,112)"/><path d=" M 2235.464 1841.006 L 1537.757 1841.006 C 1537.621 1841.006 1537.489 1841.006 1537.358 1841.001 C 1526.209 1840.791 1517.211 1831.651 1517.211 1820.459 L 1517.211 1820.459 L 1517.211 494.881 C 1517.211 483.554 1526.429 474.336 1537.757 474.336 L 2235.464 474.336 C 2246.787 474.336 2256.005 483.554 2256.005 494.881 L 2256.005 1285.713 L 2241.289 1269.085 L 2241.289 505.678 C 2241.289 494.798 2232.441 485.951 2221.566 485.951 L 1551.65 485.951 C 1540.775 485.951 1531.927 494.798 1531.927 505.678 L 1531.927 1809.662 C 1531.927 1820.542 1540.775 1829.389 1551.65 1829.389 L 2221.566 1829.389 C 2232.441 1829.389 2241.289 1820.542 2241.289 1809.662 L 2241.289 1505.175 L 2250.95 1496.172 C 2251.111 1496.025 2251.267 1495.884 2251.433 1495.743 C 2251.443 1495.733 2251.453 1495.723 2251.462 1495.713 C 2252.832 1494.544 2254.368 1493.632 2256.005 1492.989 L 2256.005 1820.459 L 2256.005 1820.459 C 2256.005 1831.651 2247.002 1840.791 2235.858 1841.001 C 2235.727 1841.006 2235.595 1841.006 2235.464 1841.006 Z " fill="rgb(45,75,108)"/><path d=" M 1964.076 401.004 L 1777.216 401.004 C 1767.037 401.004 1758.789 409.254 1758.789 419.431 C 1758.789 429.609 1767.037 437.859 1777.216 437.859 L 1964.076 437.859 C 1974.255 437.859 1982.503 429.609 1982.503 419.431 C 1982.503 409.254 1974.255 401.004 1964.076 401.004 Z " fill="rgb(43,80,112)"/><path d=" M 2084.802 419.431 C 2084.802 431.059 2075.375 440.484 2063.744 440.484 C 2052.118 440.484 2042.695 431.059 2042.695 419.431 C 2042.695 407.804 2052.118 398.379 2063.744 398.379 C 2075.375 398.379 2084.802 407.804 2084.802 419.431 Z " fill="rgb(43,80,112)"/><path d=" M 2147.695 419.431 C 2147.695 431.059 2138.268 440.484 2126.642 440.484 C 2115.015 440.484 2105.588 431.059 2105.588 419.431 C 2105.588 407.804 2115.015 398.379 2126.642 398.379 C 2138.268 398.379 2147.695 407.804 2147.695 419.431 Z " fill="rgb(43,80,112)"/><path d=" M 2520.695 789.179 L 2105.417 789.179 C 2086.562 789.179 2071.28 804.466 2071.28 823.321 L 2071.28 1012.21 C 2071.28 1031.065 2086.562 1046.347 2105.417 1046.347 L 2520.695 1046.347 C 2539.555 1046.347 2554.837 1031.065 2554.837 1012.21 L 2554.837 823.321 C 2554.837 804.466 2539.555 789.179 2520.695 789.179 Z " fill="rgb(254,254,254)"/><path d=" M 2502.186 938.919 L 2123.931 938.919 L 2123.931 926.313 L 2502.186 926.313 L 2502.186 938.919 Z " fill="rgb(232,210,194)"/><path d=" M 2502.186 969.654 L 2123.931 969.654 L 2123.931 957.048 L 2502.186 957.048 L 2502.186 969.654 Z " fill="rgb(232,210,194)"/><path d=" M 2390.663 1000.384 L 2123.931 1000.384 L 2123.931 987.778 L 2390.663 987.778 L 2390.663 1000.384 Z " fill="rgb(232,210,194)"/><path d=" M 2144.322 835.143 L 2153.282 857.507 L 2177.319 859.116 L 2158.819 874.544 L 2164.718 897.904 L 2144.322 885.079 L 2123.931 897.904 L 2129.83 874.544 L 2111.33 859.116 L 2135.367 857.507 L 2144.322 835.143 Z " fill="rgb(246,149,57)"/><path d=" M 2228.688 835.143 L 2237.647 857.507 L 2261.689 859.116 L 2243.19 874.544 L 2249.083 897.904 L 2228.688 885.079 L 2208.297 897.904 L 2214.191 874.544 L 2195.696 859.116 L 2219.733 857.507 L 2228.688 835.143 Z " fill="rgb(246,149,57)"/><path d=" M 2313.059 835.143 L 2322.018 857.507 L 2346.05 859.116 L 2327.551 874.544 L 2333.449 897.904 L 2313.059 885.079 L 2292.663 897.904 L 2298.561 874.544 L 2280.062 859.116 L 2304.099 857.507 L 2313.059 835.143 Z " fill="rgb(246,149,57)"/><path d=" M 2397.424 835.143 L 2406.384 857.507 L 2430.421 859.116 L 2411.922 874.544 L 2417.82 897.904 L 2397.424 885.079 L 2377.034 897.904 L 2382.932 874.544 L 2364.433 859.116 L 2388.465 857.507 L 2397.424 835.143 Z " fill="rgb(246,149,57)"/><path d=" M 2481.795 835.143 L 2490.75 857.507 L 2514.792 859.116 L 2496.292 874.544 L 2502.186 897.904 L 2481.795 885.079 L 2461.4 897.904 L 2467.293 874.544 L 2448.794 859.116 L 2472.836 857.507 L 2481.795 835.143 Z " fill="rgb(246,149,57)"/><path d=" M 2238.115 1044.583 L 2315.301 1115.504 L 2315.301 1044.583 L 2238.115 1044.583 Z " fill="rgb(254,254,254)"/><path d=" M 1110.849 228.079 L 1649.553 228.079 C 1674.014 228.079 1693.844 247.909 1693.844 272.368 L 1693.844 486.698 C 1693.844 511.158 1674.014 530.988 1649.553 530.988 L 1110.849 530.988 C 1086.388 530.988 1066.558 511.158 1066.558 486.698 L 1066.558 272.368 C 1066.558 247.909 1086.388 228.079 1110.849 228.079 Z " fill="rgb(254,254,254)"/><path d=" M 1625.545 422.326 L 1134.861 422.326 L 1134.861 405.974 L 1625.545 405.974 L 1625.545 422.326 Z " fill="rgb(232,210,194)"/><path d=" M 1470.96 462.194 L 1134.861 462.194 L 1134.861 445.842 L 1470.96 445.842 L 1470.96 462.194 Z " fill="rgb(232,210,194)"/><path d=" M 1161.316 287.703 L 1172.937 316.713 L 1204.116 318.801 L 1180.118 338.819 L 1187.766 369.119 L 1161.316 352.481 L 1134.861 369.119 L 1142.51 338.819 L 1118.512 318.801 L 1149.695 316.713 L 1161.316 287.703 Z " fill="rgb(246,149,57)"/><path d=" M 1270.757 287.703 L 1282.379 316.713 L 1313.562 318.801 L 1289.564 338.819 L 1297.212 369.119 L 1270.757 352.481 L 1244.307 369.119 L 1251.956 338.819 L 1227.958 318.801 L 1259.136 316.713 L 1270.757 287.703 Z " fill="rgb(246,149,57)"/><path d=" M 1380.203 287.703 L 1391.825 316.713 L 1423.003 318.801 L 1399.005 338.819 L 1406.653 369.119 L 1380.203 352.481 L 1353.749 369.119 L 1361.397 338.819 L 1337.399 318.801 L 1368.582 316.713 L 1380.203 287.703 Z " fill="rgb(246,149,57)"/><path d=" M 1489.645 287.703 L 1501.266 316.713 L 1532.449 318.801 L 1508.451 338.819 L 1516.094 369.119 L 1489.645 352.481 L 1463.195 369.119 L 1470.838 338.819 L 1446.84 318.801 L 1478.023 316.713 L 1489.645 287.703 Z " fill="rgb(232,210,194)"/><path d=" M 1599.091 287.703 L 1610.712 316.713 L 1641.89 318.801 L 1617.892 338.819 L 1625.545 369.119 L 1599.091 352.481 L 1572.636 369.119 L 1580.284 338.819 L 1556.286 318.801 L 1587.464 316.713 L 1599.091 287.703 Z " fill="rgb(232,210,194)"/><path d=" M 1552.542 511.762 L 1552.542 606.833 L 1645.639 511.762 L 1552.542 511.762 Z " fill="rgb(254,254,254)"/><path d=" M 1444.373 2010.985 C 1389.655 1996.975 1329.556 1945.631 1274.833 1931.621 C 1233.276 1920.979 1191.076 1910.075 1153.965 1887.427 C 1135.666 1876.254 1118.858 1861.981 1105.204 1844.779 C 1095.313 1832.314 1086.748 1818.041 1081.518 1802.627 C 1079.432 1796.485 1079.705 1791.279 1084.735 1787.087 C 1087.246 1784.996 1090.166 1783.455 1092.959 1781.852 C 1107.719 1773.384 1115.914 1739.744 1133.146 1742.055 C 1244.424 1756.996 1392.005 1811.07 1491.078 1875.894 C 1508.139 1887.057 1520.569 1901.495 1525.503 1922.213 C 1530.387 1942.73 1523.757 1965.89 1508.973 1979.982 C 1494.178 1994.07 1463.638 2015.923 1444.373 2010.985 Z " fill="rgb(45,53,57)"/><path d=" M 985.531 1742.06 C 914.751 1793.278 874.891 1888.811 925.655 1971.681 C 961.426 2030.074 1024.684 2046.902 1085.715 2055.276 C 1141.101 2062.881 1369.752 2070.958 1416.086 2063.71 C 1439.504 2060.049 1464.876 2053.39 1478.925 2033.043 C 1494.115 2011.049 1488.752 1958.612 1466.558 1945.021 C 1391.556 1899.087 1267.389 1871.433 1183.862 1822.024 C 1154.96 1804.928 1152.517 1771.464 1163.51 1741.943 C 1109.762 1734.801 1039.089 1733.431 985.531 1742.06 Z " fill="rgb(45,57,64)"/><path d=" M 1214.996 2019.199 C 1179.669 2015.694 1144.343 2012.189 1109.016 2008.684 C 1071.393 2004.95 1028.755 2000.724 994.788 1976.56 C 960.09 1951.87 938.988 1907.179 941.025 1862.693 C 943.063 1818.202 968.158 1775.929 1004.947 1754.982 L 1005.488 1755.933 C 969.015 1776.699 944.14 1818.621 942.117 1862.742 C 940.099 1906.867 961.021 1951.193 995.422 1975.663 C 1029.149 1999.661 1071.642 2003.873 1109.128 2007.597 C 1144.455 2011.107 1179.777 2014.607 1215.103 2018.112 L 1214.996 2019.199 Z " fill="rgb(52,46,46)"/><path d=" M 1006.336 1810.407 C 991.522 1810.407 976.6 1805.216 964.94 1795.593 L 965.637 1794.745 C 981.28 1807.663 1002.894 1812.455 1022.037 1807.244 C 1041.195 1802.038 1058.051 1786.79 1066.021 1767.452 L 1067.035 1767.871 C 1058.934 1787.516 1041.804 1803.008 1022.325 1808.301 C 1017.119 1809.715 1011.737 1810.407 1006.336 1810.407 Z " fill="rgb(52,46,46)"/><path d=" M 1269.134 1571.705 C 1265.756 1542.52 1260.067 1513.599 1252.161 1485.301 C 1244.395 1457.486 1231.219 1409.846 1196.945 1405.932 C 1198.88 1460.309 1194.108 1517.235 1196.048 1571.617 C 1208.873 1571.71 1220.734 1571.685 1232.589 1571.661 C 1244.449 1571.632 1256.309 1571.607 1269.134 1571.705 Z " fill="rgb(147,68,61)"/><path d=" M 1063.696 1300.576 C 1058.076 1331.369 1049.989 1388.388 1043.652 1425.265 L 1138.893 1421.404 C 1131.849 1401.993 1127.925 1368.314 1127.925 1347.095 L 1063.696 1300.576 Z " fill="rgb(175,75,65)"/><path d=" M 1127.925 1347.095 L 1063.696 1300.576 C 1059.967 1320.991 1055.156 1352.93 1050.491 1382.894 C 1067.152 1390.859 1085.89 1394.54 1104.292 1392.907 C 1113.447 1392.098 1122.426 1389.894 1131.02 1386.672 C 1129.002 1372.614 1127.925 1358.16 1127.925 1347.095 Z " fill="rgb(159,69,65)"/><path d=" M 1178.392 1302.077 C 1194.225 1279.342 1193.299 1235.353 1184.217 1209.176 C 1175.136 1182.999 1132.122 1164.504 1094.338 1162.725 C 1080.377 1162.062 1083.614 1157.694 1063.56 1180.488 C 1043.681 1203.082 1081.464 1231.351 1096.79 1257.255 C 1112.121 1283.159 1140.448 1300.907 1170.442 1303.408 L 1178.392 1302.077 Z " fill="rgb(73,55,50)"/><path d=" M 1056.915 1263.153 C 1055.156 1299.976 1083.585 1331.257 1120.408 1333.012 C 1157.231 1334.771 1188.512 1306.342 1190.272 1269.519 C 1192.027 1232.696 1163.602 1201.42 1126.779 1199.66 C 1089.956 1197.901 1058.675 1226.325 1056.915 1263.153 Z " fill="rgb(175,75,65)"/><path d=" M 1082.308 1346.061 C 1080.338 1343.819 1072.271 1328.205 1072.661 1316.857 L 1069.804 1267.447 L 1132.2 1270.431 C 1133.545 1270.392 1134.91 1270.406 1136.28 1270.475 C 1137.655 1270.538 1139.01 1270.655 1140.345 1270.816 L 1187.864 1283.651 C 1187.864 1283.651 1189.794 1321.751 1180.196 1351.34 C 1178.441 1356.737 1170.646 1373.91 1166.556 1377.849 C 1161.599 1382.636 1151.562 1383.313 1144.689 1382.821 C 1125.643 1381.451 1094.899 1360.412 1082.308 1346.061 Z " fill="rgb(175,75,65)"/><path d=" M 1191.671 1269.183 C 1191.476 1268.393 1191.3 1267.438 1190.862 1266.75 C 1190.506 1266.185 1189.999 1265.668 1189.545 1265.186 C 1188.614 1264.191 1187.557 1263.377 1186.362 1262.729 C 1184.208 1261.559 1181.424 1260.833 1178.967 1261.008 C 1175.935 1261.232 1173.357 1262.48 1170.939 1264.25 C 1169.701 1265.156 1168.536 1266.195 1167.507 1267.335 C 1166.42 1268.544 1165.703 1269.846 1165.742 1271.528 C 1165.777 1272.756 1166.103 1274.048 1167.088 1274.852 C 1167.96 1275.554 1168.818 1275.413 1169.662 1274.789 C 1170.666 1274.038 1171.436 1272.917 1172.367 1272.064 C 1173.147 1271.352 1174.146 1270.553 1174.878 1270.099 C 1176.72 1268.963 1178.587 1267.959 1180.683 1267.379 C 1182.399 1266.906 1184.086 1266.95 1185.738 1267.603 C 1186.616 1267.95 1187.449 1268.383 1188.205 1268.949 L 1189.35 1269.929 C 1189.779 1270.226 1190.34 1270.343 1190.823 1270.553 C 1191.549 1270.869 1191.783 1269.631 1191.671 1269.183 Z " fill="rgb(73,55,50)"/><path d=" M 1101.582 1273.775 C 1106.315 1269.997 1112.735 1268.271 1118.721 1268.374 C 1121.695 1268.422 1124.576 1269.124 1127.281 1270.348 C 1128.578 1270.928 1129.811 1271.625 1130.967 1272.459 C 1132.19 1273.331 1133.609 1274.935 1135.217 1274.833 C 1136.972 1274.716 1137.513 1272.108 1137.128 1270.762 C 1136.056 1267.028 1132.278 1264.825 1128.919 1263.265 C 1125.785 1261.803 1122.27 1260.993 1118.809 1260.93 C 1115.392 1260.862 1111.985 1261.812 1108.914 1263.284 C 1105.418 1264.957 1102.698 1267.452 1100.173 1270.358 C 1099.213 1271.454 1099.774 1275.218 1101.582 1273.775 Z " fill="rgb(73,55,50)"/><path d=" M 1170.032 1313.581 C 1169.535 1312.358 1168.916 1310.929 1168.238 1309.374 C 1166.722 1305.874 1164.836 1301.521 1163.456 1297.519 C 1161.111 1290.704 1161.087 1285.922 1167.312 1277.153 L 1168.306 1277.86 C 1162.355 1286.244 1162.355 1290.578 1164.607 1297.12 C 1165.972 1301.083 1167.848 1305.411 1169.359 1308.887 C 1170.037 1310.452 1170.661 1311.89 1171.163 1313.113 L 1170.032 1313.581 Z " fill="rgb(52,46,46)"/><path d=" M 1163.183 1292.172 L 1162.067 1291.679 C 1164.212 1286.829 1168.17 1283.31 1172.655 1282.281 C 1177.159 1281.248 1181.931 1282.773 1185.417 1286.366 L 1184.539 1287.214 C 1181.356 1283.929 1177.008 1282.53 1172.928 1283.47 C 1168.877 1284.397 1165.143 1287.736 1163.183 1292.172 Z " fill="rgb(52,46,46)"/><path d=" M 1107.968 1294.97 L 1106.866 1294.448 C 1109.421 1289.028 1114.48 1285.167 1120.067 1284.372 C 1125.643 1283.568 1131.474 1285.903 1135.237 1290.441 L 1134.301 1291.221 C 1130.801 1287.009 1125.414 1284.855 1120.237 1285.576 C 1115.051 1286.317 1110.352 1289.915 1107.968 1294.97 Z " fill="rgb(52,46,46)"/><path d=" M 1167.551 1289.071 C 1167.551 1292.664 1170.466 1295.569 1174.054 1295.569 C 1177.641 1295.569 1180.552 1292.664 1180.552 1289.071 C 1180.552 1285.489 1177.641 1282.574 1174.054 1282.574 C 1170.466 1282.574 1167.551 1285.489 1167.551 1289.071 Z " fill="rgb(61,48,46)"/><path d=" M 1175.809 1286.907 C 1175.809 1288.243 1176.891 1289.315 1178.222 1289.315 C 1179.547 1289.315 1180.63 1288.243 1180.63 1286.907 C 1180.63 1285.581 1179.547 1284.499 1178.222 1284.499 C 1176.891 1284.499 1175.809 1285.581 1175.809 1286.907 Z " fill="rgb(254,247,237)"/><path d=" M 1116.07 1291.328 C 1116.07 1294.921 1118.98 1297.826 1122.567 1297.826 C 1126.155 1297.826 1129.065 1294.921 1129.065 1291.328 C 1129.065 1287.741 1126.155 1284.831 1122.567 1284.831 C 1118.98 1284.831 1116.07 1287.741 1116.07 1291.328 Z " fill="rgb(61,48,46)"/><path d=" M 1124.327 1289.164 C 1124.327 1290.49 1125.405 1291.572 1126.735 1291.572 C 1128.066 1291.572 1129.143 1290.49 1129.143 1289.164 C 1129.143 1287.833 1128.066 1286.756 1126.735 1286.756 C 1125.405 1286.756 1124.327 1287.833 1124.327 1289.164 Z " fill="rgb(254,247,237)"/><path d=" M 1132.122 1341.328 C 1146.049 1336.902 1165.167 1336.283 1170.198 1339.856 C 1167.551 1348.167 1162.013 1353.368 1153.785 1354.402 C 1145.552 1355.435 1135.125 1352.145 1132.122 1341.328 Z " fill="rgb(159,69,65)"/><path d=" M 1149.183 1344.136 C 1141.447 1344.136 1133.414 1342.805 1125.405 1340.129 L 1125.79 1338.978 C 1142.661 1344.604 1159.625 1344.194 1173.547 1337.818 L 1174.054 1338.925 C 1166.478 1342.395 1158.026 1344.136 1149.183 1344.136 Z " fill="rgb(52,46,46)"/><path d=" M 1154.263 1318.115 C 1159.683 1320.035 1165.894 1319.592 1170.992 1316.92 C 1170.9 1321.566 1167.395 1326.192 1162.9 1327.342 C 1159.015 1325.51 1154.696 1322.39 1154.263 1318.115 Z " fill="rgb(159,69,65)"/><path d=" M 1057.008 1340.933 C 1009.266 1303.452 1001.461 1255.997 1016.919 1199.582 C 1043.905 1166.089 1025.245 1168.482 1053.908 1161.141 C 1079.222 1154.657 1124.327 1164.504 1154.263 1203.126 C 1109.669 1205.174 1078.754 1238.901 1073.148 1279.493 C 1072.217 1286.234 1065.28 1294.434 1066.358 1301.156 C 1067.435 1307.883 1074.089 1313.469 1074.045 1320.279 C 1074.006 1327.089 1062.672 1337.155 1057.008 1340.933 Z " fill="rgb(73,55,50)"/><path d=" M 1078.291 1330.852 C 1066.489 1325.164 1057.52 1313.898 1054.624 1301.117 C 1053.528 1296.281 1053.469 1290.636 1056.867 1287.019 C 1059.748 1283.953 1064.569 1283.222 1068.556 1284.562 C 1072.549 1285.903 1075.741 1289.023 1077.979 1292.586 C 1080.221 1296.149 1081.615 1300.166 1082.99 1304.139 C 1085.954 1312.699 1079.792 1321.922 1078.291 1330.852 Z " fill="rgb(175,75,65)"/><path d=" M 1074.045 1320.279 C 1068.23 1316.94 1064.037 1310.895 1062.95 1304.276 C 1062.482 1301.439 1062.682 1298.207 1064.71 1296.164 C 1066.943 1293.907 1070.955 1293.995 1073.367 1296.057 C 1075.78 1298.124 1076.56 1301.736 1075.62 1304.768 C 1075.044 1306.635 1073.899 1308.336 1073.684 1310.271 C 1073.47 1312.212 1074.81 1314.556 1076.75 1314.337 C 1077.184 1316.735 1076.453 1319.87 1074.045 1320.279 Z " fill="rgb(159,69,65)"/><path d=" M 1119.852 1113.223 C 1116.664 1111.214 1111.853 1111.751 1109.786 1114.905 C 1112.399 1109.776 1111.755 1103.161 1108.207 1098.633 C 1104.658 1094.099 1098.37 1094.553 1092.764 1095.859 C 1095.981 1088.664 1097.843 1081.318 1094.241 1074.308 C 1092.647 1071.213 1090.214 1068.283 1086.861 1067.333 C 1083.507 1066.382 1078.661 1067.883 1078.042 1071.315 C 1080.762 1062.268 1074.932 1051.558 1065.856 1048.941 C 1056.779 1046.318 1046.138 1052.275 1043.622 1061.381 C 1043.164 1052.787 1034.263 1045.645 1025.771 1047.069 C 1017.284 1048.492 1011.196 1058.149 1013.57 1066.421 C 1008.856 1061.873 1003.309 1057.925 996.938 1056.399 C 990.566 1054.878 983.269 1056.136 978.653 1060.776 C 974.027 1065.422 973.047 1073.675 977.405 1078.569 C 972.091 1073.558 962.649 1073.933 957.75 1079.349 C 952.851 1084.764 953.426 1094.197 958.944 1098.979 C 954.109 1096.975 948.985 1095.299 943.76 1095.528 C 938.529 1095.752 933.143 1098.209 930.603 1102.786 C 928.858 1105.916 928.955 1110.015 930.657 1113.072 C 927.756 1111.439 923.905 1111.273 920.937 1112.921 C 916.53 1115.363 914.327 1120.842 914.965 1125.838 C 915.599 1130.835 918.694 1135.285 922.628 1138.43 C 915.692 1139.848 910.305 1146.736 910.607 1153.809 C 910.909 1160.887 916.861 1167.297 923.896 1168.116 C 918.299 1166.951 912.801 1171.841 911.514 1177.407 C 910.32 1182.541 910.061 1187.649 914.122 1191.008 C 918.178 1194.366 923.715 1195.278 928.985 1195.468 C 932.85 1195.614 936.731 1195.434 940.572 1194.942 C 933.586 1197.023 928.185 1205.008 928.575 1212.286 C 928.97 1219.564 934.8 1226.193 941.966 1227.509 C 947.396 1228.509 953.046 1226.676 957.672 1223.663 L 958.442 1223.098 L 958.413 1224.38 C 959.13 1230.302 964.541 1234.816 970.327 1236.269 C 976.113 1237.722 982.211 1236.718 988.041 1235.46 C 1010.002 1230.727 1031.197 1222.469 1050.574 1211.106 L 1044.919 1206.465 C 1057.817 1192.782 1070.959 1181.371 1087.402 1172.245 C 1102.762 1163.719 1115.163 1149.978 1122.075 1133.823 C 1123.557 1130.357 1124.81 1126.687 1124.737 1122.918 C 1124.659 1119.15 1123.045 1115.231 1119.852 1113.223 Z " fill="rgb(73,55,50)"/><path d=" M 1188.414 1750.995 C 1242.631 1658.405 1258.98 1534.34 1196.945 1405.932 C 1194.893 1406.059 1192.807 1406.02 1190.676 1405.976 C 1188.726 1405.937 1186.733 1405.898 1184.685 1405.99 C 1126.355 1408.574 1048.546 1409.768 987.778 1413.185 C 959.432 1414.784 931.1 1417.592 925.241 1422.374 C 948.313 1532.415 983.206 1674.195 973.408 1747.714 C 1026.556 1771.386 1170.261 1781.993 1188.414 1750.995 Z " fill="rgb(141,139,66)"/><path d=" M 1184.685 1405.99 C 1189.38 1454.878 1162.194 1492.584 1113.959 1494.397 C 1065.724 1496.206 1019.098 1459.48 987.778 1413.185 C 1057.067 1409.388 1126.253 1405.99 1184.685 1405.99 Z " fill="rgb(175,75,65)"/><path d=" M 1317.369 1395.485 L 1245.653 1464.998 C 1241.641 1468.888 1235.972 1470.555 1230.493 1469.454 L 1132.575 1449.784 C 1118.78 1447.016 1107.802 1461.264 1113.993 1473.899 L 1157.943 1563.583 C 1160.4 1568.599 1160.234 1574.503 1157.499 1579.373 L 1108.533 1666.429 C 1101.636 1678.689 1111.79 1693.532 1125.721 1691.553 L 1224.599 1677.461 C 1230.127 1676.676 1235.694 1678.66 1239.477 1682.769 L 1307.137 1756.235 C 1316.667 1766.589 1333.928 1761.519 1336.346 1747.656 L 1353.505 1649.261 C 1354.46 1643.757 1358.068 1639.077 1363.147 1636.752 L 1453.928 1595.108 C 1466.714 1589.239 1467.221 1571.256 1454.786 1564.68 L 1366.515 1517.957 C 1361.577 1515.339 1358.243 1510.464 1357.595 1504.917 L 1346.042 1405.708 C 1344.414 1391.737 1327.469 1385.692 1317.369 1395.485 Z " fill="rgb(249,166,65)"/><path d=" M 1256.372 1701.117 L 1239.477 1682.769 C 1236.24 1679.254 1231.697 1677.295 1226.988 1677.295 L 1226.988 1677.295 C 1231.697 1677.295 1236.24 1679.254 1239.477 1682.769 L 1256.372 1701.117 L 1256.372 1701.117 Z " fill="rgb(231,225,211)"/><path d=" M 1357.595 1504.917 L 1353.739 1471.823 C 1353.739 1471.823 1353.739 1471.823 1353.739 1471.823 L 1357.595 1504.917 Z " fill="rgb(45,55,58)"/><path d=" M 1319.533 1761.729 C 1315.102 1761.729 1310.608 1760.003 1307.137 1756.235 L 1256.372 1701.117 L 1239.477 1682.769 C 1236.24 1679.254 1231.697 1677.295 1226.988 1677.295 L 1226.988 1677.295 L 1226.988 1677.295 C 1226.315 1677.295 1225.642 1677.334 1224.97 1677.412 C 1224.848 1677.426 1224.721 1677.446 1224.599 1677.461 L 1125.721 1691.553 C 1124.868 1691.675 1124.035 1691.734 1123.216 1691.734 C 1113.593 1691.734 1106.325 1683.69 1106.315 1674.76 C 1106.31 1671.996 1107.003 1669.149 1108.533 1666.429 L 1136.806 1616.157 C 1222.757 1602.293 1302.891 1551.572 1349.917 1478.048 C 1351.223 1476.01 1352.491 1473.929 1353.739 1471.823 L 1357.595 1504.917 C 1358.243 1510.464 1361.577 1515.339 1366.51 1517.957 L 1454.786 1564.68 C 1460.835 1567.878 1463.819 1573.772 1463.823 1579.66 C 1463.823 1585.88 1460.494 1592.091 1453.928 1595.108 L 1363.147 1636.752 C 1358.068 1639.077 1354.46 1643.757 1353.505 1649.261 L 1336.346 1747.656 C 1334.806 1756.469 1327.269 1761.729 1319.533 1761.729 Z " fill="rgb(247,156,61)"/><path d=" M 1257.24 1588.02 C 1269.895 1580.157 1283.773 1571.749 1297.378 1565.689 C 1302.199 1563.535 1307.473 1560.932 1312.314 1558.826 C 1312.987 1563.671 1313.479 1569.399 1311.397 1573.825 C 1308.336 1580.328 1300.478 1583.106 1296.223 1588.898 C 1284.484 1588.61 1268.983 1588.308 1257.24 1588.02 Z " fill="rgb(159,69,65)"/><path d=" M 1228.596 1651.425 C 1255.349 1656.875 1280.565 1648.534 1302.925 1632.872 C 1300.395 1611.623 1288.935 1594.733 1273.57 1579.845 C 1256.172 1587.484 1240.364 1597.467 1226.919 1610.892 C 1223.775 1624.609 1224.112 1638.093 1228.596 1651.425 Z " fill="rgb(175,75,65)"/><path d=" M 1273.57 1579.845 C 1287.312 1575.721 1301.063 1571.597 1314.81 1567.469 C 1328.103 1565.845 1340.709 1566.006 1354.031 1565.021 C 1354.192 1567.834 1352.535 1571.939 1350.409 1573.786 C 1348.279 1575.634 1342.098 1578.734 1339.359 1579.397 C 1332.485 1581.059 1328.659 1580.918 1320.23 1581.469 C 1306.235 1589.799 1290.651 1595.571 1274.457 1597.326 L 1273.57 1579.845 Z " fill="rgb(175,75,65)"/><path d=" M 1282.34 1591.252 C 1296.086 1587.123 1309.833 1582.994 1323.579 1578.875 C 1336.76 1581.113 1349.625 1582.531 1362.801 1584.774 C 1362.957 1587.586 1361.772 1589.058 1359.642 1590.901 C 1357.512 1592.744 1352.496 1594.055 1349.756 1594.718 C 1342.883 1596.38 1335.473 1595.722 1329.005 1592.875 C 1315.005 1601.206 1299.425 1606.978 1283.227 1608.733 L 1282.34 1591.252 Z " fill="rgb(175,75,65)"/><path d=" M 1277.124 1609.03 C 1290.87 1604.906 1304.622 1600.777 1318.363 1596.648 C 1331.544 1598.886 1344.409 1600.309 1357.585 1602.547 C 1357.746 1605.359 1356.093 1607.241 1353.963 1609.088 C 1351.838 1610.936 1347.28 1611.828 1344.545 1612.491 C 1337.672 1614.153 1330.258 1613.495 1323.789 1610.653 C 1309.789 1618.979 1294.209 1624.756 1278.016 1626.506 L 1277.124 1609.03 Z " fill="rgb(175,75,65)"/><path d=" M 1259.594 1629.089 C 1273.346 1624.965 1287.092 1620.836 1300.839 1616.708 C 1314.015 1618.945 1326.879 1620.368 1340.06 1622.606 C 1340.216 1625.423 1338.442 1627.851 1336.317 1629.694 C 1334.187 1631.541 1312.733 1633.554 1306.26 1630.712 C 1292.264 1639.043 1276.68 1644.815 1260.486 1646.565 L 1259.594 1629.089 Z " fill="rgb(175,75,65)"/><path d=" M 1002.875 1667.37 C 1032.172 1696.179 1031.197 1745.218 1031.197 1745.218 C 1062.794 1750.269 1145.683 1728.952 1232.433 1653.833 C 1234.582 1651.971 1237.049 1650.504 1239.35 1648.832 C 1241.168 1647.511 1244.025 1646.136 1245.243 1644.196 C 1246.155 1642.743 1245.653 1641.081 1245.394 1639.506 C 1244.463 1633.774 1243.098 1628.226 1240.832 1622.864 C 1239.633 1620.042 1238.234 1617.302 1236.669 1614.67 C 1236.181 1613.851 1233.037 1607.85 1232.243 1608.075 C 1171.051 1625.131 1112.355 1634.939 1046.308 1661.594 C 1035.477 1665.966 994.544 1659.176 1002.875 1667.37 Z " fill="rgb(175,75,65)"/><path d=" M 1353.778 1469.215 C 1356.659 1469.546 1359.623 1467.465 1360.295 1464.642 C 1360.963 1461.82 1359.306 1458.466 1356.527 1457.633 C 1347.87 1455.02 1337.672 1454.625 1330.394 1455 C 1326.894 1456.253 1327.225 1462.322 1331.135 1464.272 C 1334.674 1466.66 1345.311 1468.24 1353.778 1469.215 Z " fill="rgb(175,75,65)"/><path d=" M 1353.919 1481.216 C 1356.274 1480.875 1358.267 1478.813 1358.526 1476.454 C 1358.784 1474.089 1357.341 1471.501 1355.07 1470.804 C 1347.948 1468.605 1338.496 1467.981 1330.233 1467.845 C 1326.884 1469.044 1327.357 1475.177 1330.847 1477.092 C 1338.686 1480.076 1345.618 1482.411 1353.919 1481.216 Z " fill="rgb(175,75,65)"/><path d=" M 1352.281 1493.208 C 1354.441 1492.842 1356.561 1491.58 1357.058 1489.445 C 1357.414 1487.924 1356.985 1486.252 1356.001 1485.033 C 1355.016 1483.819 1353.51 1483.054 1351.955 1482.898 C 1345.125 1482.23 1338.14 1482.693 1331.306 1483.351 C 1328.517 1483.936 1329.146 1490.108 1333.241 1491.473 C 1333.241 1491.473 1344.701 1494.495 1352.281 1493.208 Z " fill="rgb(175,75,65)"/><path d=" M 1351.765 1505.083 C 1354.148 1504.775 1356.147 1502.567 1356.215 1500.159 C 1356.279 1497.751 1354.412 1495.436 1352.042 1495.002 C 1345.866 1493.856 1339.129 1494.441 1332.997 1495.791 C 1331.315 1496.879 1331.198 1500.622 1334.377 1502.489 C 1334.377 1502.489 1337.891 1503.464 1341.542 1504.22 C 1344.033 1504.736 1349.239 1505.404 1351.765 1505.083 Z " fill="rgb(175,75,65)"/><path d=" M 997.401 1741.548 L 996.299 1741.48 L 1003.372 1618.657 L 1004.474 1618.726 L 997.401 1741.548 Z " fill="rgb(52,46,46)"/><path d=" M 1060.615 1688.048 C 1053.766 1667.268 1047.405 1646.336 1040.922 1625.321 C 1028.599 1585.373 1016.275 1545.425 1003.947 1505.482 C 998.517 1487.87 993.013 1470.082 984.887 1454.61 C 976.761 1439.148 965.667 1425.967 952.388 1421.014 C 928 1411.923 906.425 1431.407 903.558 1457.657 C 901.009 1481.016 905.118 1507.739 911.27 1530.085 C 935.8 1619.164 967.563 1677.621 1001.822 1729.946 C 1008.218 1739.72 1020.419 1747.417 1029.768 1745.053 C 1038.401 1742.869 1045.855 1734.947 1051.305 1725.359 C 1056.755 1715.771 1056.959 1699.172 1060.615 1688.048 Z " fill="rgb(175,75,65)"/><path d=" M 1021.243 1212.169 L 1020.068 1211.847 C 1023.938 1197.554 1032.635 1184.832 1044.553 1176.038 C 1056.462 1167.234 1071.125 1162.691 1085.988 1163.173 L 1085.944 1164.392 C 1071.388 1163.89 1056.969 1168.384 1045.275 1177.018 C 1033.58 1185.651 1025.045 1198.135 1021.243 1212.169 Z " fill="rgb(52,46,46)"/><path d=" M 1340.514 1179.206 L 1777.021 1179.206 C 1796.836 1179.206 1812.903 1195.273 1812.903 1215.094 L 1812.903 1388.758 C 1812.903 1408.579 1796.836 1424.646 1777.021 1424.646 L 1340.514 1424.646 C 1320.698 1424.646 1304.631 1408.579 1304.631 1388.758 L 1304.631 1215.094 C 1304.631 1195.273 1320.698 1179.206 1340.514 1179.206 Z " fill="rgb(254,254,254)"/><path d=" M 1757.561 1336.599 L 1359.974 1336.599 L 1359.974 1323.35 L 1757.561 1323.35 L 1757.561 1336.599 Z " fill="rgb(232,210,194)"/><path d=" M 1632.302 1368.899 L 1359.974 1368.899 L 1359.974 1355.655 L 1632.302 1355.655 L 1632.302 1368.899 Z " fill="rgb(232,210,194)"/><path d=" M 1381.407 1227.519 L 1390.825 1251.025 L 1416.091 1252.716 L 1396.646 1268.934 L 1402.846 1293.488 L 1381.407 1280.005 L 1359.974 1293.488 L 1366.174 1268.934 L 1346.729 1252.716 L 1371.99 1251.025 L 1381.407 1227.519 Z " fill="rgb(246,149,57)"/><path d=" M 1470.087 1227.519 L 1479.505 1251.025 L 1504.771 1252.716 L 1485.326 1268.934 L 1491.521 1293.488 L 1470.087 1280.005 L 1448.653 1293.488 L 1454.849 1268.934 L 1435.409 1252.716 L 1460.669 1251.025 L 1470.087 1227.519 Z " fill="rgb(246,149,57)"/><path d=" M 1558.767 1227.519 L 1568.185 1251.025 L 1593.451 1252.716 L 1574.001 1268.934 L 1580.201 1293.488 L 1558.767 1280.005 L 1537.333 1293.488 L 1543.529 1268.934 L 1524.084 1252.716 L 1549.349 1251.025 L 1558.767 1227.519 Z " fill="rgb(246,149,57)"/><path d=" M 1647.447 1227.519 L 1656.86 1251.025 L 1682.126 1252.716 L 1662.685 1268.934 L 1668.881 1293.488 L 1647.447 1280.005 L 1626.008 1293.488 L 1632.209 1268.934 L 1612.769 1252.716 L 1638.029 1251.025 L 1647.447 1227.519 Z " fill="rgb(246,149,57)"/><path d=" M 1736.122 1227.519 L 1745.545 1251.025 L 1770.806 1252.716 L 1751.36 1268.934 L 1757.561 1293.488 L 1736.122 1280.005 L 1714.693 1293.488 L 1720.889 1268.934 L 1701.444 1252.716 L 1726.709 1251.025 L 1736.122 1227.519 Z " fill="rgb(232,210,194)"/><path d=" M 1321.512 1231.555 L 1225.428 1279.166 L 1321.512 1326.782 L 1321.512 1231.555 Z " fill="rgb(254,254,254)"/><path d=" M 1814.624 673.04 L 1863.507 772.084 C 1866.242 777.626 1871.526 781.468 1877.639 782.355 L 1986.943 798.236 C 2002.338 800.474 2008.485 819.392 1997.346 830.253 L 1918.254 907.351 C 1913.828 911.665 1911.81 917.875 1912.853 923.964 L 1931.523 1032.83 C 1934.156 1048.161 1918.059 1059.855 1904.289 1052.616 L 1806.527 1001.218 C 1801.058 998.341 1794.526 998.341 1789.061 1001.218 L 1691.29 1052.616 C 1677.524 1059.855 1661.428 1048.161 1664.06 1032.83 L 1682.73 923.964 C 1683.773 917.875 1681.755 911.665 1677.334 907.351 L 1598.237 830.253 C 1587.099 819.392 1593.246 800.474 1608.64 798.236 L 1717.945 782.355 C 1724.057 781.468 1729.346 777.626 1732.076 772.084 L 1780.959 673.04 C 1787.842 659.089 1807.741 659.089 1814.624 673.04 Z " fill="rgb(249,166,65)"/><path d=" M 1913.029 1054.814 C 1913.024 1054.814 1913.019 1054.814 1913.019 1054.814 C 1913.019 1054.814 1913.024 1054.814 1913.029 1054.814 L 1913.029 1054.814 Z  M 1682.555 1054.814 C 1682.54 1054.814 1682.53 1054.814 1682.52 1054.814 C 1682.53 1054.814 1682.54 1054.814 1682.555 1054.814 L 1682.555 1054.814 Z  M 1682.564 1054.814 C 1685.445 1054.81 1688.419 1054.122 1691.29 1052.616 L 1789.061 1001.218 C 1791.791 999.78 1794.794 999.058 1797.792 999.058 C 1800.794 999.058 1803.792 999.78 1806.527 1001.218 L 1904.289 1052.616 L 1904.289 1052.616 L 1904.289 1052.616 L 1806.527 1001.218 C 1803.792 999.78 1800.794 999.058 1797.792 999.058 C 1794.794 999.058 1791.791 999.78 1789.061 1001.218 L 1691.29 1052.616 C 1688.419 1054.127 1685.45 1054.81 1682.564 1054.814 Z  M 1913.092 1054.814 C 1923.763 1054.775 1933.181 1045.363 1931.645 1033.624 C 1933.181 1045.363 1923.763 1054.775 1913.092 1054.814 Z  M 1931.631 1033.507 C 1931.626 1033.493 1931.626 1033.478 1931.621 1033.463 C 1931.626 1033.478 1931.626 1033.493 1931.631 1033.507 Z  M 1664.002 1033.19 C 1664.006 1033.171 1664.006 1033.156 1664.006 1033.142 C 1664.006 1033.156 1664.006 1033.171 1664.002 1033.19 Z  M 1931.577 1033.142 C 1931.567 1033.103 1931.562 1033.059 1931.557 1033.02 C 1931.562 1033.059 1931.567 1033.103 1931.577 1033.142 Z  M 1664.06 1032.83 L 1669.276 1002.387 L 1669.276 1002.387 L 1664.06 1032.83 Z " fill="rgb(43,75,96)"/><path d=" M 1913.029 1054.814 C 1913.024 1054.814 1913.019 1054.814 1913.019 1054.814 C 1910.133 1054.81 1907.16 1054.122 1904.289 1052.616 L 1904.289 1052.616 L 1806.527 1001.218 C 1803.792 999.78 1800.794 999.058 1797.792 999.058 C 1794.794 999.058 1791.791 999.78 1789.061 1001.218 L 1691.29 1052.616 C 1688.419 1054.122 1685.445 1054.81 1682.564 1054.814 C 1682.559 1054.814 1682.555 1054.814 1682.555 1054.814 C 1682.54 1054.814 1682.53 1054.814 1682.52 1054.814 C 1671.708 1054.79 1662.169 1045.143 1664.002 1033.19 C 1664.006 1033.171 1664.006 1033.156 1664.006 1033.142 C 1664.026 1033.039 1664.041 1032.932 1664.06 1032.83 L 1664.06 1032.83 L 1669.281 1002.387 C 1724.462 980.949 1778.79 957.038 1826.347 922.111 C 1872.155 888.462 1911.41 842.796 1930.919 790.096 L 1986.943 798.236 C 1996.927 799.689 2003.02 808.151 2003.035 816.887 C 2003.044 821.62 2001.26 826.436 1997.346 830.253 L 1918.254 907.351 C 1914.589 910.924 1912.575 915.794 1912.585 920.825 C 1912.585 921.868 1912.673 922.916 1912.853 923.964 L 1931.523 1032.83 C 1931.533 1032.893 1931.548 1032.956 1931.557 1033.02 C 1931.562 1033.059 1931.567 1033.103 1931.577 1033.142 C 1931.592 1033.249 1931.606 1033.356 1931.621 1033.463 C 1931.626 1033.478 1931.626 1033.493 1931.631 1033.507 C 1931.635 1033.546 1931.64 1033.585 1931.645 1033.624 C 1933.181 1045.363 1923.763 1054.775 1913.092 1054.814 C 1913.073 1054.814 1913.048 1054.814 1913.029 1054.814 Z " fill="rgb(247,156,61)"/><path d=" M 1773.847 853.135 C 1786.185 842.225 1799.751 830.473 1813.454 821.337 C 1818.314 818.101 1823.584 814.284 1828.468 811.091 C 1830.101 816.239 1831.7 822.4 1830.252 827.606 C 1828.117 835.264 1820.074 839.754 1816.51 846.861 C 1803.661 848.723 1786.697 851.273 1773.847 853.135 Z " fill="rgb(243,134,114)"/><path d=" M 1754.393 927.576 C 1784.567 928.551 1810.505 914.78 1831.978 893.556 C 1825.275 870.864 1809.647 854.573 1790.129 841.197 C 1772.585 852.755 1757.195 866.569 1745.038 883.704 C 1744.156 899.235 1747.027 913.878 1754.393 927.576 Z " fill="rgb(245,151,127)"/><path d=" M 1790.129 841.197 C 1804.348 834.148 1818.568 827.094 1832.792 820.046 C 1847.572 820.041 1861.859 819.197 1876.644 819.193 C 1877.341 822.23 1873.846 824.759 1871.867 827.168 C 1869.893 829.576 1867.134 831.228 1864.268 832.457 C 1857.087 835.542 1848.888 836.205 1841.298 834.304 C 1827.591 845.984 1811.675 855.173 1794.345 860.086 L 1790.129 841.197 Z " fill="rgb(245,151,127)"/><path d=" M 1801.808 851.999 C 1816.033 844.95 1830.252 837.902 1844.471 830.853 C 1859.256 830.843 1873.544 830.005 1888.324 830 C 1889.016 833.037 1885.526 835.567 1883.547 837.975 C 1881.573 840.383 1878.814 842.03 1875.952 843.264 C 1868.767 846.349 1860.568 847.007 1852.983 845.111 C 1839.265 856.791 1823.354 865.975 1806.025 870.888 L 1801.808 851.999 Z " fill="rgb(245,151,127)"/><path d=" M 1799.425 872.351 C 1813.649 865.297 1827.868 858.248 1842.083 851.2 C 1856.873 851.195 1871.155 850.351 1885.94 850.351 C 1886.632 853.388 1883.142 855.913 1881.163 858.322 C 1879.189 860.73 1876.425 862.382 1873.568 863.611 C 1866.383 866.701 1858.179 867.359 1850.599 865.458 C 1836.882 877.138 1820.966 886.327 1803.641 891.24 L 1799.425 872.351 Z " fill="rgb(245,151,127)"/><path d=" M 1784.04 897.475 C 1798.26 890.426 1812.479 883.372 1826.703 876.324 C 1841.483 876.319 1855.771 875.476 1870.556 875.471 C 1871.253 878.508 1867.758 881.038 1865.779 883.446 C 1863.804 885.854 1861.045 887.506 1858.179 888.735 C 1850.999 891.82 1842.795 892.483 1835.21 890.582 C 1821.502 902.262 1805.581 911.451 1788.257 916.364 L 1784.04 897.475 Z " fill="rgb(245,151,127)"/><path d=" M 1519.419 1019.727 C 1559.572 1040.99 1555.628 1059.27 1555.628 1059.27 C 1590.706 1054.629 1690.222 1039.83 1758.404 932.797 C 1760.091 930.14 1762.246 927.81 1764.152 925.309 C 1765.658 923.335 1768.251 920.971 1768.929 918.533 C 1769.436 916.71 1768.378 915.102 1767.608 913.517 C 1764.81 907.736 1761.612 902.286 1757.512 897.324 C 1755.353 894.711 1753.003 892.254 1750.507 889.958 C 1749.732 889.246 1744.507 883.879 1743.732 884.367 C 1684.275 921.79 1630.41 957.141 1555.828 971.672 C 1543.139 974.144 1507.998 1013.677 1519.419 1019.727 Z " fill="rgb(245,151,127)"/><path d=" M 1549.169 1066.772 C 1496.454 1063.501 1444.13 1054.078 1393.584 1038.772 C 1359.159 1028.345 1324.569 1014.574 1298.709 989.577 C 1271.05 962.839 1251.766 912.196 1270.767 875.768 C 1281.233 855.704 1303.973 850.79 1324.691 856.143 C 1357.419 864.595 1383.328 887.75 1410.733 906.215 C 1432.986 921.205 1457.598 934.722 1482.835 945.105 C 1496.025 950.536 1509.533 955.206 1523.289 958.983 C 1538.026 963.034 1551.426 962.761 1566.581 963.41 C 1587.269 995.997 1573.684 1036.963 1549.169 1066.772 Z " fill="rgb(206,66,80)"/><path d=" M 1344.258 819.193 C 1356.02 784.28 1366.832 747.93 1378.985 719.608 L 1434.907 780.917 C 1429.433 804.881 1431.275 835.372 1447.328 854.056 C 1454.03 861.856 1440.717 873.974 1431.421 878.381 C 1422.135 882.792 1411.352 882.5 1401.125 881.437 C 1373.613 878.576 1342.186 825.354 1344.258 819.193 Z " fill="rgb(245,151,127)"/><path d=" M 1418.674 806.826 C 1423.286 806.036 1427.8 804.759 1432.182 803.111 C 1432.362 795.463 1433.308 787.907 1434.907 780.917 L 1378.985 719.608 C 1369.455 741.812 1360.749 768.954 1351.769 796.467 C 1373.496 803.979 1396.173 810.667 1418.674 806.826 Z " fill="rgb(243,134,114)"/><path d=" M 1495.348 721.236 C 1511.181 698.501 1515.378 668.083 1506.301 641.906 C 1497.215 615.729 1475.084 594.446 1448.571 586.398 C 1435.199 582.342 1400.57 576.853 1380.515 599.647 C 1360.636 622.246 1398.42 650.51 1413.746 676.414 C 1429.077 702.318 1457.399 720.066 1487.397 722.567 L 1495.348 721.236 Z " fill="rgb(214,117,74)"/><path d=" M 1367.739 673.82 C 1365.984 710.644 1394.408 741.924 1431.231 743.684 C 1468.059 745.444 1499.335 717.015 1501.095 680.191 C 1502.855 643.368 1474.431 612.088 1437.603 610.328 C 1400.779 608.568 1369.499 636.992 1367.739 673.82 Z " fill="rgb(245,151,127)"/><path d=" M 1388.695 756.695 C 1386.731 754.457 1383.094 738.873 1383.484 727.525 L 1380.627 678.115 L 1443.023 681.098 C 1444.373 681.064 1445.734 681.079 1447.103 681.142 C 1448.473 681.21 1449.833 681.327 1451.174 681.488 L 1498.687 694.318 C 1498.687 694.318 1500.622 732.419 1491.019 762.008 C 1489.269 767.409 1481.47 784.578 1477.385 788.521 C 1472.422 793.303 1462.385 793.986 1455.517 793.488 C 1436.472 792.119 1401.291 771.046 1388.695 756.695 Z " fill="rgb(245,151,127)"/><path d=" M 1506.14 679.382 C 1505.185 676.16 1503.596 672.202 1500.452 670.486 C 1498.273 669.297 1495.163 669.57 1492.813 670.023 C 1489.552 670.657 1486.534 671.958 1483.761 673.762 C 1482.308 674.707 1480.885 675.712 1479.583 676.862 C 1478.862 677.496 1478.126 678.169 1477.575 678.968 C 1476.785 680.118 1476.673 681.415 1476.668 682.785 C 1476.663 683.716 1477.121 685.325 1478.179 685.636 L 1478.672 685.792 C 1479.393 686.026 1480.095 685.856 1480.651 685.344 C 1482.586 683.594 1484.38 681.815 1486.608 680.416 C 1488.947 678.944 1491.351 677.579 1493.871 676.433 C 1495.518 675.682 1497.878 674.542 1499.691 675.385 C 1500.7 675.858 1501.475 676.799 1502.143 677.662 C 1502.582 678.222 1502.957 678.856 1503.425 679.397 C 1503.893 679.933 1504.512 680.274 1505.117 680.645 C 1505.877 681.108 1506.33 680.011 1506.14 679.382 Z " fill="rgb(214,117,74)"/><path d=" M 1410.187 682.205 C 1412.245 680.767 1414.477 679.68 1416.612 678.378 C 1419.43 676.667 1421.199 675.751 1424.436 676.326 C 1428.463 677.047 1432.348 678.437 1436.043 680.172 C 1437.783 680.991 1439.509 681.878 1441.132 682.912 C 1442.565 683.823 1444.247 685.5 1446.002 685.476 C 1448.215 685.442 1448.171 682.034 1447.683 680.65 C 1447.844 683.38 1447.951 683.906 1448.01 682.244 C 1448 681.693 1447.888 681.162 1447.683 680.65 C 1447.425 679.904 1447.103 679.29 1446.552 678.71 C 1445.938 678.052 1445.275 677.481 1444.534 676.974 C 1442.609 675.673 1440.571 674.522 1438.49 673.499 C 1434.41 671.5 1429.847 669.628 1425.294 669.165 C 1421.385 668.77 1418.655 670.072 1415.613 672.377 C 1413.127 674.254 1410.987 676.594 1408.779 678.783 C 1407.682 679.875 1408.335 683.497 1410.187 682.205 Z " fill="rgb(214,117,74)"/><path d=" M 1480.86 724.249 C 1480.358 723.03 1479.739 721.607 1479.071 720.057 C 1477.55 716.552 1475.664 712.199 1474.28 708.182 C 1471.935 701.382 1471.915 696.595 1478.135 687.825 L 1479.125 688.527 C 1473.178 696.921 1473.183 701.255 1475.435 707.787 C 1476.8 711.755 1478.677 716.089 1480.188 719.569 C 1480.865 721.129 1481.484 722.562 1481.982 723.786 L 1480.86 724.249 Z " fill="rgb(52,46,46)"/><path d=" M 1474.007 702.844 L 1472.89 702.347 C 1475.04 697.492 1478.998 693.977 1483.478 692.948 C 1488.011 691.925 1492.759 693.441 1496.235 697.033 L 1495.362 697.882 C 1492.179 694.596 1487.841 693.192 1483.756 694.138 C 1479.642 695.079 1476 698.335 1474.007 702.844 Z " fill="rgb(52,46,46)"/><path d=" M 1418.796 705.637 L 1417.69 705.121 C 1420.244 699.695 1425.304 695.834 1430.89 695.045 C 1436.496 694.235 1442.302 696.575 1446.06 701.109 L 1445.129 701.884 C 1441.624 697.672 1436.223 695.517 1431.061 696.249 C 1425.879 696.985 1421.175 700.582 1418.796 705.637 Z " fill="rgb(52,46,46)"/><path d=" M 1478.379 699.744 C 1478.379 703.332 1481.289 706.242 1484.877 706.242 C 1488.47 706.242 1491.375 703.332 1491.375 699.744 C 1491.375 696.156 1488.47 693.246 1484.877 693.246 C 1481.289 693.246 1478.379 696.156 1478.379 699.744 Z " fill="rgb(61,48,46)"/><path d=" M 1486.637 697.579 C 1486.637 698.91 1487.714 699.988 1489.045 699.988 C 1490.376 699.988 1491.453 698.91 1491.453 697.579 C 1491.453 696.249 1490.376 695.171 1489.045 695.171 C 1487.714 695.171 1486.637 696.249 1486.637 697.579 Z " fill="rgb(254,247,237)"/><path d=" M 1426.893 701.996 C 1426.893 705.589 1429.803 708.494 1433.396 708.494 C 1436.983 708.494 1439.894 705.589 1439.894 701.996 C 1439.894 698.408 1436.983 695.498 1433.396 695.498 C 1429.803 695.498 1426.893 698.408 1426.893 701.996 Z " fill="rgb(61,48,46)"/><path d=" M 1435.151 699.832 C 1435.151 701.162 1436.228 702.24 1437.559 702.24 C 1438.889 702.24 1439.967 701.162 1439.967 699.832 C 1439.967 698.501 1438.889 697.423 1437.559 697.423 C 1436.228 697.423 1435.151 698.501 1435.151 699.832 Z " fill="rgb(254,247,237)"/><path d=" M 1442.945 752 C 1456.877 747.574 1475.995 746.955 1481.026 750.523 C 1478.379 758.834 1472.837 764.036 1464.608 765.069 C 1456.375 766.103 1445.953 762.812 1442.945 752 Z " fill="rgb(206,66,80)"/><path d=" M 1460.007 754.808 C 1452.27 754.808 1444.237 753.477 1436.228 750.801 L 1436.618 749.646 C 1453.479 755.281 1470.443 754.871 1484.375 748.49 L 1484.877 749.597 C 1477.297 753.068 1468.844 754.808 1460.007 754.808 Z " fill="rgb(52,46,46)"/><path d=" M 1465.091 728.787 C 1470.507 730.703 1476.717 730.259 1481.811 727.593 C 1481.723 732.233 1478.218 736.859 1473.724 738.01 C 1469.839 736.177 1465.52 733.062 1465.091 728.787 Z " fill="rgb(243,134,114)"/><path d=" M 1281.467 821.259 C 1380.944 823.999 1385.141 772.664 1388.008 734.33 C 1388.354 729.684 1389.962 726.018 1392.327 723.259 C 1393.053 719.647 1393.877 716.113 1394.798 712.647 C 1395.086 711.56 1404.625 705.262 1406.19 702.756 C 1409.373 697.653 1411.543 691.618 1413.712 686.031 C 1420.02 669.765 1422.472 647.551 1434.668 634.725 C 1439.645 629.49 1446.197 626.049 1452.816 623.129 C 1465.091 617.718 1479.154 625.381 1481.811 630.007 C 1465.091 593.413 1413.892 572.588 1380.74 581.787 C 1342.693 592.35 1317.613 627.321 1307.893 690.999 C 1297.183 761.16 1239.126 773.58 1281.467 821.259 Z " fill="rgb(214,117,74)"/><path d=" M 1394.813 738.01 C 1382.056 736.747 1370.386 729.265 1363.361 717.317 C 1360.51 712.467 1358.262 705.974 1360.334 699.949 C 1362.187 694.557 1367.212 691.008 1372.209 690.653 C 1377.254 690.297 1381.958 692.788 1385.605 696.332 C 1389.168 699.793 1391.776 704.15 1394.272 708.323 C 1399.38 716.868 1394.574 729.002 1394.813 738.01 Z " fill="rgb(245,151,127)"/><path d=" M 1388.334 729.494 C 1381.676 728.339 1375.841 723.839 1372.745 717.288 C 1371.366 714.368 1370.508 710.619 1371.955 707.319 C 1373.608 703.546 1378.039 701.699 1381.344 703.088 C 1384.625 704.458 1386.462 708.45 1386.219 712.408 C 1386.072 714.772 1385.283 717.146 1385.551 719.345 C 1385.814 721.495 1387.779 723.42 1389.758 722.426 C 1390.757 724.751 1390.694 728.202 1388.334 729.494 Z " fill="rgb(243,134,114)"/><path d=" M 1314.361 703.336 C 1312.982 703.336 1311.607 703.307 1310.228 703.244 L 1310.276 702.186 C 1336.595 703.4 1363.308 692.827 1383.557 673.167 L 1384.293 673.923 C 1364.897 692.754 1339.617 703.336 1314.361 703.336 Z " fill="rgb(185,92,63)"/><path d=" M 1332.573 724.517 C 1323.491 724.517 1314.4 721.534 1306.469 715.64 L 1307.098 714.792 C 1321.313 725.355 1339.344 726.325 1354.143 717.307 L 1354.694 718.214 C 1347.782 722.426 1340.177 724.517 1332.573 724.517 Z " fill="rgb(185,92,63)"/><path d=" M 2445.508 1852.139 C 2442.9 1838.242 2430.046 1826.947 2415.919 1826.167 C 2398.77 1825.221 2382.8 1839.626 2379.978 1856.57 C 2378.038 1841.24 2384.76 1826.313 2387.943 1811.192 C 2391.126 1796.061 2389.157 1777.318 2375.732 1769.65 C 2363.141 1762.47 2346.289 1769.353 2337.598 1780.959 C 2328.911 1792.561 2326.337 1807.492 2324.022 1821.804 C 2328.029 1760.135 2327.107 1698.149 2321.253 1636.625 C 2320.224 1625.818 2318.196 1613.559 2309.086 1607.646 C 2300.282 1601.928 2287.944 1604.921 2280.086 1611.877 C 2272.223 1618.833 2267.866 1628.845 2264.063 1638.629 C 2239.817 1701.015 2231.081 1779.034 2230.389 1824.641 C 2220.752 1786.273 2211.358 1758.507 2201.726 1720.138 C 2197.407 1702.955 2189.515 1682.413 2171.937 1680.19 C 2161.934 1678.923 2152.039 1684.777 2145.979 1692.845 C 2139.925 1700.908 2137.059 1710.886 2134.88 1720.733 C 2124.638 1766.964 2126.997 1815.916 2141.626 1860.943 C 2131.697 1836.77 2121.767 1812.591 2111.837 1788.413 C 2109.2 1781.993 2105.739 1774.808 2099.056 1772.946 C 2091.271 1770.776 2083.311 1777.679 2081.283 1785.498 C 2079.26 1793.326 2081.473 1801.55 2083.671 1809.33 C 2084.51 1812.274 2085.343 1815.214 2086.177 1818.158 C 2078.1 1813.956 2068.648 1812.689 2060.648 1816.74 C 2049.744 1822.253 2044.908 1835.97 2046.561 1848.084 C 2048.213 1860.202 2050.504 1877.405 2058.011 1887.052 L 2427.316 1887.052 C 2440.2 1881.222 2448.106 1866.042 2445.508 1852.139 Z " fill="rgb(204,234,239)"/><path d=" M 2644.56 1314.712 C 2630.492 1242.333 2589.75 1151.84 2553.921 1086.68 C 2544.576 1069.692 2526.676 1048.473 2509.127 1037.617 C 2486.602 1023.685 2454.682 1022.281 2429.349 1034.102 C 2445.586 1051.792 2472.875 1077.53 2478.744 1100.051 C 2490.906 1146.726 2498.725 1240.583 2504.774 1291.533 C 2504.774 1291.533 2615.112 1327.898 2644.56 1314.712 Z " fill="rgb(147,68,61)"/><path d=" M 2581.648 1310.086 C 2574.355 1253.833 2553.575 1199.353 2521.543 1152.537 L 2522.552 1151.85 C 2554.686 1198.827 2575.54 1253.491 2582.857 1309.935 L 2581.648 1310.086 Z " fill="rgb(52,46,46)"/><path d=" M 3044.507 2054.394 C 3032.881 2052.742 3020.685 2055.413 3008.825 2058.065 C 2986.738 2050.251 2969.32 2045.386 2947.228 2037.567 C 2934.447 2033.048 2919.452 2028.714 2906.851 2035.958 C 2895.313 2042.602 2890.414 2056.115 2885.617 2068.155 C 2883.931 2072.382 2885.179 2074.224 2872.28 2075.643 L 2879.061 2123.795 L 2902.299 2120.504 C 2953.317 2116.288 2976.174 2106.183 3027.49 2091.115 C 3027.49 2091.115 3045.599 2085.806 3049.279 2087.912 C 3052.96 2090.008 3053.793 2093.123 3058.254 2092.894 C 3062.417 2092.68 3066.394 2089.711 3068.408 2085.992 C 3070.421 2082.272 3070.66 2077.958 3069.777 2074.102 C 3067.248 2063.032 3056.138 2056.042 3044.507 2054.394 Z " fill="rgb(245,151,127)"/><path d=" M 2742.405 1974.206 C 2730.774 1972.553 2718.577 1975.23 2706.722 1977.881 C 2684.63 1970.067 2667.213 1965.202 2645.126 1957.383 C 2632.344 1952.86 2617.35 1948.531 2604.749 1955.775 C 2593.206 1962.414 2588.312 1975.932 2583.51 1987.972 C 2581.823 1992.198 2583.071 1994.041 2570.178 1995.464 L 2576.954 2043.616 L 2600.191 2040.321 C 2651.214 2036.109 2674.067 2025.999 2725.387 2010.932 C 2725.387 2010.932 2743.497 2005.628 2747.172 2007.724 C 2750.852 2009.825 2751.686 2012.945 2756.146 2012.711 C 2760.314 2012.496 2764.287 2009.523 2766.3 2005.808 C 2768.313 2002.089 2768.552 1997.775 2767.67 1993.919 C 2765.14 1982.849 2754.036 1975.858 2742.405 1974.206 Z " fill="rgb(245,151,127)"/><path d=" M 2533.744 1802.944 C 2475.453 1858.54 2417.162 1974.601 2358.871 2030.206 C 2323.485 2063.948 2286.302 2098.754 2241.04 2111.033 C 2211.948 2118.925 2197.734 2113.183 2181.033 2101.474 C 2154.052 2082.555 2157.425 2040.643 2166.965 2019.019 C 2230.599 1874.792 2317.777 1707.108 2407.418 1583.73 C 2416.943 1570.613 2424.264 1567.537 2437.831 1575.034 C 2450.948 1582.278 2460.878 1595.025 2470.413 1607.436 C 2490.701 1633.832 2511.258 1660.697 2524.161 1692.328 C 2537.069 1723.96 2557.445 1780.336 2533.744 1802.944 Z " fill="rgb(45,53,57)"/><path d=" M 2556.007 2050.095 C 2458.192 2086.85 2313.921 2117.321 2210.73 2114.284 C 2197.046 2089.823 2179.585 2056.797 2187.502 2029.363 C 2234.659 1986.407 2294.379 1969.594 2355.215 1973.207 C 2416.051 1976.819 2518.57 1991.257 2556.007 2050.095 Z " fill="rgb(45,53,57)"/><path d=" M 2653.564 1796.398 C 2657.332 1714.903 2622.766 1653.921 2579.43 1605.379 C 2528.748 1582.01 2461.785 1548.35 2427.028 1595.605 C 2432.273 1738.272 2442.7 1948.131 2449.286 2110.004 C 2450.5 2139.842 2469.911 2166.565 2498.813 2174.082 C 2505.125 2175.725 2511.497 2176.388 2517.678 2175.837 C 2542.402 2173.624 2544.371 2176.553 2563.636 2159.16 C 2582.896 2141.763 2649.801 1877.892 2653.564 1796.398 Z " fill="rgb(45,57,64)"/><path d=" M 2879.061 2123.795 C 2765.389 2157.878 2576.339 2183.305 2507.909 2176.027 C 2496.951 2165.429 2492.3 2144.6 2495.264 2130.41 C 2503.093 2092.899 2539.882 2051.932 2578.777 2036.251 C 2667.374 2000.529 2791.873 2036.933 2872.28 2075.643 C 2874.216 2087.035 2879.061 2123.795 2879.061 2123.795 Z " fill="rgb(45,57,64)"/><path d=" M 2531.488 1656.597 C 2529.621 1656.597 2527.754 1656.504 2525.896 1656.3 C 2507.494 1654.325 2490.189 1642.392 2481.795 1625.891 L 2482.736 1625.419 C 2490.974 1641.602 2507.958 1653.311 2526.008 1655.247 C 2544.074 1657.167 2563.144 1649.343 2574.619 1635.275 L 2575.438 1635.943 C 2564.928 1648.837 2548.139 1656.597 2531.488 1656.597 Z " fill="rgb(52,46,46)"/><path d=" M 2606.465 1972.875 L 2605.446 1972.587 C 2634.104 1871.082 2623.867 1703.418 2557.362 1609.537 L 2558.23 1608.928 C 2624.911 1703.057 2635.191 1871.136 2606.465 1972.875 Z " fill="rgb(52,46,46)"/><path d=" M 2431.484 1346.622 C 2382.761 1383.713 2321.531 1405.05 2260.324 1403.207 C 2261.148 1403.582 2261.972 1403.958 2262.791 1404.328 C 2255.542 1390.094 2251.609 1375.09 2248.167 1359.491 C 2296.304 1327.07 2349.131 1301.629 2404.493 1284.197 C 2416.226 1287.273 2426.185 1298.265 2429.704 1309.877 C 2433.234 1321.483 2432.03 1334.508 2431.484 1346.622 Z " fill="rgb(243,134,114)"/><path d=" M 2368.016 1160.951 C 2377.682 1190.667 2391.848 1292.523 2392.906 1297.953 C 2412.965 1301.322 2447.083 1294.253 2474.517 1285.411 C 2470.496 1252.711 2447.614 1187.82 2436.11 1156.983 L 2368.016 1160.951 Z " fill="rgb(147,68,61)"/><path d=" M 2458.714 1316.852 C 2454.77 1280.887 2450.822 1244.931 2446.883 1208.971 L 2507.416 1150.733 C 2522.031 1198.105 2536.645 1245.472 2551.259 1292.844 L 2458.714 1316.852 Z " fill="rgb(243,134,114)"/><path d=" M 2579.43 1605.379 C 2579.43 1605.379 2652.823 1456.965 2666.779 1376.489 C 2671.668 1348.308 2670.572 1309.891 2648.86 1298.631 C 2574.638 1260.121 2482.643 1257.323 2403.401 1284.012 C 2386.115 1329.146 2360.382 1370.03 2327.156 1405.132 C 2324.061 1419.81 2325.596 1432.845 2332.138 1446.338 C 2338.675 1459.841 2349.799 1471.062 2363.234 1477.736 C 2367.879 1524.006 2375.362 1567.196 2388.904 1611.682 C 2427.028 1642.036 2515.562 1644.479 2579.43 1605.379 Z " fill="rgb(148,86,140)"/><path d=" M 2383.186 1184.437 C 2363.097 1165.352 2352.865 1136.407 2356.487 1108.938 C 2360.114 1081.469 2377.507 1056.165 2401.86 1042.945 C 2414.14 1036.276 2446.951 1023.929 2471.183 1042.218 C 2495.21 1060.352 2463.886 1095.645 2454.088 1124.103 C 2444.294 1152.561 2420.121 1175.653 2391.243 1184.139 L 2383.186 1184.437 Z " fill="rgb(147,68,61)"/><path d=" M 2498.632 1112.301 C 2507.772 1148.018 2486.221 1184.378 2450.51 1193.513 C 2414.793 1202.653 2378.433 1181.107 2369.293 1145.391 C 2360.158 1109.674 2381.704 1073.314 2417.42 1064.174 C 2453.137 1055.039 2489.497 1076.585 2498.632 1112.301 Z " fill="rgb(245,151,127)"/><path d=" M 2494.791 1197.696 C 2496.268 1195.107 2496.697 1179.114 2494.026 1168.073 L 2486.875 1119.102 L 2426.36 1134.588 C 2425.03 1134.822 2423.699 1135.11 2422.373 1135.451 C 2421.037 1135.792 2419.731 1136.178 2418.454 1136.607 L 2374.494 1158.747 C 2374.494 1158.747 2380.27 1196.453 2395.635 1223.502 C 2398.433 1228.44 2409.538 1243.688 2414.33 1246.725 C 2420.145 1250.41 2430.119 1249.06 2436.753 1247.193 C 2455.131 1242.016 2485.344 1214.289 2494.791 1197.696 Z " fill="rgb(245,151,127)"/><path d=" M 2368.971 1146.439 L 2370.126 1145.581 L 2371.072 1144.386 C 2371.667 1143.724 2372.359 1143.124 2373.1 1142.627 C 2374.713 1141.559 2376.429 1141.276 2378.335 1141.423 C 2380.324 1141.584 2382.128 1142.134 2384.068 1142.875 C 2385.204 1143.304 2386.325 1143.836 2387.363 1144.469 C 2388.333 1145.064 2389.469 1146.166 2390.644 1146.619 C 2391.312 1146.882 2392.077 1146.663 2392.584 1146.185 C 2394.622 1144.265 2393.944 1140.594 2391.877 1138.946 C 2390.605 1137.928 2389.103 1137.084 2387.646 1136.368 C 2385.018 1135.076 2382.094 1134.34 2379.149 1134.725 C 2376.532 1135.071 2374.002 1136.295 2371.945 1137.932 C 2370.877 1138.781 2369.985 1139.858 2369.254 1141.003 C 2368.313 1142.466 2367.952 1143.797 2367.869 1145.522 C 2367.835 1146.112 2368.352 1146.907 2368.971 1146.439 Z " fill="rgb(147,68,61)"/><path d=" M 2457.987 1128.139 C 2455.009 1125.838 2451.899 1123.859 2448.214 1122.938 C 2444.645 1122.041 2441.101 1121.822 2437.509 1122.67 C 2434.238 1123.44 2431.279 1124.868 2428.544 1126.813 C 2425.741 1128.812 2422.032 1131.966 2421.691 1135.617 C 2421.588 1136.709 2421.915 1139.834 2423.787 1139.561 C 2425.356 1139.327 2426.165 1138.059 2427.155 1136.943 C 2428.193 1135.768 2429.339 1134.696 2430.582 1133.735 C 2432.893 1131.956 2435.661 1130.65 2438.489 1129.943 C 2444.514 1128.437 2451.499 1129.017 2457.071 1131.82 C 2458.743 1132.663 2459.016 1128.934 2457.987 1128.139 Z " fill="rgb(147,68,61)"/><path d=" M 2397.99 1184.466 L 2396.786 1184.247 C 2397.03 1182.95 2397.351 1181.429 2397.697 1179.772 C 2398.477 1176.052 2399.443 1171.421 2399.989 1167.254 C 2400.876 1160.395 2400.008 1156.149 2392.491 1149.134 L 2393.32 1148.242 C 2401.178 1155.579 2402.119 1160.268 2401.197 1167.41 C 2400.647 1171.626 2399.672 1176.281 2398.892 1180.02 C 2398.546 1181.673 2398.229 1183.184 2397.99 1184.466 Z " fill="rgb(52,46,46)"/><path d=" M 2400.388 1162.121 C 2397.576 1158.167 2393.247 1155.657 2389.089 1155.559 C 2384.858 1155.398 2380.929 1157.709 2378.472 1161.565 L 2377.443 1160.907 C 2380.075 1156.778 2384.316 1154.336 2388.826 1154.336 L 2389.118 1154.341 C 2393.72 1154.448 2398.302 1157.09 2401.378 1161.414 L 2400.388 1162.121 Z " fill="rgb(52,46,46)"/><path d=" M 2428.486 1155.369 L 2427.413 1154.799 C 2430.187 1149.598 2435.413 1146.151 2441.053 1145.8 C 2446.673 1145.459 2452.416 1148.213 2456.008 1153.015 L 2455.038 1153.751 C 2451.679 1149.271 2446.269 1146.668 2441.126 1147.019 C 2435.91 1147.341 2431.065 1150.543 2428.486 1155.369 Z " fill="rgb(52,46,46)"/><path d=" M 2395.479 1159.971 C 2396.201 1163.485 2393.939 1166.922 2390.424 1167.644 C 2386.905 1168.365 2383.473 1166.103 2382.752 1162.589 C 2382.025 1159.074 2384.292 1155.632 2387.807 1154.916 C 2391.321 1154.189 2394.758 1156.451 2395.479 1159.971 Z " fill="rgb(61,48,46)"/><path d=" M 2386.959 1159.513 C 2387.227 1160.814 2386.388 1162.086 2385.082 1162.355 C 2383.78 1162.623 2382.508 1161.784 2382.235 1160.483 C 2381.967 1159.181 2382.81 1157.904 2384.112 1157.636 C 2385.413 1157.368 2386.69 1158.206 2386.959 1159.513 Z " fill="rgb(254,247,237)"/><path d=" M 2446.366 1151.811 C 2447.088 1155.325 2444.826 1158.762 2441.306 1159.483 C 2437.796 1160.205 2434.355 1157.943 2433.633 1154.428 C 2432.912 1150.914 2435.174 1147.477 2438.693 1146.756 C 2442.208 1146.029 2445.645 1148.296 2446.366 1151.811 Z " fill="rgb(61,48,46)"/><path d=" M 2437.84 1151.352 C 2438.108 1152.654 2437.27 1153.926 2435.968 1154.199 C 2434.667 1154.462 2433.39 1153.624 2433.126 1152.322 C 2432.854 1151.021 2433.697 1149.744 2434.998 1149.476 C 2436.3 1149.212 2437.577 1150.046 2437.84 1151.352 Z " fill="rgb(254,247,237)"/><path d=" M 2447.824 1198.993 C 2431.864 1200.016 2407.325 1205.729 2403.113 1210.243 C 2407.374 1217.848 2417.289 1220.968 2425.468 1219.598 C 2435.227 1217.955 2447.058 1210.194 2447.824 1198.993 Z " fill="rgb(241,114,95)"/><path d=" M 2407.184 1210.94 C 2404.322 1210.94 2401.626 1210.677 2399.15 1210.107 L 2399.423 1208.922 C 2414.418 1212.383 2438.152 1204.174 2453.839 1195.088 L 2454.448 1196.146 C 2441.121 1203.862 2422.037 1210.94 2407.184 1210.94 Z " fill="rgb(52,46,46)"/><path d=" M 2414.349 1185.743 C 2409.421 1188.712 2403.25 1189.526 2397.722 1187.937 C 2398.75 1192.465 2403.108 1196.292 2407.749 1196.516 C 2411.186 1193.937 2414.783 1190.018 2414.349 1185.743 Z " fill="rgb(243,134,114)"/><path d=" M 2491.325 1182.921 C 2501.742 1174.97 2508.26 1162.13 2508.523 1149.027 C 2508.625 1144.07 2507.543 1138.527 2503.487 1135.671 C 2500.051 1133.248 2495.176 1133.496 2491.54 1135.617 C 2487.908 1137.737 2485.402 1141.432 2483.925 1145.371 C 2482.448 1149.315 2481.888 1153.526 2481.342 1157.699 C 2480.167 1166.678 2488.059 1174.473 2491.325 1182.921 Z " fill="rgb(245,151,127)"/><path d=" M 2493.358 1171.709 C 2498.384 1167.263 2501.269 1160.502 2501.001 1153.799 C 2500.889 1150.923 2500.041 1147.799 2497.648 1146.205 C 2495.006 1144.445 2491.091 1145.337 2489.146 1147.848 C 2487.196 1150.353 2487.167 1154.053 2488.693 1156.836 C 2489.629 1158.543 2491.096 1159.976 2491.696 1161.833 C 2492.295 1163.69 2491.457 1166.254 2489.517 1166.43 C 2489.57 1168.872 2490.916 1171.792 2493.358 1171.709 Z " fill="rgb(243,134,114)"/><path d=" M 2497.141 1078.808 C 2492.207 1066.665 2485.597 1054.049 2473.845 1048.253 C 2465.134 1043.963 2454.965 1044.134 2445.269 1044.636 C 2423.582 1045.762 2400.725 1048.516 2383.4 1061.61 C 2372.622 1069.76 2364.725 1081.64 2361.386 1094.728 C 2358.042 1107.817 2361.24 1124.473 2366.792 1136.792 C 2367.353 1118.146 2370.234 1101.699 2380.841 1090.005 C 2384.667 1085.783 2389.839 1082.186 2395.05 1081.235 C 2402.933 1099.569 2416.09 1115.611 2432.561 1126.872 C 2448.477 1137.752 2479.294 1151.674 2514.855 1146.439 C 2516.868 1146.941 2516.454 1137.411 2515.533 1128.661 C 2514.611 1119.906 2500.455 1086.963 2497.141 1078.808 Z " fill="rgb(147,68,61)"/><path d=" M 2198.48 1220.709 L 2260.836 1291.172 C 2264.327 1295.116 2269.528 1297.085 2274.749 1296.447 L 2368.147 1285.026 C 2381.304 1283.417 2390.59 1297.592 2383.868 1309.009 L 2336.121 1390.089 C 2333.449 1394.623 2333.186 1400.18 2335.409 1404.952 L 2375.128 1490.249 C 2380.724 1502.26 2370.117 1515.475 2357.174 1512.609 L 2265.311 1492.257 C 2260.173 1491.122 2254.801 1492.584 2250.95 1496.172 L 2182.106 1560.308 C 2172.41 1569.345 2156.567 1563.335 2155.29 1550.144 L 2146.262 1456.482 C 2145.755 1451.247 2142.704 1446.591 2138.107 1444.042 L 2055.832 1398.381 C 2044.24 1391.951 2045.059 1375.022 2057.212 1369.737 L 2143.493 1332.207 C 2148.324 1330.111 2151.809 1325.768 2152.814 1320.601 L 2170.811 1228.245 C 2173.346 1215.24 2189.695 1210.784 2198.48 1220.709 Z " fill="rgb(249,166,65)"/><path d=" M 2171.294 1564.622 C 2171.284 1564.622 2171.274 1564.622 2171.264 1564.622 C 2171.274 1564.622 2171.284 1564.622 2171.294 1564.622 L 2171.294 1564.622 Z  M 2171.318 1564.622 C 2175.042 1564.617 2178.84 1563.301 2181.998 1560.41 C 2178.84 1563.301 2175.047 1564.617 2171.318 1564.622 Z " fill="rgb(43,75,96)"/><path d=" M 2360.747 1513.004 C 2360.743 1513.004 2360.743 1513.004 2360.738 1513.004 C 2360.743 1513.004 2360.743 1513.004 2360.747 1513.004 L 2360.747 1513.004 Z  M 2360.777 1513.004 C 2363.097 1512.999 2365.281 1512.492 2367.25 1511.585 L 2367.25 1511.585 C 2365.281 1512.492 2363.097 1512.999 2360.777 1513.004 Z  M 2357.413 1512.658 C 2357.335 1512.643 2357.257 1512.629 2357.174 1512.609 L 2282.143 1495.986 L 2357.174 1512.609 C 2357.257 1512.629 2357.335 1512.643 2357.413 1512.658 Z " fill="rgb(231,225,211)"/><path d=" M 2282.143 1495.986 L 2265.311 1492.257 L 2265.311 1492.257 L 2265.311 1492.257 L 2282.143 1495.986 Z  M 2256.005 1492.989 L 2256.005 1492.989 C 2257.848 1492.262 2259.813 1491.887 2261.806 1491.877 C 2259.813 1491.887 2257.848 1492.262 2256.005 1492.989 Z " fill="rgb(113,194,195)"/><path d=" M 2251.462 1495.713 C 2252.832 1494.544 2254.368 1493.632 2256.005 1492.989 L 2256.005 1492.989 C 2254.368 1493.632 2252.832 1494.544 2251.462 1495.713 Z " fill="rgb(43,71,93)"/><path d=" M 2272.808 1296.564 C 2268.992 1296.564 2265.297 1295.194 2262.396 1292.713 C 2262.386 1292.649 2262.372 1292.586 2262.357 1292.518 C 2265.292 1295.087 2269.016 1296.559 2272.896 1296.559 C 2273.51 1296.559 2274.129 1296.525 2274.749 1296.447 C 2274.1 1296.525 2273.452 1296.564 2272.808 1296.564 Z " fill="rgb(113,194,195)"/><path d=" M 2368.22 1285.016 C 2368.888 1284.938 2369.541 1284.899 2370.185 1284.899 C 2369.541 1284.899 2368.888 1284.938 2368.22 1285.016 Z  M 2370.224 1284.899 C 2370.214 1284.899 2370.204 1284.899 2370.19 1284.899 L 2370.19 1284.899 C 2370.204 1284.899 2370.214 1284.899 2370.224 1284.899 Z " fill="rgb(231,225,211)"/><path d=" M 2367.25 1511.585 L 2367.25 1511.585 C 2374.63 1508.202 2378.94 1499.306 2375.401 1490.863 C 2378.94 1499.311 2374.63 1508.202 2367.25 1511.585 Z  M 2375.337 1490.717 C 2375.332 1490.707 2375.328 1490.697 2375.323 1490.688 C 2375.328 1490.697 2375.332 1490.707 2375.337 1490.717 Z  M 2375.284 1490.595 C 2375.274 1490.571 2375.264 1490.551 2375.254 1490.532 C 2375.264 1490.551 2375.274 1490.571 2375.284 1490.595 Z  M 2375.186 1490.381 C 2375.167 1490.337 2375.147 1490.293 2375.128 1490.249 C 2375.147 1490.293 2375.167 1490.337 2375.186 1490.381 Z " fill="rgb(149,82,120)"/><path d=" M 2171.294 1564.622 C 2171.284 1564.622 2171.274 1564.622 2171.264 1564.622 C 2163.66 1564.607 2156.348 1559.143 2155.329 1550.505 C 2155.314 1550.383 2155.305 1550.266 2155.29 1550.144 L 2152.536 1521.569 C 2219.543 1491.999 2266.852 1420.283 2266.852 1336.448 C 2266.852 1321.42 2265.282 1306.796 2262.396 1292.713 C 2265.297 1295.194 2268.992 1296.564 2272.808 1296.564 C 2273.452 1296.564 2274.1 1296.525 2274.749 1296.447 L 2274.749 1296.447 L 2368.147 1285.026 C 2368.172 1285.021 2368.196 1285.021 2368.22 1285.016 C 2368.888 1284.938 2369.541 1284.899 2370.185 1284.899 C 2370.19 1284.899 2370.19 1284.899 2370.19 1284.899 C 2370.204 1284.899 2370.214 1284.899 2370.224 1284.899 C 2382.04 1284.923 2389.952 1297.744 2384.185 1308.443 C 2384.087 1308.634 2383.98 1308.824 2383.868 1309.009 L 2336.121 1390.089 C 2335.321 1391.449 2334.736 1392.902 2334.371 1394.398 C 2334.068 1395.632 2333.912 1396.889 2333.912 1398.152 C 2333.903 1400.467 2334.4 1402.793 2335.409 1404.952 L 2375.128 1490.249 L 2375.128 1490.249 C 2375.147 1490.293 2375.167 1490.337 2375.186 1490.381 C 2375.211 1490.429 2375.235 1490.478 2375.254 1490.532 C 2375.264 1490.551 2375.274 1490.571 2375.284 1490.595 C 2375.298 1490.624 2375.313 1490.654 2375.323 1490.688 C 2375.328 1490.697 2375.332 1490.707 2375.337 1490.717 C 2375.357 1490.766 2375.381 1490.814 2375.401 1490.863 C 2378.94 1499.306 2374.63 1508.202 2367.25 1511.585 C 2365.281 1512.492 2363.097 1512.999 2360.777 1513.004 C 2360.767 1513.004 2360.757 1513.004 2360.747 1513.004 C 2360.743 1513.004 2360.743 1513.004 2360.738 1513.004 C 2359.656 1513.004 2358.544 1512.892 2357.413 1512.658 C 2357.335 1512.643 2357.257 1512.629 2357.174 1512.609 L 2282.143 1495.986 L 2265.311 1492.257 L 2265.311 1492.257 C 2264.166 1492.004 2263.015 1491.882 2261.865 1491.877 C 2261.86 1491.877 2261.855 1491.877 2261.85 1491.877 L 2261.85 1491.877 L 2261.85 1491.877 C 2261.836 1491.877 2261.821 1491.877 2261.806 1491.877 C 2259.813 1491.887 2257.848 1492.262 2256.005 1492.989 L 2256.005 1492.989 C 2254.368 1493.632 2252.832 1494.544 2251.462 1495.713 C 2251.453 1495.723 2251.443 1495.733 2251.433 1495.743 C 2251.267 1495.884 2251.111 1496.025 2250.95 1496.172 L 2241.289 1505.175 L 2182.106 1560.308 L 2182.106 1560.308 C 2182.071 1560.342 2182.032 1560.376 2181.998 1560.41 C 2178.84 1563.301 2175.042 1564.617 2171.318 1564.622 C 2171.308 1564.622 2171.303 1564.622 2171.294 1564.622 Z " fill="rgb(247,156,61)"/><path d=" M 2213.186 1393.75 C 2200.698 1386.75 2187 1379.263 2173.677 1374.027 C 2168.949 1372.17 2163.777 1369.898 2159.034 1368.08 C 2158.59 1372.76 2158.371 1378.288 2160.564 1382.451 C 2163.782 1388.563 2171.45 1390.894 2175.783 1396.28 C 2187.044 1395.495 2201.926 1394.535 2213.186 1393.75 Z " fill="rgb(243,134,114)"/><path d=" M 2243.434 1453.421 C 2217.968 1459.812 2193.39 1452.885 2171.24 1438.802 C 2172.751 1418.284 2183.037 1401.569 2197.154 1386.604 C 2214.191 1393.199 2229.814 1402.1 2243.297 1414.419 C 2246.909 1427.454 2247.168 1440.42 2243.434 1453.421 Z " fill="rgb(245,151,127)"/><path d=" M 2197.154 1386.604 C 2183.773 1383.235 2170.392 1379.862 2157.006 1376.489 C 2144.444 1379.209 2132.15 1381.125 2119.588 1383.845 C 2119.554 1386.555 2122.99 1388.056 2125.116 1389.738 C 2127.241 1391.425 2129.888 1392.317 2132.545 1392.834 C 2139.218 1394.135 2146.311 1393.185 2152.404 1390.177 C 2166.209 1397.572 2181.423 1402.446 2197.051 1403.431 L 2197.154 1386.604 Z " fill="rgb(245,151,127)"/><path d=" M 2189.218 1397.937 C 2175.837 1394.564 2162.456 1391.196 2149.075 1387.822 C 2136.513 1390.543 2124.214 1392.458 2111.652 1395.173 C 2111.623 1397.884 2115.059 1399.39 2117.18 1401.072 C 2119.305 1402.754 2121.952 1403.646 2124.614 1404.167 C 2131.287 1405.464 2138.375 1404.518 2144.468 1401.506 C 2158.273 1408.905 2173.487 1413.78 2189.12 1414.765 L 2189.218 1397.937 Z " fill="rgb(245,151,127)"/><path d=" M 2194.994 1414.794 C 2181.613 1411.416 2168.232 1408.047 2154.851 1404.674 C 2142.284 1407.394 2129.99 1409.31 2117.428 1412.025 C 2117.399 1414.736 2120.831 1416.242 2122.956 1417.924 C 2125.077 1419.605 2127.724 1420.497 2130.385 1421.019 C 2137.059 1422.316 2144.147 1421.365 2150.24 1418.357 C 2164.045 1425.757 2179.259 1430.632 2194.892 1431.616 L 2194.994 1414.794 Z " fill="rgb(245,151,127)"/><path d=" M 2212.694 1433.303 C 2199.313 1429.935 2185.932 1426.561 2172.546 1423.188 C 2159.984 1425.908 2147.69 1427.824 2135.128 1430.544 C 2135.099 1433.254 2138.531 1434.756 2140.656 1436.438 C 2142.777 1438.119 2145.424 1439.011 2148.085 1439.533 C 2154.759 1440.83 2161.846 1439.884 2167.94 1436.871 C 2181.745 1444.271 2196.959 1449.146 2212.592 1450.135 L 2212.694 1433.303 Z " fill="rgb(245,151,127)"/><path d=" M 2152.848 1286.415 C 2150.064 1286.522 2147.374 1284.309 2146.945 1281.555 C 2146.506 1278.801 2148.344 1275.705 2151.064 1275.106 C 2159.555 1273.243 2169.358 1273.619 2176.31 1274.506 C 2179.576 1275.968 2178.81 1281.759 2174.92 1283.344 C 2171.352 1285.372 2161.037 1286.108 2152.848 1286.415 Z " fill="rgb(245,151,127)"/><path d=" M 2151.829 1297.909 C 2149.601 1297.407 2147.842 1295.292 2147.768 1293.005 C 2147.69 1290.719 2149.27 1288.345 2151.498 1287.843 C 2158.488 1286.259 2167.589 1286.356 2175.525 1286.834 C 2178.645 1288.233 2177.743 1294.073 2174.252 1295.652 C 2166.521 1297.938 2159.706 1299.659 2151.829 1297.909 Z " fill="rgb(245,151,127)"/><path d=" M 2152.521 1309.53 C 2150.479 1309.019 2148.539 1307.649 2148.217 1305.567 C 2147.988 1304.085 2148.524 1302.511 2149.557 1301.419 C 2150.591 1300.322 2152.087 1299.703 2153.594 1299.669 C 2160.189 1299.528 2166.858 1300.488 2173.356 1301.624 C 2175.993 1302.384 2174.93 1308.253 2170.904 1309.267 C 2170.904 1309.267 2159.697 1311.319 2152.521 1309.53 Z " fill="rgb(245,151,127)"/><path d=" M 2152.146 1320.952 C 2149.879 1320.479 2148.129 1318.217 2148.241 1315.902 C 2148.353 1313.591 2150.318 1311.51 2152.624 1311.266 C 2158.624 1310.622 2165.034 1311.68 2170.821 1313.425 C 2172.351 1314.59 2172.186 1318.183 2169.007 1319.738 C 2169.007 1319.738 2165.561 1320.42 2162.002 1320.874 C 2159.58 1321.181 2154.539 1321.444 2152.146 1320.952 Z " fill="rgb(245,151,127)"/><path d=" M 2460.064 1488.45 C 2467.103 1521.861 2440.872 1538.533 2440.872 1538.533 C 2410.211 1541.053 2318.63 1536.987 2240.987 1458.598 C 2239.061 1456.648 2236.804 1455.064 2234.718 1453.294 C 2233.075 1451.895 2230.433 1450.36 2229.414 1448.415 C 2228.644 1446.957 2229.248 1445.402 2229.614 1443.906 C 2230.925 1438.485 2232.641 1433.264 2235.21 1428.292 C 2236.56 1425.674 2238.106 1423.149 2239.802 1420.741 C 2240.329 1419.99 2243.785 1414.463 2244.531 1414.745 C 2280.637 1428.341 2393.788 1437.837 2466.357 1476.888 C 2476.253 1482.216 2457.744 1477.453 2460.064 1488.45 Z " fill="rgb(245,151,127)"/><path d=" M 2550.299 1269.368 C 2531.107 1289.325 2503.965 1294.166 2483.813 1294.034 C 2463.661 1293.902 2444.738 1287.726 2440.395 1278.333 C 2442.603 1270.499 2444.25 1254.837 2446.454 1247.003 C 2480.26 1250.191 2498.652 1247.983 2538.063 1238.575 L 2550.299 1269.368 Z " fill="rgb(148,86,140)"/><path d=" M 2542.792 1591.793 L 2541.836 1591.315 C 2571.465 1531.762 2590.905 1468.128 2599.63 1402.188 L 2600.679 1402.329 C 2591.943 1468.381 2572.464 1532.127 2542.792 1591.793 Z " fill="rgb(52,46,46)"/><path d=" M 2488.673 1300.264 C 2470.778 1300.264 2452.962 1295.199 2437.772 1285.688 L 2438.333 1284.792 C 2455.555 1295.569 2476.175 1300.546 2496.429 1298.879 C 2516.669 1297.188 2536.182 1288.823 2551.366 1275.325 L 2552.073 1276.115 C 2536.718 1289.764 2516.99 1298.221 2496.517 1299.937 C 2493.904 1300.156 2491.286 1300.264 2488.673 1300.264 Z " fill="rgb(52,46,46)"/><path d=" M 2408.87 1470.004 C 2471.87 1412.732 2504.74 1376.742 2566.931 1321.181 C 2580.722 1308.863 2597.417 1298.821 2615.688 1296.149 C 2633.953 1293.478 2655.104 1301.858 2661.232 1319.324 C 2675.393 1359.735 2656.172 1382.251 2626.607 1413.195 C 2597.042 1444.149 2498.832 1520.116 2448.443 1537.28 C 2432.98 1542.544 2415.227 1538.396 2405.414 1525.312 C 2395.601 1512.239 2396.766 1481.016 2408.87 1470.004 Z " fill="rgb(245,151,127)"/></g></g></g></svg>