<?xml version="1.0" encoding="UTF-8" standalone="no"?><!-- Generator: Gravit.io --><svg xmlns="http://www.w3.org/2000/svg" xmlns:xlink="http://www.w3.org/1999/xlink" style="isolation:isolate" viewBox="0 0 3661 2423" width="3661pt" height="2423pt"><defs><clipPath id="_clipPath_z1iF7xOwcRxlbHkXaVk4yo9J89XaeM8O"><rect width="3661" height="2423"/></clipPath></defs><g clip-path="url(#_clipPath_z1iF7xOwcRxlbHkXaVk4yo9J89XaeM8O)"><g><clipPath id="_clipPath_LrCMQ7Kuhm77Swh8EARYkocWmuUJ0jfP"><path d=" M 0 0 L 0 2416 L 3658.581 2416 L 3658.581 0 L 0 0 Z " fill="rgb(255,255,255)"/></clipPath><g clip-path="url(#_clipPath_LrCMQ7Kuhm77Swh8EARYkocWmuUJ0jfP)"><path d=" M 2475.026 2410.936 L 129.331 2410.936 L 129.331 712.218 C 129.331 318.871 448.203 -0.002 841.545 -0.002 L 1762.809 -0.002 C 2156.159 -0.002 2475.026 318.871 2475.026 712.218 L 2475.026 2410.936 Z " fill="rgb(239,225,232)"/><path d=" M 1989.252 1104.106 L 3465.757 1104.106 C 3535.509 1104.106 3592.065 1047.56 3592.065 977.808 L 3592.065 508.352 C 3592.065 438.59 3535.509 382.042 3465.757 382.042 L 1989.252 382.042 C 1919.5 382.042 1862.945 438.59 1862.945 508.352 L 1862.945 977.808 C 1862.945 1047.56 1919.5 1104.106 1989.252 1104.106 Z " fill="rgb(166,222,248)"/><path d=" M 2132.369 596.314 L 2128.421 598.259 L 2154.488 651.076 C 2157.09 656.336 2162.102 659.979 2167.904 660.822 L 2226.192 669.291 C 2228.671 669.662 2230.508 670.819 2231.853 672.445 C 2233.181 674.07 2233.937 676.192 2233.928 678.296 C 2233.919 680.581 2233.119 682.787 2231.194 684.687 L 2189.021 725.798 C 2185.548 729.18 2183.632 733.794 2183.632 738.557 C 2183.632 739.557 2183.72 740.567 2183.887 741.572 L 2193.848 799.622 L 2193.988 801.24 C 2193.988 803.77 2192.951 805.954 2191.272 807.597 C 2189.593 809.231 2187.298 810.209 2184.959 810.203 C 2183.588 810.201 2182.19 809.888 2180.757 809.138 L 2128.615 781.728 C 2126.021 780.363 2123.173 779.68 2120.324 779.681 C 2117.485 779.68 2114.627 780.363 2112.034 781.727 L 2059.9 809.137 C 2058.467 809.888 2057.07 810.201 2055.698 810.203 C 2053.36 810.209 2051.065 809.231 2049.386 807.597 C 2047.707 805.955 2046.669 803.773 2046.669 801.241 L 2046.81 799.624 L 2056.771 741.572 C 2056.938 740.568 2057.026 739.563 2057.026 738.563 C 2057.026 733.794 2055.109 729.184 2051.645 725.801 L 2051.566 725.722 L 2009.464 684.686 C 2007.529 682.787 2006.738 680.582 2006.721 678.298 C 2006.712 676.194 2007.468 674.071 2008.804 672.447 C 2010.149 670.821 2011.987 669.663 2014.466 669.291 L 2072.754 660.822 C 2078.556 659.979 2083.567 656.336 2086.169 651.078 L 2112.236 598.259 C 2113.942 594.843 2117.028 593.264 2120.324 593.227 C 2123.621 593.264 2126.716 594.844 2128.421 598.26 L 2132.369 596.314 L 2136.307 594.367 C 2133.09 587.807 2126.602 584.399 2120.324 584.436 C 2114.047 584.399 2107.568 587.807 2104.35 594.369 L 2078.283 647.186 C 2076.965 649.851 2074.433 651.694 2071.488 652.122 L 2013.2 660.591 C 2008.541 661.259 2004.619 663.653 2001.991 666.883 C 1999.362 670.113 1997.929 674.15 1997.929 678.298 C 1997.912 682.772 1999.661 687.433 2003.327 690.983 L 2045.588 732.172 L 2045.5 732.09 C 2047.258 733.81 2048.234 736.152 2048.234 738.563 L 2048.102 740.086 L 2038.141 798.135 C 2037.966 799.18 2037.878 800.22 2037.878 801.241 C 2037.93 811.358 2046.23 818.979 2055.698 818.995 C 2058.459 818.997 2061.316 818.328 2063.997 816.918 L 2116.122 789.509 C 2117.441 788.817 2118.883 788.472 2120.324 788.472 C 2121.775 788.472 2123.208 788.817 2124.527 789.508 L 2176.669 816.918 C 2179.342 818.328 2182.199 818.997 2184.959 818.995 C 2194.428 818.978 2202.727 811.359 2202.78 801.24 C 2202.78 800.22 2202.692 799.181 2202.516 798.136 L 2192.555 740.085 L 2192.423 738.557 C 2192.423 736.145 2193.391 733.811 2195.158 732.094 L 2237.33 690.982 C 2240.988 687.432 2242.737 682.77 2242.72 678.296 C 2242.72 674.15 2241.295 670.114 2238.658 666.883 C 2236.038 663.654 2232.117 661.259 2227.458 660.591 L 2169.17 652.122 C 2166.234 651.694 2163.693 649.851 2162.374 647.184 L 2136.307 594.368 L 2132.369 596.314 Z " fill="rgb(254,254,254)"/><path d=" M 2128.36 635.201 L 2145.741 670.427 C 2147.042 673.067 2149.565 674.9 2152.475 675.321 L 2191.351 680.97 C 2198.692 682.039 2201.628 691.058 2196.309 696.24 L 2168.185 723.657 C 2166.075 725.713 2165.108 728.675 2165.609 731.577 L 2172.247 770.293 C 2173.495 777.603 2165.82 783.18 2159.262 779.728 L 2124.492 761.45 C 2121.88 760.081 2118.768 760.081 2116.166 761.45 L 2081.396 779.728 C 2074.828 783.18 2067.153 777.603 2068.402 770.293 L 2075.048 731.577 C 2075.549 728.675 2074.582 725.713 2072.472 723.657 L 2044.348 696.24 C 2039.038 691.058 2041.966 682.039 2049.307 680.97 L 2088.174 675.321 C 2091.093 674.9 2093.616 673.067 2094.917 670.427 L 2112.307 635.201 C 2115.586 628.552 2125.072 628.552 2128.36 635.201 Z " fill="rgb(223,111,170)"/><path d=" M 2431.622 596.314 L 2427.675 598.259 L 2453.742 651.076 C 2456.344 656.336 2461.355 659.979 2467.158 660.822 L 2525.454 669.291 C 2527.933 669.662 2529.771 670.819 2531.116 672.445 C 2532.443 674.07 2533.199 676.192 2533.191 678.296 C 2533.182 680.581 2532.382 682.787 2530.456 684.687 L 2488.275 725.798 L 2488.266 725.801 C 2484.811 729.184 2482.894 733.794 2482.894 738.556 C 2482.894 739.557 2482.982 740.567 2483.158 741.575 L 2493.101 799.621 L 2493.242 801.242 C 2493.242 803.773 2492.205 805.955 2490.526 807.597 C 2488.846 809.231 2486.552 810.208 2484.213 810.203 C 2482.842 810.2 2481.444 809.888 2480.011 809.137 L 2427.877 781.728 C 2425.284 780.363 2422.435 779.68 2419.587 779.681 C 2416.738 779.68 2413.89 780.363 2411.297 781.728 L 2359.163 809.137 C 2357.73 809.888 2356.332 810.201 2354.961 810.203 C 2352.622 810.209 2350.328 809.231 2348.64 807.597 C 2346.96 805.953 2345.923 803.77 2345.923 801.24 L 2346.064 799.627 L 2346.064 799.622 L 2356.024 741.572 C 2356.191 740.566 2356.279 739.557 2356.279 738.556 C 2356.279 733.794 2354.372 729.184 2350.908 725.802 L 2350.873 725.764 L 2308.726 684.686 C 2306.792 682.787 2306.001 680.581 2305.983 678.296 C 2305.974 676.192 2306.73 674.07 2308.067 672.445 C 2309.403 670.819 2311.241 669.662 2313.72 669.291 L 2372.007 660.822 C 2377.819 659.98 2382.838 656.336 2385.423 651.071 L 2411.499 598.26 C 2413.204 594.843 2416.29 593.264 2419.587 593.227 C 2422.884 593.264 2425.978 594.843 2427.675 598.258 L 2431.622 596.314 L 2435.561 594.369 C 2432.343 587.807 2425.864 584.399 2419.587 584.436 C 2413.31 584.399 2406.83 587.807 2403.613 594.369 L 2377.537 647.185 L 2377.537 647.191 C 2376.227 649.85 2373.695 651.693 2370.741 652.122 L 2312.454 660.591 C 2307.794 661.259 2303.873 663.654 2301.253 666.883 C 2298.625 670.113 2297.192 674.15 2297.192 678.296 C 2297.174 682.771 2298.924 687.433 2302.59 690.983 L 2344.771 732.093 L 2344.763 732.09 C 2346.521 733.807 2347.488 736.144 2347.488 738.556 L 2347.356 740.087 L 2337.36 798.352 L 2337.395 798.13 C 2337.219 799.18 2337.131 800.22 2337.131 801.24 C 2337.184 811.36 2345.492 818.979 2354.961 818.995 C 2357.721 818.997 2360.578 818.329 2363.26 816.918 L 2415.385 789.509 C 2416.703 788.817 2418.136 788.472 2419.587 788.472 C 2421.029 788.472 2422.471 788.817 2423.789 789.51 L 2475.923 816.918 C 2478.595 818.328 2481.453 818.997 2484.213 818.995 C 2493.682 818.978 2501.981 811.358 2502.034 801.242 C 2502.034 800.22 2501.946 799.182 2501.77 798.136 L 2491.818 740.086 L 2491.818 740.081 L 2491.686 738.556 C 2491.686 736.144 2492.653 733.807 2494.411 732.09 L 2494.411 732.093 L 2536.593 690.983 C 2540.25 687.432 2542 682.77 2541.982 678.296 C 2541.982 674.15 2540.558 670.114 2537.92 666.883 C 2535.301 663.654 2531.38 661.259 2526.72 660.591 L 2468.424 652.122 C 2465.487 651.694 2462.947 649.851 2461.628 647.184 L 2435.561 594.368 L 2431.622 596.314 Z " fill="rgb(254,254,254)"/><path d=" M 2427.614 635.201 L 2444.994 670.427 C 2446.304 673.067 2448.819 674.9 2451.737 675.321 L 2490.613 680.97 C 2497.954 682.039 2500.882 691.058 2495.563 696.24 L 2467.439 723.657 C 2465.329 725.713 2464.362 728.675 2464.863 731.577 L 2471.51 770.293 C 2472.758 777.603 2465.083 783.18 2458.516 779.728 L 2423.745 761.45 C 2421.143 760.081 2418.031 760.081 2415.42 761.45 L 2380.658 779.728 C 2374.091 783.18 2366.416 777.603 2367.664 770.293 L 2374.302 731.577 C 2374.803 728.675 2373.845 725.713 2371.735 723.657 L 2343.602 696.24 C 2338.301 691.058 2341.228 682.039 2348.569 680.97 L 2387.436 675.321 C 2390.346 674.9 2392.878 673.067 2394.18 670.427 L 2411.569 635.201 C 2414.848 628.552 2424.334 628.552 2427.614 635.201 Z " fill="rgb(97,72,154)"/><path d=" M 2730.885 596.314 L 2726.938 598.259 L 2753.004 651.076 C 2755.607 656.336 2760.618 659.979 2766.42 660.822 L 2824.708 669.291 C 2827.187 669.662 2829.025 670.819 2830.37 672.445 C 2831.697 674.07 2832.453 676.192 2832.444 678.296 C 2832.436 680.581 2831.636 682.787 2829.71 684.687 L 2787.537 725.798 C 2784.065 729.18 2782.148 733.794 2782.148 738.557 C 2782.148 739.557 2782.236 740.567 2782.412 741.574 L 2792.364 799.622 L 2792.505 801.242 C 2792.505 803.773 2791.467 805.955 2789.788 807.597 C 2788.109 809.231 2785.814 810.208 2783.476 810.203 C 2782.104 810.2 2780.706 809.888 2779.273 809.137 L 2727.131 781.728 C 2724.546 780.363 2721.689 779.68 2718.849 779.681 C 2716.001 779.68 2713.144 780.363 2710.55 781.727 L 2658.417 809.137 C 2656.984 809.888 2655.586 810.201 2654.214 810.203 C 2651.876 810.209 2649.581 809.231 2647.902 807.597 C 2646.223 805.955 2645.194 803.773 2645.186 801.241 L 2645.326 799.627 L 2645.326 799.622 L 2655.287 741.572 C 2655.454 740.566 2655.542 739.558 2655.542 738.557 C 2655.542 733.793 2653.625 729.181 2650.162 725.798 L 2607.98 684.686 C 2606.055 682.791 2605.255 680.586 2605.246 678.302 C 2605.237 676.196 2605.993 674.072 2607.321 672.447 C 2608.666 670.82 2610.503 669.662 2612.982 669.291 L 2671.27 660.822 C 2677.072 659.979 2682.092 656.336 2684.686 651.078 L 2710.753 598.259 C 2712.458 594.843 2715.553 593.264 2718.849 593.227 C 2722.137 593.264 2725.232 594.843 2726.946 598.26 L 2730.885 596.314 L 2734.824 594.367 C 2731.606 587.807 2725.127 584.399 2718.849 584.436 C 2712.572 584.399 2706.093 587.807 2702.867 594.367 L 2676.8 647.186 C 2675.49 649.851 2672.949 651.694 2670.004 652.122 L 2611.725 660.591 C 2607.057 661.259 2603.136 663.655 2600.516 666.886 C 2597.878 670.117 2596.454 674.154 2596.454 678.302 C 2596.437 682.773 2598.186 687.432 2601.843 690.981 L 2644.025 732.093 C 2645.783 733.811 2646.75 736.145 2646.75 738.557 L 2646.619 740.087 L 2636.623 798.364 L 2636.667 798.13 C 2636.482 799.18 2636.394 800.222 2636.394 801.241 C 2636.447 811.358 2644.746 818.979 2654.214 818.995 C 2656.975 818.997 2659.832 818.328 2662.514 816.918 L 2714.638 789.509 C 2715.957 788.817 2717.399 788.472 2718.849 788.472 C 2720.291 788.472 2721.724 788.817 2723.043 789.508 L 2775.185 816.918 C 2777.858 818.328 2780.715 818.997 2783.476 818.995 C 2792.944 818.978 2801.243 811.358 2801.296 801.242 C 2801.296 800.22 2801.208 799.182 2801.032 798.136 L 2791.072 740.085 L 2790.94 738.557 C 2790.94 736.145 2791.907 733.811 2793.674 732.094 L 2835.847 690.982 C 2839.504 687.432 2841.253 682.77 2841.236 678.296 C 2841.236 674.15 2839.812 670.114 2837.174 666.883 C 2834.554 663.654 2830.642 661.259 2825.974 660.591 L 2767.686 652.122 C 2764.75 651.694 2762.209 649.851 2760.89 647.184 L 2734.824 594.368 L 2730.885 596.314 Z " fill="rgb(254,254,254)"/><path d=" M 2726.876 635.201 L 2744.257 670.427 C 2745.558 673.067 2748.081 674.9 2751 675.321 L 2789.867 680.97 C 2797.208 682.039 2800.144 691.058 2794.826 696.24 L 2766.702 723.657 C 2764.592 725.713 2763.625 728.675 2764.126 731.577 L 2770.763 770.293 C 2772.02 777.603 2764.345 783.18 2757.778 779.728 L 2723.008 761.45 C 2720.397 760.081 2717.293 760.081 2714.682 761.45 L 2679.912 779.728 C 2673.345 783.18 2665.67 777.603 2666.927 770.293 L 2673.564 731.577 C 2674.066 728.675 2673.107 725.713 2670.989 723.657 L 2642.865 696.24 C 2637.555 691.058 2640.491 682.039 2647.832 680.97 L 2686.69 675.321 C 2689.618 674.9 2692.132 673.067 2693.433 670.427 L 2710.823 635.201 C 2714.102 628.552 2723.588 628.552 2726.876 635.201 Z " fill="rgb(252,191,112)"/><path d=" M 3030.139 596.314 L 3026.2 598.259 L 3052.258 651.076 C 3054.86 656.336 3059.872 659.979 3065.674 660.822 L 3123.97 669.291 C 3126.45 669.662 3128.287 670.819 3129.632 672.445 C 3130.96 674.07 3131.716 676.192 3131.707 678.296 C 3131.698 680.581 3130.898 682.787 3128.973 684.687 L 3086.791 725.798 L 3086.782 725.801 C 3083.327 729.184 3081.411 733.794 3081.411 738.556 C 3081.411 739.557 3081.499 740.567 3081.675 741.575 L 3091.618 799.621 L 3091.767 801.25 C 3091.758 803.778 3090.73 805.958 3089.051 807.599 C 3087.363 809.232 3085.068 810.209 3082.73 810.203 C 3081.358 810.201 3079.96 809.888 3078.527 809.137 L 3026.394 781.728 C 3023.8 780.363 3020.952 779.68 3018.103 779.681 C 3015.255 779.68 3012.406 780.363 3009.813 781.728 L 2957.679 809.137 C 2956.246 809.888 2954.848 810.201 2953.477 810.203 C 2951.138 810.209 2948.844 809.231 2947.156 807.597 C 2945.477 805.953 2944.448 803.77 2944.439 801.24 L 2944.58 799.627 L 2944.58 799.622 L 2954.541 741.572 C 2954.708 740.566 2954.796 739.557 2954.796 738.556 C 2954.796 733.794 2952.888 729.184 2949.424 725.802 L 2949.424 725.798 L 2907.242 684.686 C 2905.308 682.787 2904.517 680.581 2904.5 678.296 C 2904.491 676.192 2905.247 674.07 2906.583 672.445 C 2907.928 670.819 2909.757 669.662 2912.236 669.291 L 2970.524 660.822 C 2976.335 659.98 2981.355 656.336 2983.939 651.071 L 3010.015 598.26 C 3011.721 594.843 3014.806 593.264 3018.103 593.227 C 3021.4 593.264 3024.495 594.843 3026.191 598.258 L 3030.139 596.314 L 3034.077 594.369 C 3030.86 587.807 3024.38 584.399 3018.103 584.436 C 3011.826 584.399 3005.347 587.807 3002.129 594.369 L 2976.054 647.185 L 2976.054 647.191 C 2974.744 649.85 2972.212 651.693 2969.266 652.122 L 2910.979 660.591 C 2906.311 661.259 2902.39 663.654 2899.77 666.883 C 2897.141 670.113 2895.708 674.15 2895.708 678.296 C 2895.69 682.771 2897.44 687.433 2901.106 690.983 L 2943.288 732.093 L 2943.279 732.09 C 2945.037 733.807 2946.004 736.144 2946.004 738.556 L 2945.872 740.087 L 2935.876 798.364 L 2935.92 798.13 C 2935.736 799.18 2935.648 800.22 2935.648 801.24 C 2935.701 811.36 2944.009 818.979 2953.477 818.995 C 2956.237 818.997 2959.095 818.329 2961.776 816.918 L 3013.901 789.509 C 3015.22 788.818 3016.661 788.472 3018.103 788.472 C 3019.554 788.472 3020.996 788.818 3022.306 789.508 L 3074.439 816.918 C 3077.112 818.329 3079.969 818.997 3082.73 818.995 C 3092.198 818.979 3100.497 811.365 3100.559 801.25 C 3100.559 800.225 3100.471 799.182 3100.286 798.133 L 3090.334 740.086 L 3090.334 740.081 L 3090.202 738.556 C 3090.202 736.144 3091.169 733.807 3092.928 732.09 L 3092.928 732.093 L 3135.109 690.983 C 3138.767 687.432 3140.516 682.77 3140.498 678.296 C 3140.498 674.15 3139.074 670.114 3136.437 666.883 C 3133.817 663.654 3129.905 661.259 3125.236 660.591 L 3066.94 652.122 C 3064.004 651.694 3061.463 649.851 3060.144 647.184 L 3034.077 594.368 L 3030.139 596.314 Z " fill="rgb(254,254,254)"/><path d=" M 3026.13 635.201 L 3043.511 670.427 C 3044.821 673.067 3047.344 674.9 3050.254 675.321 L 3089.13 680.97 C 3096.471 682.039 3099.398 691.058 3094.088 696.24 L 3065.955 723.657 C 3063.854 725.713 3062.887 728.675 3063.379 731.577 L 3070.026 770.293 C 3071.283 777.603 3063.608 783.18 3057.032 779.728 L 3022.27 761.45 C 3019.659 760.081 3016.547 760.081 3013.936 761.45 L 2979.174 779.728 C 2972.607 783.18 2964.932 777.603 2966.181 770.293 L 2972.818 731.577 C 2973.319 728.675 2972.361 725.713 2970.251 723.657 L 2942.118 696.24 C 2936.817 691.058 2939.745 682.039 2947.086 680.97 L 2985.962 675.321 C 2988.872 674.9 2991.395 673.067 2992.696 670.427 L 3010.085 635.201 C 3013.365 628.552 3022.851 628.552 3026.13 635.201 Z " fill="rgb(161,209,232)"/><path d=" M 3329.401 596.314 L 3325.463 598.259 L 3351.521 651.076 C 3354.123 656.336 3359.134 659.979 3364.937 660.822 L 3423.224 669.291 C 3425.703 669.662 3427.541 670.82 3428.886 672.447 C 3430.222 674.072 3430.97 676.196 3430.97 678.302 C 3430.952 680.586 3430.161 682.791 3428.235 684.689 L 3386.054 725.798 C 3382.581 729.18 3380.665 733.794 3380.665 738.557 C 3380.665 739.557 3380.752 740.567 3380.928 741.574 L 3390.88 799.622 L 3391.021 801.242 C 3391.021 803.773 3389.984 805.955 3388.304 807.597 C 3386.625 809.231 3384.331 810.208 3381.992 810.203 C 3380.621 810.2 3379.223 809.888 3377.79 809.137 L 3325.647 781.728 C 3323.063 780.363 3320.205 779.68 3317.366 779.681 C 3314.517 779.68 3311.669 780.363 3309.075 781.728 L 3256.942 809.137 C 3255.5 809.888 3254.102 810.201 3252.731 810.203 C 3250.392 810.209 3248.098 809.231 3246.418 807.597 C 3244.739 805.955 3243.711 803.773 3243.702 801.241 L 3243.842 799.627 L 3243.842 799.622 L 3253.803 741.572 C 3253.979 740.566 3254.058 739.558 3254.058 738.557 C 3254.058 733.793 3252.142 729.181 3248.678 725.798 L 3206.496 684.686 C 3204.571 682.791 3203.771 680.586 3203.762 678.302 C 3203.753 676.196 3204.509 674.072 3205.837 672.447 C 3207.182 670.82 3209.019 669.662 3211.499 669.291 L 3269.786 660.822 C 3275.589 659.979 3280.609 656.336 3283.202 651.078 L 3309.269 598.259 C 3310.974 594.843 3314.069 593.264 3317.366 593.227 C 3320.663 593.264 3323.748 594.843 3325.463 598.26 L 3329.401 596.314 L 3333.34 594.367 C 3330.122 587.807 3323.643 584.399 3317.366 584.436 C 3311.089 584.399 3304.609 587.807 3301.383 594.367 L 3275.316 647.186 C 3274.006 649.851 3271.465 651.694 3268.52 652.122 L 3210.241 660.591 C 3205.573 661.259 3201.652 663.655 3199.032 666.886 C 3196.395 670.117 3194.971 674.154 3194.971 678.302 C 3194.953 682.773 3196.702 687.432 3200.36 690.981 L 3242.541 732.093 C 3244.3 733.811 3245.267 736.145 3245.267 738.557 L 3245.135 740.087 L 3235.183 798.135 L 3235.183 798.13 C 3234.998 799.18 3234.91 800.222 3234.91 801.241 C 3234.963 811.358 3243.262 818.979 3252.731 818.995 C 3255.491 818.997 3258.348 818.328 3261.03 816.918 L 3313.163 789.509 C 3314.482 788.817 3315.924 788.472 3317.366 788.472 C 3318.808 788.472 3320.241 788.817 3321.559 789.508 L 3373.702 816.918 C 3376.374 818.328 3379.232 818.997 3381.992 818.995 C 3391.461 818.978 3399.76 811.358 3399.812 801.242 C 3399.812 800.22 3399.725 799.182 3399.549 798.136 L 3389.588 740.085 L 3389.456 738.557 C 3389.456 736.145 3390.423 733.811 3392.19 732.094 L 3434.372 690.983 C 3438.029 687.431 3439.779 682.773 3439.761 678.302 C 3439.752 674.154 3438.328 670.118 3435.699 666.886 C 3433.071 663.656 3429.158 661.259 3424.49 660.591 L 3366.203 652.122 C 3363.266 651.694 3360.725 649.851 3359.407 647.184 L 3333.34 594.368 L 3329.401 596.314 Z " fill="rgb(254,254,254)"/><path d=" M 3325.392 635.201 L 3342.773 670.427 C 3344.083 673.067 3346.598 674.9 3349.516 675.321 L 3388.383 680.97 C 3395.724 682.039 3398.661 691.058 3393.342 696.24 L 3365.218 723.657 C 3363.108 725.713 3362.15 728.675 3362.642 731.577 L 3369.28 770.293 C 3370.546 777.603 3362.871 783.18 3356.303 779.728 L 3321.524 761.45 C 3318.922 760.081 3315.81 760.081 3313.199 761.45 L 3278.428 779.728 C 3271.861 783.18 3264.195 777.603 3265.452 770.293 L 3272.081 731.577 C 3272.582 728.675 3271.624 725.713 3269.505 723.657 L 3241.381 696.24 C 3236.071 691.058 3239.007 682.039 3246.348 680.97 L 3285.215 675.321 C 3288.134 674.9 3290.648 673.067 3291.95 670.427 L 3309.339 635.201 C 3312.627 628.552 3322.104 628.552 3325.392 635.201 Z " fill="rgb(161,209,232)"/><path d=" M 2041.632 542.41 L 2640.157 542.41 C 2647.436 542.41 2653.344 536.505 2653.344 529.223 C 2653.344 521.94 2647.436 516.035 2640.157 516.035 L 2041.632 516.035 C 2034.352 516.035 2028.444 521.94 2028.444 529.223 C 2028.444 536.505 2034.352 542.41 2041.632 542.41 Z " fill="rgb(254,254,254)"/><path d=" M 2041.632 900.539 L 3412.033 900.539 C 3419.321 900.539 3425.22 894.64 3425.22 887.352 C 3425.22 880.073 3419.321 874.168 3412.033 874.168 L 2041.632 874.168 C 2034.352 874.168 2028.444 880.073 2028.444 887.352 C 2028.444 894.64 2034.352 900.539 2041.632 900.539 Z " fill="rgb(254,254,254)"/><path d=" M 2041.632 981.026 L 3412.033 981.026 C 3419.321 981.026 3425.22 975.126 3425.22 967.838 C 3425.22 960.559 3419.321 954.651 3412.033 954.651 L 2041.632 954.651 C 2034.352 954.651 2028.444 960.559 2028.444 967.838 C 2028.444 975.126 2034.352 981.026 2041.632 981.026 Z " fill="rgb(254,254,254)"/><path d=" M 2726.234 1212.594 C 2726.234 1212.594 2808.989 1125.487 2813.34 1073.222 C 2817.692 1020.957 2878.661 1020.957 2878.661 1094.998 C 2878.661 1169.032 2874.31 1140.732 2874.31 1140.732 C 2874.31 1140.732 3000.617 1040.562 3035.449 1051.445 C 3070.298 1062.338 2965.776 1155.976 2965.776 1155.976 C 2965.776 1155.976 3074.65 1086.286 3105.139 1097.179 C 3135.628 1108.063 3020.213 1199.529 3020.213 1199.529 C 3020.213 1199.529 3144.332 1142.903 3166.117 1158.148 C 3187.885 1173.392 3070.298 1245.254 3070.298 1245.254 C 3070.298 1245.254 3159.585 1208.233 3174.82 1225.658 C 3190.065 1243.074 2987.948 1366.032 2946.171 1360.669 L 2726.234 1212.594 Z " fill="rgb(249,181,144)"/><path d=" M 1991.845 1359.429 L 2377.643 1665.707 L 2730.419 1171.388 L 3018.27 1357.486 L 2553.077 2012.576 C 2502.913 2083.215 2407.921 2105.317 2331.725 2064.068 L 2036.55 1904.291 L 1991.845 1359.429 Z " fill="rgb(223,111,170)"/><path d=" M 1202.079 720.36 C 1202.079 720.36 1027.014 673.776 1067.745 572.952 C 1108.485 472.13 1221.772 486.754 1221.772 486.754 C 1221.772 486.754 1255.76 329.027 1421.84 285.16 C 1587.929 241.288 1647.228 291.423 1647.228 291.423 C 1647.228 291.423 1873.09 201.593 1967.089 362.455 C 2061.096 523.311 1979.625 625.676 1979.625 625.676 C 1979.625 625.676 2056.92 656.695 2034.994 767.053 C 2013.051 877.41 1686.112 583.895 1401.998 623.585 L 1353.952 730.328 L 1254.608 748.766 L 1202.079 720.36 Z " fill="rgb(129,80,70)"/><path d=" M 1813.062 777.081 C 1812.938 776.763 1792.736 721.333 1756.972 662.242 C 1739.064 632.692 1717.278 602.206 1691.888 577.178 C 1666.507 552.194 1637.399 532.48 1604.633 525.478 C 1599.885 524.468 1595.217 527.499 1594.206 532.249 C 1593.195 536.998 1596.228 541.667 1600.976 542.677 C 1629.073 548.622 1655.65 566.134 1679.545 589.705 C 1715.414 624.995 1744.892 673.503 1765.157 713.09 C 1775.302 732.884 1783.17 750.447 1788.489 763.032 C 1791.153 769.325 1793.175 774.372 1794.529 777.832 C 1795.206 779.561 1795.716 780.895 1796.05 781.788 C 1796.384 782.681 1796.542 783.104 1796.542 783.106 C 1798.204 787.667 1803.25 790.017 1807.813 788.353 C 1812.376 786.689 1814.723 781.643 1813.062 777.081 Z " fill="rgb(82,39,49)"/><path d=" M 1235.425 1171.775 L 1038.812 1229.684 C 861.137 1282.02 731.299 1434.561 708.011 1618.295 L 608.673 2402.145 L 2092.886 2402.145 L 2196.213 1697.031 C 2162.102 1491.275 2016.084 1321.714 1817.668 1257.439 L 1605.89 1188.83 L 1235.425 1171.775 Z " fill="rgb(223,111,170)"/><path d=" M 1476.154 2112.227 C 1476.154 2112.227 1619.71 2078.582 1768.163 2185.619 C 1812.402 2217.523 1848.078 2242.359 1876.369 2261.516 C 1902.585 2279.275 1889.952 2320.199 1858.285 2320.199 L 1647.228 2320.199 L 1647.228 2411.604 L 1547.092 2411.604 L 1476.154 2112.227 Z " fill="rgb(249,181,144)"/><path d=" M 1126.63 1559.436 L 1084.396 2004.101 L 1280.649 2038.88 C 1280.649 2038.88 975.091 2053.782 975.091 2023.978 L 1126.63 1559.436 Z " fill="rgb(198,89,156)"/><path d=" M 1265.94 924.804 L 1220.207 1223.899 L 1280.561 1265.8 C 1361.891 1322.259 1468.804 1325.635 1553.528 1274.407 L 1573.687 1262.213 L 1495.82 897.612 L 1265.94 924.804 Z " fill="rgb(249,181,144)"/><path d=" M 1558.794 1189.569 C 1458.676 1189.569 1245.008 1083.13 1258.635 920.602 L 1519.804 981.026 L 1558.794 1189.569 Z " fill="rgb(235,160,126)"/><path d=" M 1813.888 883.29 C 1813.888 1056.421 1712.17 1149.989 1561.431 1149.989 C 1410.684 1149.989 1267.989 1056.421 1267.989 883.29 C 1267.989 710.144 1390.191 472.327 1540.938 472.327 C 1798.52 472.327 1813.888 710.144 1813.888 883.29 Z " fill="rgb(249,181,144)"/><path d=" M 1757.033 849.172 C 1744.171 857.217 1738.949 872.052 1745.367 882.306 C 1751.785 892.557 1760.453 885.313 1773.315 877.268 C 1786.168 869.223 1798.353 863.429 1791.936 853.177 C 1785.518 842.922 1769.895 841.127 1757.033 849.172 Z " fill="rgb(210,144,123)"/><path d=" M 1282.873 784.429 C 1282.873 784.429 1326.083 893.831 1405.602 904.399 C 1492.295 915.925 1469.042 878.204 1608.316 865.789 C 1747.591 853.379 1758.264 905.173 1785.852 907.933 C 1799.672 909.313 1806.987 894.13 1810.837 878.642 C 1811.673 875.285 1816.569 875.77 1816.587 879.229 C 1816.956 960.111 1794.274 1190.035 1555.427 1176.707 C 1258.951 1160.161 1216.734 911.836 1282.873 784.429 Z " fill="rgb(129,80,70)"/><path d=" M 1623.534 783.476 C 1623.534 783.476 1577.801 876.169 1603.754 908.302 C 1629.706 940.444 1635.895 902.131 1635.895 902.131 L 1623.534 783.476 Z " fill="rgb(82,39,49)"/><path d=" M 1646.243 849.077 C 1646.243 889.524 1652.107 922.307 1635.254 922.307 C 1618.4 922.307 1614.506 887.08 1614.506 846.635 C 1614.506 806.193 1618.4 775.848 1635.254 775.848 C 1652.107 775.848 1646.243 808.631 1646.243 849.077 Z " fill="rgb(250,194,169)"/><path d=" M 1679.985 955.662 C 1679.985 983.426 1643.271 1019.998 1597.995 1019.998 C 1552.719 1019.998 1516.014 983.426 1516.014 955.662 C 1516.014 927.907 1555.603 937.534 1600.879 937.534 C 1646.164 937.534 1679.985 927.907 1679.985 955.662 Z " fill="rgb(249,181,144)"/><path d=" M 1626.242 961.429 C 1614.453 963.961 1595.797 964.832 1576.526 953.236 C 1573.37 951.328 1569.265 952.866 1567.999 956.33 C 1562.636 970.933 1553.748 1003.989 1581.01 1008.385 C 1612.879 1013.519 1602.813 996.296 1629.372 966.836 C 1631.517 964.462 1629.381 960.761 1626.242 961.429 Z " fill="rgb(82,39,49)"/><path d=" M 1181.911 749.632 C 1167.52 787.86 1186.834 830.52 1225.069 844.914 C 1263.294 859.307 1305.95 839.985 1320.351 801.759 C 1334.743 763.533 1315.419 720.875 1277.193 706.478 C 1238.968 692.084 1196.312 711.406 1181.911 749.632 Z " fill="rgb(249,181,144)"/><path d=" M 1221.913 754.472 L 1222.08 754.471 C 1223.557 754.467 1233.394 754.713 1245.535 760.417 C 1257.676 766.141 1272.2 777.194 1283.523 799.42 C 1284.622 801.584 1287.269 802.446 1289.431 801.346 C 1291.603 800.246 1292.464 797.6 1291.365 795.435 C 1279.216 771.492 1262.978 758.868 1249.263 752.459 C 1235.557 746.029 1224.444 745.683 1222.08 745.68 L 1221.622 745.686 C 1219.196 745.766 1217.297 747.798 1217.376 750.224 C 1217.455 752.651 1219.486 754.553 1221.913 754.472 Z " fill="rgb(82,39,49)"/><path d=" M 1231.434 786.38 L 1231.548 786.253 C 1232.243 785.504 1235.97 781.651 1241.166 778.105 C 1246.362 774.526 1252.982 771.408 1259.153 771.448 L 1261.175 771.556 C 1263.584 771.817 1265.756 770.073 1266.019 767.659 C 1266.283 765.246 1264.534 763.077 1262.125 762.815 C 1261.123 762.707 1260.129 762.656 1259.153 762.656 C 1249.544 762.705 1241.148 767.325 1235.029 771.668 C 1228.919 776.05 1225.042 780.339 1224.91 780.487 C 1223.275 782.288 1223.425 785.068 1225.218 786.696 C 1227.02 788.323 1229.807 788.181 1231.434 786.38 Z " fill="rgb(82,39,49)"/><path d=" M 1316.008 801.096 L 1315.99 801.174 C 1315.762 802.521 1312.834 816.895 1299.383 827.926 C 1297.511 829.47 1297.247 832.24 1298.785 834.114 C 1300.333 835.988 1303.102 836.255 1304.975 834.711 C 1321.881 820.719 1324.597 802.948 1324.694 802.422 C 1325.063 800.022 1323.41 797.78 1321.01 797.413 C 1318.61 797.048 1316.368 798.696 1316.008 801.096 Z " fill="rgb(82,39,49)"/><path d=" M 1812.165 769.675 C 1809.132 795.217 1778.326 778.36 1738.422 773.624 C 1698.508 768.889 1664.617 778.063 1667.641 752.526 C 1670.683 726.984 1705.489 710.118 1745.393 714.853 C 1785.298 719.592 1815.198 744.138 1812.165 769.675 Z " fill="rgb(129,80,70)"/><path d=" M 1602.593 751.242 C 1599.569 776.784 1568.763 759.926 1528.85 755.191 C 1488.945 750.457 1455.054 759.63 1458.079 734.088 C 1461.112 708.552 1495.926 691.685 1535.831 696.42 C 1575.735 701.159 1605.635 725.7 1602.593 751.242 Z " fill="rgb(129,80,70)"/><path d=" M 1487.275 849.172 C 1500.137 857.217 1505.359 872.052 1498.941 882.306 C 1492.524 892.557 1483.855 885.313 1471.002 877.268 C 1458.14 869.223 1445.964 863.429 1452.382 853.177 C 1458.791 842.922 1474.413 841.127 1487.275 849.172 Z " fill="rgb(210,144,123)"/><path d=" M 1411.906 531.769 C 1411.906 531.769 1453.481 653.879 1562.223 674.248 C 1670.965 694.617 1794.705 674.248 1794.705 674.248 C 1794.705 674.248 1804.798 551.206 1703.81 542.642 C 1602.804 534.078 1411.906 531.769 1411.906 531.769 Z " fill="rgb(235,160,126)"/><path d=" M 859.149 2400.826 L 519.817 2402.004 C 422.716 2402.004 358.742 2300.823 400.377 2213.101 L 738.841 1500.005 C 795.205 1381.25 925.454 1316.421 1054.18 1343.051 C 1117.285 1356.115 1169.823 1404.811 1147.607 1465.296 L 859.149 2400.826 Z " fill="rgb(223,111,170)"/><path d=" M 1129.716 1524.085 L 963.697 2041.658 C 962.959 2043.97 964.225 2046.441 966.537 2047.188 C 968.849 2047.926 971.329 2046.652 972.067 2044.339 L 1138.086 1526.766 C 1138.824 1524.454 1137.558 1521.984 1135.246 1521.237 C 1132.934 1520.498 1130.455 1521.773 1129.716 1524.085 Z " fill="rgb(254,254,254)"/><path d=" M 898.069 2043.241 L 1397.997 2046.159 L 1383.377 2411.604 L 822.059 2411.604 L 898.069 2043.241 Z " fill="rgb(223,111,170)"/><path d=" M 919.441 2045.685 L 1453.032 2053.43 L 1542.837 2406.839 C 1543.435 2409.195 1545.826 2410.62 1548.183 2410.022 C 1550.53 2409.424 1551.954 2407.033 1551.356 2404.677 L 1459.898 2044.744 L 919.573 2036.893 C 917.147 2036.858 915.151 2038.801 915.116 2041.227 C 915.081 2043.654 917.015 2045.649 919.441 2045.685 Z " fill="rgb(254,254,254)"/><path d=" M 1520.498 803.583 C 1520.498 818.9 1526.573 831.319 1534.072 831.319 C 1541.571 831.319 1547.646 818.9 1547.646 803.583 C 1547.646 788.262 1541.571 775.848 1534.072 775.848 C 1526.573 775.848 1520.498 788.262 1520.498 803.583 Z " fill="rgb(82,39,49)"/><path d=" M 1721.094 811.16 C 1721.094 826.476 1727.169 838.895 1734.668 838.895 C 1742.167 838.895 1748.242 826.476 1748.242 811.16 C 1748.242 795.844 1742.167 783.425 1734.668 783.425 C 1727.169 783.425 1721.094 795.844 1721.094 811.16 Z " fill="rgb(82,39,49)"/><path d=" M 1358.62 814.668 L 1354.225 814.668 C 1354.225 847.135 1368.194 876.542 1390.665 897.735 C 1413.128 918.94 1444.126 932.022 1478.308 932.022 C 1512.489 932.022 1543.488 918.94 1565.959 897.735 C 1588.421 876.542 1602.391 847.135 1602.391 814.668 C 1602.391 782.199 1588.421 752.793 1565.959 731.602 C 1543.488 710.399 1512.489 697.321 1478.308 697.321 C 1444.126 697.321 1413.128 710.399 1390.665 731.602 C 1368.194 752.793 1354.225 782.199 1354.225 814.668 L 1358.62 814.668 L 1363.016 814.668 C 1363.025 784.754 1375.843 757.685 1396.696 737.996 C 1417.55 718.32 1446.386 706.113 1478.308 706.113 C 1510.23 706.113 1539.075 718.32 1559.919 737.996 C 1580.773 757.685 1593.599 784.754 1593.599 814.668 C 1593.599 844.581 1580.773 871.651 1559.919 891.343 C 1539.075 911.019 1510.23 923.221 1478.308 923.23 C 1446.386 923.221 1417.55 911.019 1396.696 891.343 C 1375.843 871.651 1363.025 844.582 1363.016 814.668 L 1358.62 814.668 Z " fill="rgb(82,39,49)"/><path d=" M 1667.457 814.668 L 1663.061 814.668 C 1663.052 847.135 1677.022 876.542 1699.493 897.735 C 1721.964 918.94 1752.963 932.022 1787.144 932.022 C 1821.326 932.022 1852.324 918.94 1874.795 897.735 C 1897.267 876.542 1911.236 847.135 1911.227 814.668 C 1911.236 782.199 1897.267 752.793 1874.795 731.602 C 1852.324 710.399 1821.326 697.321 1787.144 697.321 C 1752.963 697.321 1721.964 710.399 1699.493 731.602 C 1677.022 752.793 1663.052 782.199 1663.061 814.668 L 1667.457 814.668 L 1671.853 814.668 C 1671.853 784.754 1684.679 757.685 1705.533 737.996 C 1726.377 718.32 1755.222 706.113 1787.144 706.113 C 1819.066 706.113 1847.911 718.32 1868.764 737.996 C 1889.609 757.685 1902.436 784.754 1902.436 814.668 C 1902.436 844.581 1889.609 871.651 1868.764 891.343 C 1847.911 911.019 1819.066 923.221 1787.144 923.23 C 1755.222 923.221 1726.377 911.019 1705.533 891.343 C 1684.679 871.651 1671.853 844.581 1671.853 814.668 L 1667.457 814.668 Z " fill="rgb(82,39,49)"/><path d=" M 1601.143 817.734 L 1599.833 816.458 L 1601.125 817.756 L 1601.143 817.734 L 1599.833 816.458 L 1601.125 817.756 C 1601.257 817.655 1610.18 808.751 1628.625 808.747 C 1638.172 808.751 1650.401 811.126 1665.505 818.606 C 1667.677 819.684 1670.314 818.794 1671.395 816.618 C 1672.477 814.443 1671.58 811.806 1669.409 810.728 C 1653.276 802.734 1639.658 799.952 1628.625 799.956 C 1606.497 799.954 1595.314 811.091 1594.848 811.6 C 1593.151 813.339 1593.186 816.122 1594.927 817.816 C 1596.668 819.51 1599.455 819.474 1601.143 817.735 L 1601.143 817.734 Z " fill="rgb(82,39,49)"/><path d=" M 1382.155 484.664 C 1382.155 484.664 1466.492 644.478 1573.687 647.612 C 1636.827 649.458 1668.204 641.159 1683.343 634.025 C 1693.321 629.32 1704.75 629.02 1714.817 633.532 C 1752.761 650.527 1835.427 679 1820.86 596.429 C 1802.055 489.889 1598.373 358.274 1382.155 484.664 Z " fill="rgb(129,80,70)"/><path d=" M 2147.851 2026.308 L 2189.751 1726.149 C 2190.085 1723.749 2188.415 1721.525 2186.006 1721.19 C 2183.606 1720.856 2181.381 1722.536 2181.047 1724.936 L 2139.138 2025.095 C 2138.804 2027.495 2140.483 2029.719 2142.883 2030.053 C 2145.292 2030.387 2147.508 2028.708 2147.851 2026.308 Z " fill="rgb(254,254,254)"/><path d=" M 2370.671 1666.745 C 2370.293 1666.947 2356.068 1674.472 2341.826 1692.644 C 2327.584 1710.79 2313.438 1739.688 2313.465 1781.869 C 2313.465 1784.533 2313.518 1787.25 2313.632 1790.028 C 2313.737 1792.454 2315.786 1794.336 2318.212 1794.23 C 2320.639 1794.133 2322.52 1792.085 2322.415 1789.659 C 2322.309 1787.004 2322.256 1784.41 2322.256 1781.869 C 2322.274 1741.657 2335.558 1714.94 2348.745 1698.069 C 2355.347 1689.638 2361.941 1683.703 2366.838 1679.897 C 2369.291 1677.998 2371.322 1676.626 2372.711 1675.747 L 2374.293 1674.789 L 2374.68 1674.569 L 2374.759 1674.525 C 2376.913 1673.391 2377.739 1670.736 2376.605 1668.582 C 2375.48 1666.437 2372.816 1665.611 2370.671 1666.745 Z " fill="rgb(254,254,254)"/><path d=" M 3504.581 1696.267 L 2605.861 1696.267 L 2191.289 2411.604 L 3090 2411.604 L 3504.581 1696.267 Z " fill="rgb(101,85,162)"/><path d=" M 2500.135 2411.604 L 1647.228 2411.604 L 1647.228 2320.199 L 2527.01 2320.199 L 2500.135 2411.604 Z " fill="rgb(97,72,154)"/><path d=" M 3658.581 1696.267 L 2759.862 1696.267 L 2345.281 2411.604 L 3244.01 2411.604 L 3658.581 1696.267 Z " fill="rgb(97,72,154)"/><path d=" M 3089.174 1812.789 C 3071.134 1844.043 3074.483 1879.736 3096.638 1892.528 C 3118.81 1905.328 3151.4 1890.374 3169.44 1859.138 C 3187.471 1827.893 3184.131 1792.182 3161.967 1779.39 C 3139.804 1766.599 3107.214 1781.544 3089.174 1812.789 Z " fill="rgb(101,85,162)"/><path d=" M 3112.744 1812.789 C 3101.35 1832.526 3103.469 1855.076 3117.465 1863.164 C 3131.461 1871.244 3152.05 1861.793 3163.444 1842.065 C 3174.838 1822.328 3172.728 1799.786 3158.723 1791.698 C 3144.727 1783.619 3124.137 1793.061 3112.744 1812.789 Z " fill="rgb(116,103,172)"/><path d=" M 3473.292 2407.209 L 4.395 2407.209 C 1.967 2407.209 -0.001 2409.178 -0.001 2411.604 C -0.001 2414.031 1.967 2416 4.395 2416 L 3473.292 2416 C 3475.718 2416 3477.688 2414.031 3477.688 2411.604 C 3477.688 2409.178 3475.718 2407.209 3473.292 2407.209 Z " fill="rgb(82,39,49)"/><path d=" M 2756.055 1694.06 L 2482.279 2166.453 C 2481.066 2168.555 2481.778 2171.245 2483.879 2172.458 C 2485.98 2173.68 2488.671 2172.959 2489.893 2170.858 L 2763.66 1698.473 C 2764.882 1696.372 2764.161 1693.682 2762.06 1692.469 C 2759.967 1691.247 2757.277 1691.967 2756.055 1694.06 Z " fill="rgb(254,254,254)"/><path d=" M 1116.186 252.458 L 815.732 252.458 C 724.903 252.458 651.27 326.091 651.27 416.921 L 651.27 443.072 C 651.27 533.901 724.903 607.535 815.732 607.535 L 1030.038 607.535 L 1067.138 644.967 C 1081.099 659.056 1105.118 649.17 1105.118 629.338 L 1105.118 607.535 L 1116.186 607.535 C 1207.011 607.535 1280.649 533.901 1280.649 443.072 L 1280.649 416.921 C 1280.649 326.091 1207.011 252.458 1116.186 252.458 Z " fill="rgb(178,160,204)"/><path d=" M 787.293 409.224 L 1133.901 409.224 C 1141.18 409.224 1147.088 403.32 1147.088 396.037 C 1147.088 388.754 1141.18 382.849 1133.901 382.849 L 787.293 382.849 C 780.01 382.849 774.106 388.754 774.106 396.037 C 774.106 403.32 780.01 409.224 787.293 409.224 Z " fill="rgb(254,254,254)"/><path d=" M 1031.629 485.514 L 1133.901 485.514 C 1141.18 485.514 1147.088 479.61 1147.088 472.327 C 1147.088 465.044 1141.18 459.139 1133.901 459.139 L 1031.629 459.139 C 1024.35 459.139 1018.442 465.044 1018.442 472.327 C 1018.442 479.61 1024.35 485.514 1031.629 485.514 Z " fill="rgb(254,254,254)"/></g></g></g></svg>