<?xml version="1.0" encoding="UTF-8" standalone="no"?><!-- Generator: Gravit.io --><svg xmlns="http://www.w3.org/2000/svg" xmlns:xlink="http://www.w3.org/1999/xlink" style="isolation:isolate" viewBox="0 0 441 299" width="441pt" height="299pt"><defs><clipPath id="_clipPath_TjUN1TDVMOez4KFMKzKPBm3xbRkP7v0B"><rect width="441" height="299"/></clipPath></defs><g clip-path="url(#_clipPath_TjUN1TDVMOez4KFMKzKPBm3xbRkP7v0B)"><g><clipPath id="_clipPath_XjdHvNGOJaMcvP2pl2JNyCF0ocOGtPg7"><path d=" M -379 -225 L -379 1009 L 855 1009 L 855 -225 L -379 -225 Z " fill="rgb(255,255,255)"/></clipPath><g clip-path="url(#_clipPath_XjdHvNGOJaMcvP2pl2JNyCF0ocOGtPg7)"><path d=" M 378.039 296.15 L 356.109 296.15 C 359.655 292.759 363.004 289.129 366.116 285.308 L 388.23 285.298 C 385.024 289.099 381.615 292.727 378.039 296.15 Z  M 96.754 296.15 L 73.937 296.15 C 55.482 279.22 42.845 255.771 40.005 229.003 C 34.659 178.649 65.23 132.813 111.021 117.107 L 111.021 151.575 C 81.901 169.216 63.974 202.682 67.817 238.883 C 69.507 254.816 75.265 269.365 83.938 281.611 L 79.48 284.232 L 79.804 284.783 L 79.806 285.434 L 79.984 285.434 L 86.798 285.432 C 89.831 289.272 93.163 292.856 96.754 296.15 Z  M 390.582 282.438 L 375.117 272.685 C 384.177 258.037 389.876 241.615 390.604 225.363 C 391.872 197.021 382.269 171.519 365.909 152.204 L 373.106 152.204 C 378.219 152.204 382.361 148.06 382.361 142.949 L 382.361 119.607 C 405.854 142.952 420.151 175.966 418.485 213.151 C 417.394 237.511 406.782 262.193 390.582 282.438 Z  M 176.875 92.646 L 165.846 92.646 C 166.292 90.556 166.46 88.364 166.31 86.114 C 166.28 85.682 166.253 85.344 166.228 85.109 C 161.03 35.347 196.232 9.507 245.133 2.852 C 249.377 2.275 253.6 1.994 257.781 1.994 C 291.886 1.994 323.092 20.689 339.432 49.451 L 334.77 49.451 C 323.706 49.451 314.703 59.368 314.703 71.56 L 314.703 73.64 C 299.804 56.105 277.515 45.278 253.548 45.278 C 249.982 45.278 246.379 45.517 242.758 46.011 C 209.583 50.525 183.803 65.392 176.875 92.646 Z  M 351.044 86.239 L 325.103 86.239 L 325.103 71.56 C 325.103 65.634 329.439 60.814 334.77 60.814 L 344.889 60.814 C 347.703 67.887 349.672 75.427 350.657 83.325 C 350.711 83.747 350.758 84.166 350.807 84.586 C 350.869 85.141 350.948 85.694 351.044 86.239 Z " fill="rgb(123,88,162)"/><path d=" M 102.946 83.315 C 96.004 83.315 90.374 77.685 90.374 70.743 C 90.374 63.8 96.004 58.168 102.946 58.168 C 109.891 58.168 115.521 63.8 115.521 70.743 C 115.521 77.685 109.891 83.315 102.946 83.315 Z " fill="rgb(123,88,162)"/><path d=" M 374.688 33.864 C 368.589 33.864 363.646 28.92 363.646 22.824 C 363.646 16.726 368.589 11.782 374.688 11.782 C 380.784 11.782 385.73 16.726 385.73 22.824 C 385.73 28.92 380.784 33.864 374.688 33.864 Z " fill="rgb(123,88,162)"/><path d=" M 426.479 137.951 C 422.33 137.951 418.964 134.588 418.964 130.436 C 418.964 126.288 422.33 122.924 426.479 122.924 C 430.63 122.924 433.994 126.288 433.994 130.436 C 433.994 134.588 430.63 137.951 426.479 137.951 Z " fill="rgb(123,88,162)"/><path d=" M 9.979 234.164 C 5.83 234.164 2.466 230.803 2.466 226.651 C 2.466 222.5 5.83 219.136 9.979 219.136 C 14.13 219.136 17.494 222.5 17.494 226.651 C 17.494 230.803 14.13 234.164 9.979 234.164 Z " fill="rgb(123,88,162)"/><path d=" M 390.604 213.023 C 392.391 173.135 372.642 138.877 342.836 119.57 C 337.26 115.959 333.62 109.992 332.882 103.377 C 332.845 103.019 332.801 102.662 332.759 102.304 C 327.292 58.507 286.358 27.738 242.758 33.671 C 201.054 39.345 171.031 61.384 175.466 103.822 C 175.488 104.021 175.51 104.313 175.535 104.68 C 176.31 116.245 167.233 125.969 155.68 126.243 C 153.256 126.3 150.818 126.456 148.365 126.712 C 98.61 131.912 62.518 176.625 67.817 226.543 C 70.24 249.374 81.015 269.37 96.754 283.81 L 356.109 283.81 C 375.825 264.945 389.449 238.772 390.604 213.023 Z " fill="rgb(175,154,196)"/><path d=" M 361.832 265.989 L 111.668 265.989 L 111.668 98.37 C 111.668 95.566 113.941 93.293 116.745 93.293 L 356.753 93.293 C 359.556 93.293 361.832 95.566 361.832 98.37 L 361.832 265.989 Z " fill="rgb(237,241,246)"/><path d=" M 112.315 265.345 L 361.183 265.345 L 361.183 98.372 C 361.183 95.929 359.196 93.94 356.753 93.94 L 116.745 93.94 C 114.301 93.94 112.315 95.929 112.315 98.372 L 112.315 265.345 Z  M 362.479 266.638 L 111.021 266.638 L 111.021 98.372 C 111.021 95.216 113.588 92.646 116.745 92.646 L 356.753 92.646 C 359.909 92.646 362.479 95.216 362.479 98.372 L 362.479 266.638 Z " fill="rgb(55,69,105)"/><path d=" M 252.808 259.014 L 220.689 259.014 L 220.689 256.445 L 252.808 256.445 L 252.808 259.014 Z " fill="rgb(237,241,246)"/><path d=" M 221.339 258.368 L 252.159 258.368 L 252.159 257.092 L 221.339 257.092 L 221.339 258.368 Z  M 253.455 259.658 L 220.045 259.658 L 220.045 255.798 L 253.455 255.798 L 253.455 259.658 Z " fill="rgb(55,69,105)"/><path d=" M 238.701 100.433 C 238.701 101.455 237.827 102.286 236.749 102.286 C 235.67 102.286 234.797 101.455 234.797 100.433 C 234.797 99.409 235.67 98.579 236.749 98.579 C 237.827 98.579 238.701 99.409 238.701 100.433 Z " fill="rgb(237,241,246)"/><path d=" M 236.749 99.226 C 236.028 99.226 235.443 99.767 235.443 100.433 C 235.443 101.099 236.028 101.64 236.749 101.64 C 237.469 101.64 238.054 101.099 238.054 100.433 C 238.054 99.767 237.469 99.226 236.749 99.226 Z  M 236.749 102.933 C 235.317 102.933 234.15 101.81 234.15 100.433 C 234.15 99.053 235.317 97.933 236.749 97.933 C 238.183 97.933 239.348 99.053 239.348 100.433 C 239.348 101.81 238.183 102.933 236.749 102.933 Z " fill="rgb(55,69,105)"/><path d=" M 388.331 296.313 L 84.801 296.313 C 81.507 296.313 78.839 294.529 78.839 292.33 L 78.839 286.054 C 78.839 285.432 79.591 284.931 80.519 284.931 L 392.874 284.931 C 393.802 284.931 394.555 285.432 394.555 286.054 L 394.555 292.155 C 394.555 294.452 391.769 296.313 388.331 296.313 Z " fill="rgb(55,69,105)"/><path d=" M 80.519 285.577 C 79.878 285.577 79.485 285.886 79.485 286.054 L 79.485 292.33 C 79.485 294.139 81.919 295.667 84.801 295.667 L 388.331 295.667 C 391.354 295.667 393.908 294.06 393.908 292.157 L 393.908 286.054 C 393.908 285.886 393.516 285.577 392.874 285.577 L 80.519 285.577 Z  M 388.331 296.96 L 84.801 296.96 C 81.094 296.96 78.19 294.926 78.19 292.33 L 78.19 286.054 C 78.19 285.059 79.214 284.282 80.519 284.282 L 392.874 284.282 C 394.18 284.282 395.202 285.059 395.202 286.054 L 395.202 292.157 C 395.202 294.85 392.183 296.96 388.331 296.96 Z " fill="rgb(55,69,105)"/><path d=" M 128.283 253.024 L 345.215 253.024 C 348.288 253.024 350.773 250.534 350.773 247.464 L 350.773 112.561 C 350.773 109.491 348.288 107.003 345.215 107.003 L 128.283 107.003 C 125.212 107.003 122.725 109.491 122.725 112.561 L 122.725 247.464 C 122.725 250.534 125.212 253.024 128.283 253.024 Z " fill="rgb(254,254,254)"/><path d=" M 128.283 107.62 C 125.558 107.62 123.342 109.836 123.342 112.561 L 123.342 247.464 C 123.342 250.191 125.558 252.405 128.283 252.405 L 345.215 252.405 C 347.94 252.405 350.156 250.191 350.156 247.464 L 350.156 112.561 C 350.156 109.836 347.94 107.62 345.215 107.62 L 128.283 107.62 Z  M 345.215 253.639 L 128.283 253.639 C 124.879 253.639 122.108 250.87 122.108 247.464 L 122.108 112.561 C 122.108 109.157 124.879 106.386 128.283 106.386 L 345.215 106.386 C 348.621 106.386 351.39 109.157 351.39 112.561 L 351.39 247.464 C 351.39 250.87 348.621 253.639 345.215 253.639 Z " fill="rgb(55,69,105)"/><path d=" M 349.766 116.779 L 349.766 112.923 C 349.766 110.117 347.295 107.842 344.252 107.842 L 128.981 107.842 C 125.936 107.842 123.465 110.117 123.465 112.923 L 123.465 116.796 L 349.766 116.779 Z " fill="rgb(176,159,204)"/><path d=" M 330.646 112.563 C 330.646 113.271 330.074 113.847 329.363 113.847 C 328.655 113.847 328.077 113.271 328.077 112.563 C 328.077 111.852 328.655 111.277 329.363 111.277 C 330.074 111.277 330.646 111.852 330.646 112.563 Z " fill="rgb(254,254,254)"/><path d=" M 335.785 112.563 C 335.785 113.271 335.212 113.847 334.501 113.847 C 333.79 113.847 333.215 113.271 333.215 112.563 C 333.215 111.852 333.79 111.277 334.501 111.277 C 335.212 111.277 335.785 111.852 335.785 112.563 Z " fill="rgb(254,254,254)"/><path d=" M 340.923 112.563 C 340.923 113.271 340.35 113.847 339.64 113.847 C 338.929 113.847 338.354 113.271 338.354 112.563 C 338.354 111.852 338.929 111.277 339.64 111.277 C 340.35 111.277 340.923 111.852 340.923 112.563 Z " fill="rgb(254,254,254)"/><path d=" M 329.513 234.164 L 142.131 234.164 L 142.131 132.877 L 302.903 132.877 L 302.903 142.949 C 302.903 148.06 307.047 152.204 312.158 152.204 L 329.513 152.204 L 329.513 234.164 Z " fill="rgb(228,219,234)"/><path d=" M 112.633 265.498 L 79.809 284.788 L 392.874 284.649 L 362.639 265.579 L 112.633 265.498 Z " fill="rgb(237,241,246)"/><path d=" M 112.806 266.144 L 82.188 284.139 L 390.638 284.005 L 362.454 266.226 L 112.806 266.144 Z  M 79.984 285.434 L 79.806 285.434 L 79.804 284.783 L 79.48 284.232 L 112.455 264.851 L 112.631 264.851 L 362.827 264.933 L 395.11 285.296 L 79.984 285.434 Z " fill="rgb(55,69,105)"/><path d=" M 134.655 277.675 L 154.251 266.159 L 320.14 266.213 L 338.171 277.586 L 134.655 277.675 Z " fill="rgb(237,241,246)"/><path d=" M 320.14 266.213 L 154.251 266.159 L 154.273 266.144 L 320.118 266.199 L 320.14 266.213 Z " fill="rgb(97,110,141)"/><path d=" M 129.894 278.971 L 151.699 266.157 L 154.251 266.159 L 134.655 277.675 L 338.171 277.586 L 320.14 266.213 L 322.566 266.213 L 342.641 278.877 L 129.894 278.971 Z " fill="rgb(185,194,208)"/><path d=" M 320.513 264.918 L 153.898 264.863 L 153.923 264.851 L 320.493 264.905 L 320.513 264.918 Z " fill="rgb(185,194,208)"/><path d=" M 322.566 266.213 L 320.14 266.213 L 320.118 266.199 L 154.273 266.144 L 154.251 266.159 L 151.699 266.157 L 153.898 264.863 L 320.513 264.918 L 322.566 266.213 Z " fill="rgb(55,69,105)"/><path d=" M 207.493 175.08 C 206.422 175.08 205.553 174.211 205.553 173.14 C 205.553 168.858 202.071 165.376 197.789 165.376 C 193.509 165.376 190.025 168.858 190.025 173.14 C 190.025 174.211 189.156 175.08 188.082 175.08 C 187.011 175.08 186.142 174.211 186.142 173.14 C 186.142 166.718 191.367 161.494 197.789 161.494 C 204.211 161.494 209.435 166.718 209.435 173.14 C 209.435 174.211 208.564 175.08 207.493 175.08 Z " fill="rgb(55,69,105)"/><path d=" M 285.205 175.08 C 284.132 175.08 283.266 174.211 283.266 173.14 C 283.266 168.858 279.783 165.376 275.499 165.376 C 271.219 165.376 267.737 168.858 267.737 173.14 C 267.737 174.211 266.866 175.08 265.795 175.08 C 264.724 175.08 263.855 174.211 263.855 173.14 C 263.855 166.718 269.08 161.494 275.499 161.494 C 281.923 161.494 287.145 166.718 287.145 173.14 C 287.145 174.211 286.279 175.08 285.205 175.08 Z " fill="rgb(55,69,105)"/><path d=" M 208.127 186.023 C 209.132 200.811 221.645 212.633 236.611 212.633 C 251.7 212.633 264.094 200.866 265.096 186.023 L 208.127 186.023 Z  M 236.611 216.515 C 219.112 216.515 204.568 202.287 204.186 184.799 C 204.174 184.106 204.443 183.422 204.931 182.926 C 205.417 182.427 206.099 182.141 206.795 182.141 L 269.043 182.141 L 269.043 184.083 C 269.043 201.964 254.494 216.515 236.611 216.515 Z " fill="rgb(55,69,105)"/><path d=" M 349.832 117.472 L 175.105 117.472 C 174.73 117.472 174.429 117.168 174.429 116.796 C 174.429 116.421 174.73 116.117 175.105 116.117 L 349.832 116.117 C 350.205 116.117 350.506 116.421 350.506 116.796 C 350.506 117.168 350.205 117.472 349.832 117.472 Z " fill="rgb(55,69,105)"/><path d=" M 334.77 60.197 C 329.101 60.197 324.486 65.294 324.486 71.56 L 324.486 93.801 C 324.486 100.065 329.101 105.164 334.77 105.164 L 350.491 105.164 C 356.163 105.164 360.778 100.065 360.778 93.801 L 360.778 71.56 C 360.778 65.294 356.163 60.197 350.491 60.197 L 334.77 60.197 Z  M 315.32 93.801 L 315.32 71.56 C 315.32 59.708 324.047 50.068 334.77 50.068 L 350.491 50.068 C 361.217 50.068 369.944 59.708 369.944 71.56 L 369.944 93.801 C 369.944 105.65 361.217 115.29 350.491 115.29 L 334.77 115.29 C 324.047 115.29 315.32 105.65 315.32 93.801 Z " fill="rgb(55,69,105)"/><path d=" M 334.77 60.814 C 329.439 60.814 325.103 65.634 325.103 71.56 L 325.103 93.801 C 325.103 99.727 329.439 104.547 334.77 104.547 L 350.491 104.547 C 355.822 104.547 360.159 99.727 360.159 93.801 L 360.159 71.56 C 360.159 65.634 355.822 60.814 350.491 60.814 L 334.77 60.814 Z  M 350.491 105.781 L 334.77 105.781 C 328.761 105.781 323.869 100.406 323.869 93.801 L 323.869 71.56 C 323.869 64.953 328.761 59.58 334.77 59.58 L 350.491 59.58 C 356.503 59.58 361.393 64.953 361.393 71.56 L 361.393 93.801 C 361.393 100.406 356.503 105.781 350.491 105.781 Z  M 334.77 50.685 C 324.385 50.685 315.937 60.049 315.937 71.56 L 315.937 93.801 C 315.937 105.31 324.385 114.673 334.77 114.673 L 350.491 114.673 C 360.877 114.673 369.327 105.31 369.327 93.801 L 369.327 71.56 C 369.327 60.049 360.877 50.685 350.491 50.685 L 334.77 50.685 Z  M 350.491 115.907 L 334.77 115.907 C 323.706 115.907 314.703 105.991 314.703 93.801 L 314.703 71.56 C 314.703 59.368 323.706 49.451 334.77 49.451 L 350.491 49.451 C 361.56 49.451 370.561 59.368 370.561 71.56 L 370.561 93.801 C 370.561 105.991 361.56 115.907 350.491 115.907 Z " fill="rgb(254,254,254)"/><path d=" M 312.158 152.204 L 373.106 152.204 C 378.219 152.204 382.361 148.06 382.361 142.949 L 382.361 95.494 C 382.361 90.383 378.219 86.239 373.106 86.239 L 312.158 86.239 C 307.047 86.239 302.903 90.383 302.903 95.494 L 302.903 142.949 C 302.903 148.06 307.047 152.204 312.158 152.204 Z " fill="rgb(246,171,181)"/><path d=" M 374.764 152.821 L 352.446 152.821 C 352.106 152.821 351.829 152.547 351.829 152.204 C 351.829 151.864 352.106 151.587 352.446 151.587 L 374.764 151.587 C 378.614 151.587 381.744 148.458 381.744 144.61 L 381.744 100.364 C 381.744 100.023 382.023 99.747 382.361 99.747 C 382.701 99.747 382.978 100.023 382.978 100.364 L 382.978 144.61 C 382.978 149.139 379.293 152.821 374.764 152.821 Z " fill="rgb(55,69,105)"/><path d=" M 367.671 146.34 L 317.593 146.34 C 312.482 146.34 308.338 142.196 308.338 137.085 L 308.338 104.52 C 308.338 99.406 312.482 95.265 317.593 95.265 L 367.671 95.265 C 372.782 95.265 376.926 99.406 376.926 104.52 L 376.926 137.085 C 376.926 142.196 372.782 146.34 367.671 146.34 Z " fill="rgb(248,193,200)"/><path d=" M 333.356 113.506 C 333.356 108.385 337.507 104.231 342.633 104.231 C 347.757 104.231 351.908 108.385 351.908 113.506 C 351.908 117.689 349.122 121.184 345.316 122.341 L 345.316 134.341 L 339.946 134.341 L 339.946 122.341 C 336.142 121.184 333.356 117.689 333.356 113.506 Z " fill="rgb(55,69,105)"/><path d=" M 416.676 297.187 L 57.441 297.187 C 56.869 297.187 56.405 296.723 56.405 296.15 C 56.405 295.58 56.869 295.116 57.441 295.116 L 416.676 295.116 C 417.248 295.116 417.71 295.58 417.71 296.15 C 417.71 296.723 417.248 297.187 416.676 297.187 Z " fill="rgb(55,69,105)"/><path d=" M 397.129 94.127 C 397.129 102.38 390.438 109.071 382.185 109.071 C 373.93 109.071 367.239 102.38 367.239 94.127 C 367.239 85.874 373.93 79.183 382.185 79.183 C 390.438 79.183 397.129 85.874 397.129 94.127 Z " fill="rgb(176,159,204)"/><path d=" M 368.029 108.284 C 367.775 108.029 367.775 107.62 368.029 107.366 C 368.281 107.114 368.69 107.114 368.945 107.366 C 376.349 114.77 388.397 114.77 395.801 107.368 C 403.205 99.964 403.203 87.918 395.801 80.514 C 388.397 73.11 376.349 73.11 368.947 80.514 C 368.693 80.765 368.283 80.765 368.032 80.514 C 367.777 80.26 367.777 79.85 368.032 79.596 C 375.939 71.688 388.807 71.688 396.715 79.596 C 404.625 87.506 404.625 100.374 396.717 108.284 C 388.807 116.191 375.939 116.191 368.029 108.284 Z " fill="rgb(55,69,105)"/><path d=" M 383.671 88.098 L 383.368 95.847 C 383.338 96.615 382.709 97.22 381.941 97.22 C 381.174 97.22 380.542 96.612 380.512 95.845 L 380.223 88.095 C 380.191 87.286 380.84 86.612 381.65 86.612 L 382.245 86.612 C 383.057 86.612 383.706 87.288 383.671 88.098 Z  M 381.971 102.257 C 381.401 102.257 380.927 102.082 380.554 101.736 C 380.181 101.388 379.996 100.969 379.996 100.472 C 379.996 99.957 380.184 99.537 380.562 99.206 C 380.934 98.876 381.408 98.713 381.971 98.713 C 382.543 98.713 383.012 98.878 383.378 99.211 C 383.743 99.544 383.925 99.964 383.925 100.472 C 383.925 100.988 383.745 101.415 383.382 101.751 C 383.022 102.087 382.551 102.257 381.971 102.257 Z " fill="rgb(254,254,254)"/></g></g></g></svg>