<svg width="50" height="50" viewBox="0 0 50 50" fill="none" xmlns="http://www.w3.org/2000/svg">
<path d="M32.9853 31.3226C30.8029 31.2348 12.274 16.5405 13.1235 13.4963C13.9731 10.4521 37.4967 9.35437 38.0826 13.0572C38.6685 16.7601 18.6163 35.5524 16.6389 35.7134C14.6615 35.8744 23.4939 14.755 26.2183 14.0232C28.9427 13.2914 35.1678 31.4105 32.9853 31.3226ZM32.9853 31.3226C30.8029 31.2348 12.274 16.5405 13.1235 13.4963" stroke="#FFEA01"/>
<path d="M34.8317 37.3668C30.3864 37.1878 6.13111 19.3469 7.86151 13.1413C9.5919 6.93578 40.5599 4.99654 41.7533 12.5446C42.9467 20.0927 16.6626 43.0055 12.635 43.3337C8.60736 43.6619 20.0936 15.3491 25.6428 13.8573C31.192 12.3656 39.2771 37.5458 34.8317 37.3668ZM34.8317 37.3668C30.3864 37.1878 6.13111 19.3469 7.86151 13.1413" stroke="#6144F7" stroke-width="2"/>
</svg>
